G04 #@! TF.GenerationSoftware,KiCad,Pcbnew,(5.0.0)*
G04 #@! TF.CreationDate,2019-03-03T03:18:43+05:30*
G04 #@! TF.ProjectId,LoRa_Modbus,4C6F52615F4D6F646275732E6B696361,rev?*
G04 #@! TF.SameCoordinates,Original*
G04 #@! TF.FileFunction,Paste,Top*
G04 #@! TF.FilePolarity,Positive*
%FSLAX46Y46*%
G04 Gerber Fmt 4.6, Leading zero omitted, Abs format (unit mm)*
G04 Created by KiCad (PCBNEW (5.0.0)) date 03/03/19 03:18:43*
%MOMM*%
%LPD*%
G01*
G04 APERTURE LIST*
%ADD10R,0.800000X0.750000*%
%ADD11R,1.000000X1.250000*%
%ADD12R,0.600000X0.500000*%
%ADD13R,1.600000X3.500000*%
%ADD14R,0.500000X0.600000*%
%ADD15R,1.250000X1.000000*%
%ADD16R,0.750000X0.800000*%
%ADD17R,1.200000X0.900000*%
%ADD18R,1.800000X0.800000*%
%ADD19R,1.798320X1.597660*%
%ADD20R,1.000000X3.150000*%
%ADD21C,0.100000*%
%ADD22C,1.016000*%
%ADD23R,0.400000X0.600000*%
%ADD24R,0.900000X0.800000*%
%ADD25R,0.600000X0.400000*%
%ADD26R,1.550000X1.300000*%
%ADD27R,0.650000X1.060000*%
%ADD28R,1.060000X0.650000*%
%ADD29C,1.200000*%
G04 APERTURE END LIST*
D10*
G04 #@! TO.C,C1*
X106712320Y-84942680D03*
X108212320Y-84942680D03*
G04 #@! TD*
D11*
G04 #@! TO.C,C2*
X110151200Y-79354680D03*
X112151200Y-79354680D03*
G04 #@! TD*
D12*
G04 #@! TO.C,C3*
X122242780Y-96901000D03*
X121142780Y-96901000D03*
G04 #@! TD*
D13*
G04 #@! TO.C,C4*
X124092780Y-99916000D03*
X124092780Y-105316000D03*
G04 #@! TD*
D14*
G04 #@! TO.C,C5*
X99062540Y-84109560D03*
X99062540Y-85209560D03*
G04 #@! TD*
D15*
G04 #@! TO.C,C6*
X122100340Y-112779108D03*
X122100340Y-110779108D03*
G04 #@! TD*
G04 #@! TO.C,C7*
X113047780Y-111515400D03*
X113047780Y-109515400D03*
G04 #@! TD*
D16*
G04 #@! TO.C,C8*
X115288560Y-109402880D03*
X115288560Y-110902880D03*
G04 #@! TD*
D11*
G04 #@! TO.C,C9*
X101049580Y-113207800D03*
X103049580Y-113207800D03*
G04 #@! TD*
D12*
G04 #@! TO.C,C10*
X102914540Y-115001400D03*
X101814540Y-115001400D03*
G04 #@! TD*
D14*
G04 #@! TO.C,C11*
X130347720Y-122530440D03*
X130347720Y-121430440D03*
G04 #@! TD*
G04 #@! TO.C,C12*
X127233680Y-121430440D03*
X127233680Y-122530440D03*
G04 #@! TD*
G04 #@! TO.C,C13*
X111841280Y-133261620D03*
X111841280Y-134361620D03*
G04 #@! TD*
D12*
G04 #@! TO.C,C23*
X110951200Y-81168240D03*
X109851200Y-81168240D03*
G04 #@! TD*
D17*
G04 #@! TO.C,D1*
X107777280Y-79238840D03*
X107777280Y-82538840D03*
G04 #@! TD*
D18*
G04 #@! TO.C,D2*
X106758740Y-109702600D03*
X109258740Y-109702600D03*
X106758740Y-110802600D03*
X109258740Y-110802600D03*
G04 #@! TD*
D19*
G04 #@! TO.C,F1*
X121793000Y-94630240D03*
X121793000Y-91831160D03*
G04 #@! TD*
D20*
G04 #@! TO.C,J3*
X102097840Y-144622760D03*
X102097840Y-139572760D03*
X104637840Y-144622760D03*
X104637840Y-139572760D03*
X107177840Y-144622760D03*
X107177840Y-139572760D03*
X109717840Y-144622760D03*
X109717840Y-139572760D03*
X112257840Y-144622760D03*
X112257840Y-139572760D03*
X114797840Y-144622760D03*
X114797840Y-139572760D03*
G04 #@! TD*
D21*
G04 #@! TO.C,J$1*
G36*
X134594399Y-120919729D02*
X134604261Y-120921192D01*
X134613933Y-120923615D01*
X134623321Y-120926974D01*
X134632334Y-120931237D01*
X134640886Y-120936363D01*
X134648894Y-120942302D01*
X134656282Y-120948998D01*
X134662978Y-120956386D01*
X134668917Y-120964394D01*
X134674043Y-120972946D01*
X134678306Y-120981959D01*
X134681665Y-120991347D01*
X134684088Y-121001019D01*
X134685551Y-121010881D01*
X134686040Y-121020840D01*
X134686040Y-121833640D01*
X134685551Y-121843599D01*
X134684088Y-121853461D01*
X134681665Y-121863133D01*
X134678306Y-121872521D01*
X134674043Y-121881534D01*
X134668917Y-121890086D01*
X134662978Y-121898094D01*
X134656282Y-121905482D01*
X134648894Y-121912178D01*
X134640886Y-121918117D01*
X134632334Y-121923243D01*
X134623321Y-121927506D01*
X134613933Y-121930865D01*
X134604261Y-121933288D01*
X134594399Y-121934751D01*
X134584440Y-121935240D01*
X133263640Y-121935240D01*
X133253681Y-121934751D01*
X133243819Y-121933288D01*
X133234147Y-121930865D01*
X133224759Y-121927506D01*
X133215746Y-121923243D01*
X133207194Y-121918117D01*
X133199186Y-121912178D01*
X133191798Y-121905482D01*
X133185102Y-121898094D01*
X133179163Y-121890086D01*
X133174037Y-121881534D01*
X133169774Y-121872521D01*
X133166415Y-121863133D01*
X133163992Y-121853461D01*
X133162529Y-121843599D01*
X133162040Y-121833640D01*
X133162040Y-121020840D01*
X133162529Y-121010881D01*
X133163992Y-121001019D01*
X133166415Y-120991347D01*
X133169774Y-120981959D01*
X133174037Y-120972946D01*
X133179163Y-120964394D01*
X133185102Y-120956386D01*
X133191798Y-120948998D01*
X133199186Y-120942302D01*
X133207194Y-120936363D01*
X133215746Y-120931237D01*
X133224759Y-120926974D01*
X133234147Y-120923615D01*
X133243819Y-120921192D01*
X133253681Y-120919729D01*
X133263640Y-120919240D01*
X134584440Y-120919240D01*
X134594399Y-120919729D01*
X134594399Y-120919729D01*
G37*
D22*
X133924040Y-121427240D03*
D21*
G36*
X136552649Y-119449479D02*
X136562511Y-119450942D01*
X136572183Y-119453365D01*
X136581571Y-119456724D01*
X136590584Y-119460987D01*
X136599136Y-119466113D01*
X136607144Y-119472052D01*
X136614532Y-119478748D01*
X136621228Y-119486136D01*
X136627167Y-119494144D01*
X136632293Y-119502696D01*
X136636556Y-119511709D01*
X136639915Y-119521097D01*
X136642338Y-119530769D01*
X136643801Y-119540631D01*
X136644290Y-119550590D01*
X136644290Y-120363390D01*
X136643801Y-120373349D01*
X136642338Y-120383211D01*
X136639915Y-120392883D01*
X136636556Y-120402271D01*
X136632293Y-120411284D01*
X136627167Y-120419836D01*
X136621228Y-120427844D01*
X136614532Y-120435232D01*
X136607144Y-120441928D01*
X136599136Y-120447867D01*
X136590584Y-120452993D01*
X136581571Y-120457256D01*
X136572183Y-120460615D01*
X136562511Y-120463038D01*
X136552649Y-120464501D01*
X136542690Y-120464990D01*
X134545890Y-120464990D01*
X134535931Y-120464501D01*
X134526069Y-120463038D01*
X134516397Y-120460615D01*
X134507009Y-120457256D01*
X134497996Y-120452993D01*
X134489444Y-120447867D01*
X134481436Y-120441928D01*
X134474048Y-120435232D01*
X134467352Y-120427844D01*
X134461413Y-120419836D01*
X134456287Y-120411284D01*
X134452024Y-120402271D01*
X134448665Y-120392883D01*
X134446242Y-120383211D01*
X134444779Y-120373349D01*
X134444290Y-120363390D01*
X134444290Y-119550590D01*
X134444779Y-119540631D01*
X134446242Y-119530769D01*
X134448665Y-119521097D01*
X134452024Y-119511709D01*
X134456287Y-119502696D01*
X134461413Y-119494144D01*
X134467352Y-119486136D01*
X134474048Y-119478748D01*
X134481436Y-119472052D01*
X134489444Y-119466113D01*
X134497996Y-119460987D01*
X134507009Y-119456724D01*
X134516397Y-119453365D01*
X134526069Y-119450942D01*
X134535931Y-119449479D01*
X134545890Y-119448990D01*
X136542690Y-119448990D01*
X136552649Y-119449479D01*
X136552649Y-119449479D01*
G37*
D22*
X135544290Y-119956990D03*
D21*
G36*
X136552649Y-122389979D02*
X136562511Y-122391442D01*
X136572183Y-122393865D01*
X136581571Y-122397224D01*
X136590584Y-122401487D01*
X136599136Y-122406613D01*
X136607144Y-122412552D01*
X136614532Y-122419248D01*
X136621228Y-122426636D01*
X136627167Y-122434644D01*
X136632293Y-122443196D01*
X136636556Y-122452209D01*
X136639915Y-122461597D01*
X136642338Y-122471269D01*
X136643801Y-122481131D01*
X136644290Y-122491090D01*
X136644290Y-123303890D01*
X136643801Y-123313849D01*
X136642338Y-123323711D01*
X136639915Y-123333383D01*
X136636556Y-123342771D01*
X136632293Y-123351784D01*
X136627167Y-123360336D01*
X136621228Y-123368344D01*
X136614532Y-123375732D01*
X136607144Y-123382428D01*
X136599136Y-123388367D01*
X136590584Y-123393493D01*
X136581571Y-123397756D01*
X136572183Y-123401115D01*
X136562511Y-123403538D01*
X136552649Y-123405001D01*
X136542690Y-123405490D01*
X134545890Y-123405490D01*
X134535931Y-123405001D01*
X134526069Y-123403538D01*
X134516397Y-123401115D01*
X134507009Y-123397756D01*
X134497996Y-123393493D01*
X134489444Y-123388367D01*
X134481436Y-123382428D01*
X134474048Y-123375732D01*
X134467352Y-123368344D01*
X134461413Y-123360336D01*
X134456287Y-123351784D01*
X134452024Y-123342771D01*
X134448665Y-123333383D01*
X134446242Y-123323711D01*
X134444779Y-123313849D01*
X134444290Y-123303890D01*
X134444290Y-122491090D01*
X134444779Y-122481131D01*
X134446242Y-122471269D01*
X134448665Y-122461597D01*
X134452024Y-122452209D01*
X134456287Y-122443196D01*
X134461413Y-122434644D01*
X134467352Y-122426636D01*
X134474048Y-122419248D01*
X134481436Y-122412552D01*
X134489444Y-122406613D01*
X134497996Y-122401487D01*
X134507009Y-122397224D01*
X134516397Y-122393865D01*
X134526069Y-122391442D01*
X134535931Y-122389979D01*
X134545890Y-122389490D01*
X136542690Y-122389490D01*
X136552649Y-122389979D01*
X136552649Y-122389979D01*
G37*
D22*
X135544290Y-122897490D03*
G04 #@! TD*
D23*
G04 #@! TO.C,L1*
X128429600Y-121427240D03*
X129329600Y-121427240D03*
G04 #@! TD*
D24*
G04 #@! TO.C,Q1*
X103473760Y-80167480D03*
X101473760Y-81117480D03*
X101473760Y-79217480D03*
G04 #@! TD*
D25*
G04 #@! TO.C,R1*
X113969800Y-85265680D03*
X113969800Y-84365680D03*
G04 #@! TD*
G04 #@! TO.C,R2*
X99146360Y-81001020D03*
X99146360Y-80101020D03*
G04 #@! TD*
G04 #@! TO.C,R3*
X102288340Y-84409560D03*
X102288340Y-85309560D03*
G04 #@! TD*
G04 #@! TO.C,R4*
X100645440Y-84409560D03*
X100645440Y-85309560D03*
G04 #@! TD*
D23*
G04 #@! TO.C,R5*
X121599540Y-109031268D03*
X122499540Y-109031268D03*
G04 #@! TD*
D25*
G04 #@! TO.C,R6*
X109571790Y-114256400D03*
X109571790Y-115156400D03*
G04 #@! TD*
G04 #@! TO.C,R7*
X113608066Y-133161620D03*
X113608066Y-134061620D03*
G04 #@! TD*
G04 #@! TO.C,R8*
X111163100Y-114256400D03*
X111163100Y-115156400D03*
G04 #@! TD*
G04 #@! TO.C,R9*
X117139720Y-133161620D03*
X117139720Y-134061620D03*
G04 #@! TD*
G04 #@! TO.C,R10*
X115373892Y-134061620D03*
X115373892Y-133161620D03*
G04 #@! TD*
G04 #@! TO.C,R11*
X104637840Y-134061620D03*
X104637840Y-133161620D03*
G04 #@! TD*
G04 #@! TO.C,R12*
X102814120Y-134061620D03*
X102814120Y-133161620D03*
G04 #@! TD*
G04 #@! TO.C,R13*
X104797860Y-115156400D03*
X104797860Y-114256400D03*
G04 #@! TD*
G04 #@! TO.C,R14*
X98882200Y-120512000D03*
X98882200Y-121412000D03*
G04 #@! TD*
G04 #@! TO.C,R15*
X104594660Y-109852040D03*
X104594660Y-110752040D03*
G04 #@! TD*
G04 #@! TO.C,R16*
X106389170Y-114256400D03*
X106389170Y-115156400D03*
G04 #@! TD*
G04 #@! TO.C,R17*
X107980480Y-115156400D03*
X107980480Y-114256400D03*
G04 #@! TD*
D26*
G04 #@! TO.C,SW1*
X97883800Y-143753400D03*
X97883800Y-139253400D03*
X89923800Y-139253400D03*
X89923800Y-143753400D03*
G04 #@! TD*
D27*
G04 #@! TO.C,U1*
X112151200Y-82704760D03*
X111201200Y-82704760D03*
X110251200Y-82704760D03*
X110251200Y-84904760D03*
X112151200Y-84904760D03*
G04 #@! TD*
D28*
G04 #@! TO.C,U3*
X117444340Y-111445080D03*
X117444340Y-109545080D03*
X119644340Y-109545080D03*
X119644340Y-110495080D03*
X119644340Y-111445080D03*
G04 #@! TD*
D21*
G04 #@! TO.C,U4*
G36*
X101850962Y-122635458D02*
X101862611Y-122637186D01*
X101874034Y-122640047D01*
X101885122Y-122644014D01*
X101895768Y-122649049D01*
X101905868Y-122655104D01*
X101915327Y-122662119D01*
X101924053Y-122670027D01*
X101931961Y-122678753D01*
X101938976Y-122688212D01*
X101945031Y-122698312D01*
X101950066Y-122708958D01*
X101954033Y-122720046D01*
X101956894Y-122731469D01*
X101958622Y-122743118D01*
X101959200Y-122754880D01*
X101959200Y-123714880D01*
X101958622Y-123726642D01*
X101956894Y-123738291D01*
X101954033Y-123749714D01*
X101950066Y-123760802D01*
X101945031Y-123771448D01*
X101938976Y-123781548D01*
X101931961Y-123791007D01*
X101924053Y-123799733D01*
X101915327Y-123807641D01*
X101905868Y-123814656D01*
X101895768Y-123820711D01*
X101885122Y-123825746D01*
X101874034Y-123829713D01*
X101862611Y-123832574D01*
X101850962Y-123834302D01*
X101839200Y-123834880D01*
X100079200Y-123834880D01*
X100067438Y-123834302D01*
X100055789Y-123832574D01*
X100044366Y-123829713D01*
X100033278Y-123825746D01*
X100022632Y-123820711D01*
X100012532Y-123814656D01*
X100003073Y-123807641D01*
X99994347Y-123799733D01*
X99986439Y-123791007D01*
X99979424Y-123781548D01*
X99973369Y-123771448D01*
X99968334Y-123760802D01*
X99964367Y-123749714D01*
X99961506Y-123738291D01*
X99959778Y-123726642D01*
X99959200Y-123714880D01*
X99959200Y-122754880D01*
X99959778Y-122743118D01*
X99961506Y-122731469D01*
X99964367Y-122720046D01*
X99968334Y-122708958D01*
X99973369Y-122698312D01*
X99979424Y-122688212D01*
X99986439Y-122678753D01*
X99994347Y-122670027D01*
X100003073Y-122662119D01*
X100012532Y-122655104D01*
X100022632Y-122649049D01*
X100033278Y-122644014D01*
X100044366Y-122640047D01*
X100055789Y-122637186D01*
X100067438Y-122635458D01*
X100079200Y-122634880D01*
X101839200Y-122634880D01*
X101850962Y-122635458D01*
X101850962Y-122635458D01*
G37*
D29*
X100959200Y-123234880D03*
D21*
G36*
X101850962Y-120835458D02*
X101862611Y-120837186D01*
X101874034Y-120840047D01*
X101885122Y-120844014D01*
X101895768Y-120849049D01*
X101905868Y-120855104D01*
X101915327Y-120862119D01*
X101924053Y-120870027D01*
X101931961Y-120878753D01*
X101938976Y-120888212D01*
X101945031Y-120898312D01*
X101950066Y-120908958D01*
X101954033Y-120920046D01*
X101956894Y-120931469D01*
X101958622Y-120943118D01*
X101959200Y-120954880D01*
X101959200Y-121914880D01*
X101958622Y-121926642D01*
X101956894Y-121938291D01*
X101954033Y-121949714D01*
X101950066Y-121960802D01*
X101945031Y-121971448D01*
X101938976Y-121981548D01*
X101931961Y-121991007D01*
X101924053Y-121999733D01*
X101915327Y-122007641D01*
X101905868Y-122014656D01*
X101895768Y-122020711D01*
X101885122Y-122025746D01*
X101874034Y-122029713D01*
X101862611Y-122032574D01*
X101850962Y-122034302D01*
X101839200Y-122034880D01*
X100079200Y-122034880D01*
X100067438Y-122034302D01*
X100055789Y-122032574D01*
X100044366Y-122029713D01*
X100033278Y-122025746D01*
X100022632Y-122020711D01*
X100012532Y-122014656D01*
X100003073Y-122007641D01*
X99994347Y-121999733D01*
X99986439Y-121991007D01*
X99979424Y-121981548D01*
X99973369Y-121971448D01*
X99968334Y-121960802D01*
X99964367Y-121949714D01*
X99961506Y-121938291D01*
X99959778Y-121926642D01*
X99959200Y-121914880D01*
X99959200Y-120954880D01*
X99959778Y-120943118D01*
X99961506Y-120931469D01*
X99964367Y-120920046D01*
X99968334Y-120908958D01*
X99973369Y-120898312D01*
X99979424Y-120888212D01*
X99986439Y-120878753D01*
X99994347Y-120870027D01*
X100003073Y-120862119D01*
X100012532Y-120855104D01*
X100022632Y-120849049D01*
X100033278Y-120844014D01*
X100044366Y-120840047D01*
X100055789Y-120837186D01*
X100067438Y-120835458D01*
X100079200Y-120834880D01*
X101839200Y-120834880D01*
X101850962Y-120835458D01*
X101850962Y-120835458D01*
G37*
D29*
X100959200Y-121434880D03*
D21*
G36*
X101850962Y-119035458D02*
X101862611Y-119037186D01*
X101874034Y-119040047D01*
X101885122Y-119044014D01*
X101895768Y-119049049D01*
X101905868Y-119055104D01*
X101915327Y-119062119D01*
X101924053Y-119070027D01*
X101931961Y-119078753D01*
X101938976Y-119088212D01*
X101945031Y-119098312D01*
X101950066Y-119108958D01*
X101954033Y-119120046D01*
X101956894Y-119131469D01*
X101958622Y-119143118D01*
X101959200Y-119154880D01*
X101959200Y-120114880D01*
X101958622Y-120126642D01*
X101956894Y-120138291D01*
X101954033Y-120149714D01*
X101950066Y-120160802D01*
X101945031Y-120171448D01*
X101938976Y-120181548D01*
X101931961Y-120191007D01*
X101924053Y-120199733D01*
X101915327Y-120207641D01*
X101905868Y-120214656D01*
X101895768Y-120220711D01*
X101885122Y-120225746D01*
X101874034Y-120229713D01*
X101862611Y-120232574D01*
X101850962Y-120234302D01*
X101839200Y-120234880D01*
X100079200Y-120234880D01*
X100067438Y-120234302D01*
X100055789Y-120232574D01*
X100044366Y-120229713D01*
X100033278Y-120225746D01*
X100022632Y-120220711D01*
X100012532Y-120214656D01*
X100003073Y-120207641D01*
X99994347Y-120199733D01*
X99986439Y-120191007D01*
X99979424Y-120181548D01*
X99973369Y-120171448D01*
X99968334Y-120160802D01*
X99964367Y-120149714D01*
X99961506Y-120138291D01*
X99959778Y-120126642D01*
X99959200Y-120114880D01*
X99959200Y-119154880D01*
X99959778Y-119143118D01*
X99961506Y-119131469D01*
X99964367Y-119120046D01*
X99968334Y-119108958D01*
X99973369Y-119098312D01*
X99979424Y-119088212D01*
X99986439Y-119078753D01*
X99994347Y-119070027D01*
X100003073Y-119062119D01*
X100012532Y-119055104D01*
X100022632Y-119049049D01*
X100033278Y-119044014D01*
X100044366Y-119040047D01*
X100055789Y-119037186D01*
X100067438Y-119035458D01*
X100079200Y-119034880D01*
X101839200Y-119034880D01*
X101850962Y-119035458D01*
X101850962Y-119035458D01*
G37*
D29*
X100959200Y-119634880D03*
D21*
G36*
X101850962Y-124435458D02*
X101862611Y-124437186D01*
X101874034Y-124440047D01*
X101885122Y-124444014D01*
X101895768Y-124449049D01*
X101905868Y-124455104D01*
X101915327Y-124462119D01*
X101924053Y-124470027D01*
X101931961Y-124478753D01*
X101938976Y-124488212D01*
X101945031Y-124498312D01*
X101950066Y-124508958D01*
X101954033Y-124520046D01*
X101956894Y-124531469D01*
X101958622Y-124543118D01*
X101959200Y-124554880D01*
X101959200Y-125514880D01*
X101958622Y-125526642D01*
X101956894Y-125538291D01*
X101954033Y-125549714D01*
X101950066Y-125560802D01*
X101945031Y-125571448D01*
X101938976Y-125581548D01*
X101931961Y-125591007D01*
X101924053Y-125599733D01*
X101915327Y-125607641D01*
X101905868Y-125614656D01*
X101895768Y-125620711D01*
X101885122Y-125625746D01*
X101874034Y-125629713D01*
X101862611Y-125632574D01*
X101850962Y-125634302D01*
X101839200Y-125634880D01*
X100079200Y-125634880D01*
X100067438Y-125634302D01*
X100055789Y-125632574D01*
X100044366Y-125629713D01*
X100033278Y-125625746D01*
X100022632Y-125620711D01*
X100012532Y-125614656D01*
X100003073Y-125607641D01*
X99994347Y-125599733D01*
X99986439Y-125591007D01*
X99979424Y-125581548D01*
X99973369Y-125571448D01*
X99968334Y-125560802D01*
X99964367Y-125549714D01*
X99961506Y-125538291D01*
X99959778Y-125526642D01*
X99959200Y-125514880D01*
X99959200Y-124554880D01*
X99959778Y-124543118D01*
X99961506Y-124531469D01*
X99964367Y-124520046D01*
X99968334Y-124508958D01*
X99973369Y-124498312D01*
X99979424Y-124488212D01*
X99986439Y-124478753D01*
X99994347Y-124470027D01*
X100003073Y-124462119D01*
X100012532Y-124455104D01*
X100022632Y-124449049D01*
X100033278Y-124444014D01*
X100044366Y-124440047D01*
X100055789Y-124437186D01*
X100067438Y-124435458D01*
X100079200Y-124434880D01*
X101839200Y-124434880D01*
X101850962Y-124435458D01*
X101850962Y-124435458D01*
G37*
D29*
X100959200Y-125034880D03*
D21*
G36*
X101850962Y-126235458D02*
X101862611Y-126237186D01*
X101874034Y-126240047D01*
X101885122Y-126244014D01*
X101895768Y-126249049D01*
X101905868Y-126255104D01*
X101915327Y-126262119D01*
X101924053Y-126270027D01*
X101931961Y-126278753D01*
X101938976Y-126288212D01*
X101945031Y-126298312D01*
X101950066Y-126308958D01*
X101954033Y-126320046D01*
X101956894Y-126331469D01*
X101958622Y-126343118D01*
X101959200Y-126354880D01*
X101959200Y-127314880D01*
X101958622Y-127326642D01*
X101956894Y-127338291D01*
X101954033Y-127349714D01*
X101950066Y-127360802D01*
X101945031Y-127371448D01*
X101938976Y-127381548D01*
X101931961Y-127391007D01*
X101924053Y-127399733D01*
X101915327Y-127407641D01*
X101905868Y-127414656D01*
X101895768Y-127420711D01*
X101885122Y-127425746D01*
X101874034Y-127429713D01*
X101862611Y-127432574D01*
X101850962Y-127434302D01*
X101839200Y-127434880D01*
X100079200Y-127434880D01*
X100067438Y-127434302D01*
X100055789Y-127432574D01*
X100044366Y-127429713D01*
X100033278Y-127425746D01*
X100022632Y-127420711D01*
X100012532Y-127414656D01*
X100003073Y-127407641D01*
X99994347Y-127399733D01*
X99986439Y-127391007D01*
X99979424Y-127381548D01*
X99973369Y-127371448D01*
X99968334Y-127360802D01*
X99964367Y-127349714D01*
X99961506Y-127338291D01*
X99959778Y-127326642D01*
X99959200Y-127314880D01*
X99959200Y-126354880D01*
X99959778Y-126343118D01*
X99961506Y-126331469D01*
X99964367Y-126320046D01*
X99968334Y-126308958D01*
X99973369Y-126298312D01*
X99979424Y-126288212D01*
X99986439Y-126278753D01*
X99994347Y-126270027D01*
X100003073Y-126262119D01*
X100012532Y-126255104D01*
X100022632Y-126249049D01*
X100033278Y-126244014D01*
X100044366Y-126240047D01*
X100055789Y-126237186D01*
X100067438Y-126235458D01*
X100079200Y-126234880D01*
X101839200Y-126234880D01*
X101850962Y-126235458D01*
X101850962Y-126235458D01*
G37*
D29*
X100959200Y-126834880D03*
D21*
G36*
X101850962Y-128035458D02*
X101862611Y-128037186D01*
X101874034Y-128040047D01*
X101885122Y-128044014D01*
X101895768Y-128049049D01*
X101905868Y-128055104D01*
X101915327Y-128062119D01*
X101924053Y-128070027D01*
X101931961Y-128078753D01*
X101938976Y-128088212D01*
X101945031Y-128098312D01*
X101950066Y-128108958D01*
X101954033Y-128120046D01*
X101956894Y-128131469D01*
X101958622Y-128143118D01*
X101959200Y-128154880D01*
X101959200Y-129114880D01*
X101958622Y-129126642D01*
X101956894Y-129138291D01*
X101954033Y-129149714D01*
X101950066Y-129160802D01*
X101945031Y-129171448D01*
X101938976Y-129181548D01*
X101931961Y-129191007D01*
X101924053Y-129199733D01*
X101915327Y-129207641D01*
X101905868Y-129214656D01*
X101895768Y-129220711D01*
X101885122Y-129225746D01*
X101874034Y-129229713D01*
X101862611Y-129232574D01*
X101850962Y-129234302D01*
X101839200Y-129234880D01*
X100079200Y-129234880D01*
X100067438Y-129234302D01*
X100055789Y-129232574D01*
X100044366Y-129229713D01*
X100033278Y-129225746D01*
X100022632Y-129220711D01*
X100012532Y-129214656D01*
X100003073Y-129207641D01*
X99994347Y-129199733D01*
X99986439Y-129191007D01*
X99979424Y-129181548D01*
X99973369Y-129171448D01*
X99968334Y-129160802D01*
X99964367Y-129149714D01*
X99961506Y-129138291D01*
X99959778Y-129126642D01*
X99959200Y-129114880D01*
X99959200Y-128154880D01*
X99959778Y-128143118D01*
X99961506Y-128131469D01*
X99964367Y-128120046D01*
X99968334Y-128108958D01*
X99973369Y-128098312D01*
X99979424Y-128088212D01*
X99986439Y-128078753D01*
X99994347Y-128070027D01*
X100003073Y-128062119D01*
X100012532Y-128055104D01*
X100022632Y-128049049D01*
X100033278Y-128044014D01*
X100044366Y-128040047D01*
X100055789Y-128037186D01*
X100067438Y-128035458D01*
X100079200Y-128034880D01*
X101839200Y-128034880D01*
X101850962Y-128035458D01*
X101850962Y-128035458D01*
G37*
D29*
X100959200Y-128634880D03*
D21*
G36*
X123350962Y-122635458D02*
X123362611Y-122637186D01*
X123374034Y-122640047D01*
X123385122Y-122644014D01*
X123395768Y-122649049D01*
X123405868Y-122655104D01*
X123415327Y-122662119D01*
X123424053Y-122670027D01*
X123431961Y-122678753D01*
X123438976Y-122688212D01*
X123445031Y-122698312D01*
X123450066Y-122708958D01*
X123454033Y-122720046D01*
X123456894Y-122731469D01*
X123458622Y-122743118D01*
X123459200Y-122754880D01*
X123459200Y-123714880D01*
X123458622Y-123726642D01*
X123456894Y-123738291D01*
X123454033Y-123749714D01*
X123450066Y-123760802D01*
X123445031Y-123771448D01*
X123438976Y-123781548D01*
X123431961Y-123791007D01*
X123424053Y-123799733D01*
X123415327Y-123807641D01*
X123405868Y-123814656D01*
X123395768Y-123820711D01*
X123385122Y-123825746D01*
X123374034Y-123829713D01*
X123362611Y-123832574D01*
X123350962Y-123834302D01*
X123339200Y-123834880D01*
X121579200Y-123834880D01*
X121567438Y-123834302D01*
X121555789Y-123832574D01*
X121544366Y-123829713D01*
X121533278Y-123825746D01*
X121522632Y-123820711D01*
X121512532Y-123814656D01*
X121503073Y-123807641D01*
X121494347Y-123799733D01*
X121486439Y-123791007D01*
X121479424Y-123781548D01*
X121473369Y-123771448D01*
X121468334Y-123760802D01*
X121464367Y-123749714D01*
X121461506Y-123738291D01*
X121459778Y-123726642D01*
X121459200Y-123714880D01*
X121459200Y-122754880D01*
X121459778Y-122743118D01*
X121461506Y-122731469D01*
X121464367Y-122720046D01*
X121468334Y-122708958D01*
X121473369Y-122698312D01*
X121479424Y-122688212D01*
X121486439Y-122678753D01*
X121494347Y-122670027D01*
X121503073Y-122662119D01*
X121512532Y-122655104D01*
X121522632Y-122649049D01*
X121533278Y-122644014D01*
X121544366Y-122640047D01*
X121555789Y-122637186D01*
X121567438Y-122635458D01*
X121579200Y-122634880D01*
X123339200Y-122634880D01*
X123350962Y-122635458D01*
X123350962Y-122635458D01*
G37*
D29*
X122459200Y-123234880D03*
D21*
G36*
X123350962Y-119035458D02*
X123362611Y-119037186D01*
X123374034Y-119040047D01*
X123385122Y-119044014D01*
X123395768Y-119049049D01*
X123405868Y-119055104D01*
X123415327Y-119062119D01*
X123424053Y-119070027D01*
X123431961Y-119078753D01*
X123438976Y-119088212D01*
X123445031Y-119098312D01*
X123450066Y-119108958D01*
X123454033Y-119120046D01*
X123456894Y-119131469D01*
X123458622Y-119143118D01*
X123459200Y-119154880D01*
X123459200Y-120114880D01*
X123458622Y-120126642D01*
X123456894Y-120138291D01*
X123454033Y-120149714D01*
X123450066Y-120160802D01*
X123445031Y-120171448D01*
X123438976Y-120181548D01*
X123431961Y-120191007D01*
X123424053Y-120199733D01*
X123415327Y-120207641D01*
X123405868Y-120214656D01*
X123395768Y-120220711D01*
X123385122Y-120225746D01*
X123374034Y-120229713D01*
X123362611Y-120232574D01*
X123350962Y-120234302D01*
X123339200Y-120234880D01*
X121579200Y-120234880D01*
X121567438Y-120234302D01*
X121555789Y-120232574D01*
X121544366Y-120229713D01*
X121533278Y-120225746D01*
X121522632Y-120220711D01*
X121512532Y-120214656D01*
X121503073Y-120207641D01*
X121494347Y-120199733D01*
X121486439Y-120191007D01*
X121479424Y-120181548D01*
X121473369Y-120171448D01*
X121468334Y-120160802D01*
X121464367Y-120149714D01*
X121461506Y-120138291D01*
X121459778Y-120126642D01*
X121459200Y-120114880D01*
X121459200Y-119154880D01*
X121459778Y-119143118D01*
X121461506Y-119131469D01*
X121464367Y-119120046D01*
X121468334Y-119108958D01*
X121473369Y-119098312D01*
X121479424Y-119088212D01*
X121486439Y-119078753D01*
X121494347Y-119070027D01*
X121503073Y-119062119D01*
X121512532Y-119055104D01*
X121522632Y-119049049D01*
X121533278Y-119044014D01*
X121544366Y-119040047D01*
X121555789Y-119037186D01*
X121567438Y-119035458D01*
X121579200Y-119034880D01*
X123339200Y-119034880D01*
X123350962Y-119035458D01*
X123350962Y-119035458D01*
G37*
D29*
X122459200Y-119634880D03*
D21*
G36*
X123350962Y-120835458D02*
X123362611Y-120837186D01*
X123374034Y-120840047D01*
X123385122Y-120844014D01*
X123395768Y-120849049D01*
X123405868Y-120855104D01*
X123415327Y-120862119D01*
X123424053Y-120870027D01*
X123431961Y-120878753D01*
X123438976Y-120888212D01*
X123445031Y-120898312D01*
X123450066Y-120908958D01*
X123454033Y-120920046D01*
X123456894Y-120931469D01*
X123458622Y-120943118D01*
X123459200Y-120954880D01*
X123459200Y-121914880D01*
X123458622Y-121926642D01*
X123456894Y-121938291D01*
X123454033Y-121949714D01*
X123450066Y-121960802D01*
X123445031Y-121971448D01*
X123438976Y-121981548D01*
X123431961Y-121991007D01*
X123424053Y-121999733D01*
X123415327Y-122007641D01*
X123405868Y-122014656D01*
X123395768Y-122020711D01*
X123385122Y-122025746D01*
X123374034Y-122029713D01*
X123362611Y-122032574D01*
X123350962Y-122034302D01*
X123339200Y-122034880D01*
X121579200Y-122034880D01*
X121567438Y-122034302D01*
X121555789Y-122032574D01*
X121544366Y-122029713D01*
X121533278Y-122025746D01*
X121522632Y-122020711D01*
X121512532Y-122014656D01*
X121503073Y-122007641D01*
X121494347Y-121999733D01*
X121486439Y-121991007D01*
X121479424Y-121981548D01*
X121473369Y-121971448D01*
X121468334Y-121960802D01*
X121464367Y-121949714D01*
X121461506Y-121938291D01*
X121459778Y-121926642D01*
X121459200Y-121914880D01*
X121459200Y-120954880D01*
X121459778Y-120943118D01*
X121461506Y-120931469D01*
X121464367Y-120920046D01*
X121468334Y-120908958D01*
X121473369Y-120898312D01*
X121479424Y-120888212D01*
X121486439Y-120878753D01*
X121494347Y-120870027D01*
X121503073Y-120862119D01*
X121512532Y-120855104D01*
X121522632Y-120849049D01*
X121533278Y-120844014D01*
X121544366Y-120840047D01*
X121555789Y-120837186D01*
X121567438Y-120835458D01*
X121579200Y-120834880D01*
X123339200Y-120834880D01*
X123350962Y-120835458D01*
X123350962Y-120835458D01*
G37*
D29*
X122459200Y-121434880D03*
D21*
G36*
X123350962Y-124435458D02*
X123362611Y-124437186D01*
X123374034Y-124440047D01*
X123385122Y-124444014D01*
X123395768Y-124449049D01*
X123405868Y-124455104D01*
X123415327Y-124462119D01*
X123424053Y-124470027D01*
X123431961Y-124478753D01*
X123438976Y-124488212D01*
X123445031Y-124498312D01*
X123450066Y-124508958D01*
X123454033Y-124520046D01*
X123456894Y-124531469D01*
X123458622Y-124543118D01*
X123459200Y-124554880D01*
X123459200Y-125514880D01*
X123458622Y-125526642D01*
X123456894Y-125538291D01*
X123454033Y-125549714D01*
X123450066Y-125560802D01*
X123445031Y-125571448D01*
X123438976Y-125581548D01*
X123431961Y-125591007D01*
X123424053Y-125599733D01*
X123415327Y-125607641D01*
X123405868Y-125614656D01*
X123395768Y-125620711D01*
X123385122Y-125625746D01*
X123374034Y-125629713D01*
X123362611Y-125632574D01*
X123350962Y-125634302D01*
X123339200Y-125634880D01*
X121579200Y-125634880D01*
X121567438Y-125634302D01*
X121555789Y-125632574D01*
X121544366Y-125629713D01*
X121533278Y-125625746D01*
X121522632Y-125620711D01*
X121512532Y-125614656D01*
X121503073Y-125607641D01*
X121494347Y-125599733D01*
X121486439Y-125591007D01*
X121479424Y-125581548D01*
X121473369Y-125571448D01*
X121468334Y-125560802D01*
X121464367Y-125549714D01*
X121461506Y-125538291D01*
X121459778Y-125526642D01*
X121459200Y-125514880D01*
X121459200Y-124554880D01*
X121459778Y-124543118D01*
X121461506Y-124531469D01*
X121464367Y-124520046D01*
X121468334Y-124508958D01*
X121473369Y-124498312D01*
X121479424Y-124488212D01*
X121486439Y-124478753D01*
X121494347Y-124470027D01*
X121503073Y-124462119D01*
X121512532Y-124455104D01*
X121522632Y-124449049D01*
X121533278Y-124444014D01*
X121544366Y-124440047D01*
X121555789Y-124437186D01*
X121567438Y-124435458D01*
X121579200Y-124434880D01*
X123339200Y-124434880D01*
X123350962Y-124435458D01*
X123350962Y-124435458D01*
G37*
D29*
X122459200Y-125034880D03*
D21*
G36*
X123350962Y-126235458D02*
X123362611Y-126237186D01*
X123374034Y-126240047D01*
X123385122Y-126244014D01*
X123395768Y-126249049D01*
X123405868Y-126255104D01*
X123415327Y-126262119D01*
X123424053Y-126270027D01*
X123431961Y-126278753D01*
X123438976Y-126288212D01*
X123445031Y-126298312D01*
X123450066Y-126308958D01*
X123454033Y-126320046D01*
X123456894Y-126331469D01*
X123458622Y-126343118D01*
X123459200Y-126354880D01*
X123459200Y-127314880D01*
X123458622Y-127326642D01*
X123456894Y-127338291D01*
X123454033Y-127349714D01*
X123450066Y-127360802D01*
X123445031Y-127371448D01*
X123438976Y-127381548D01*
X123431961Y-127391007D01*
X123424053Y-127399733D01*
X123415327Y-127407641D01*
X123405868Y-127414656D01*
X123395768Y-127420711D01*
X123385122Y-127425746D01*
X123374034Y-127429713D01*
X123362611Y-127432574D01*
X123350962Y-127434302D01*
X123339200Y-127434880D01*
X121579200Y-127434880D01*
X121567438Y-127434302D01*
X121555789Y-127432574D01*
X121544366Y-127429713D01*
X121533278Y-127425746D01*
X121522632Y-127420711D01*
X121512532Y-127414656D01*
X121503073Y-127407641D01*
X121494347Y-127399733D01*
X121486439Y-127391007D01*
X121479424Y-127381548D01*
X121473369Y-127371448D01*
X121468334Y-127360802D01*
X121464367Y-127349714D01*
X121461506Y-127338291D01*
X121459778Y-127326642D01*
X121459200Y-127314880D01*
X121459200Y-126354880D01*
X121459778Y-126343118D01*
X121461506Y-126331469D01*
X121464367Y-126320046D01*
X121468334Y-126308958D01*
X121473369Y-126298312D01*
X121479424Y-126288212D01*
X121486439Y-126278753D01*
X121494347Y-126270027D01*
X121503073Y-126262119D01*
X121512532Y-126255104D01*
X121522632Y-126249049D01*
X121533278Y-126244014D01*
X121544366Y-126240047D01*
X121555789Y-126237186D01*
X121567438Y-126235458D01*
X121579200Y-126234880D01*
X123339200Y-126234880D01*
X123350962Y-126235458D01*
X123350962Y-126235458D01*
G37*
D29*
X122459200Y-126834880D03*
D21*
G36*
X123350962Y-128035458D02*
X123362611Y-128037186D01*
X123374034Y-128040047D01*
X123385122Y-128044014D01*
X123395768Y-128049049D01*
X123405868Y-128055104D01*
X123415327Y-128062119D01*
X123424053Y-128070027D01*
X123431961Y-128078753D01*
X123438976Y-128088212D01*
X123445031Y-128098312D01*
X123450066Y-128108958D01*
X123454033Y-128120046D01*
X123456894Y-128131469D01*
X123458622Y-128143118D01*
X123459200Y-128154880D01*
X123459200Y-129114880D01*
X123458622Y-129126642D01*
X123456894Y-129138291D01*
X123454033Y-129149714D01*
X123450066Y-129160802D01*
X123445031Y-129171448D01*
X123438976Y-129181548D01*
X123431961Y-129191007D01*
X123424053Y-129199733D01*
X123415327Y-129207641D01*
X123405868Y-129214656D01*
X123395768Y-129220711D01*
X123385122Y-129225746D01*
X123374034Y-129229713D01*
X123362611Y-129232574D01*
X123350962Y-129234302D01*
X123339200Y-129234880D01*
X121579200Y-129234880D01*
X121567438Y-129234302D01*
X121555789Y-129232574D01*
X121544366Y-129229713D01*
X121533278Y-129225746D01*
X121522632Y-129220711D01*
X121512532Y-129214656D01*
X121503073Y-129207641D01*
X121494347Y-129199733D01*
X121486439Y-129191007D01*
X121479424Y-129181548D01*
X121473369Y-129171448D01*
X121468334Y-129160802D01*
X121464367Y-129149714D01*
X121461506Y-129138291D01*
X121459778Y-129126642D01*
X121459200Y-129114880D01*
X121459200Y-128154880D01*
X121459778Y-128143118D01*
X121461506Y-128131469D01*
X121464367Y-128120046D01*
X121468334Y-128108958D01*
X121473369Y-128098312D01*
X121479424Y-128088212D01*
X121486439Y-128078753D01*
X121494347Y-128070027D01*
X121503073Y-128062119D01*
X121512532Y-128055104D01*
X121522632Y-128049049D01*
X121533278Y-128044014D01*
X121544366Y-128040047D01*
X121555789Y-128037186D01*
X121567438Y-128035458D01*
X121579200Y-128034880D01*
X123339200Y-128034880D01*
X123350962Y-128035458D01*
X123350962Y-128035458D01*
G37*
D29*
X122459200Y-128634880D03*
D21*
G36*
X105000962Y-129885458D02*
X105012611Y-129887186D01*
X105024034Y-129890047D01*
X105035122Y-129894014D01*
X105045768Y-129899049D01*
X105055868Y-129905104D01*
X105065327Y-129912119D01*
X105074053Y-129920027D01*
X105081961Y-129928753D01*
X105088976Y-129938212D01*
X105095031Y-129948312D01*
X105100066Y-129958958D01*
X105104033Y-129970046D01*
X105106894Y-129981469D01*
X105108622Y-129993118D01*
X105109200Y-130004880D01*
X105109200Y-131764880D01*
X105108622Y-131776642D01*
X105106894Y-131788291D01*
X105104033Y-131799714D01*
X105100066Y-131810802D01*
X105095031Y-131821448D01*
X105088976Y-131831548D01*
X105081961Y-131841007D01*
X105074053Y-131849733D01*
X105065327Y-131857641D01*
X105055868Y-131864656D01*
X105045768Y-131870711D01*
X105035122Y-131875746D01*
X105024034Y-131879713D01*
X105012611Y-131882574D01*
X105000962Y-131884302D01*
X104989200Y-131884880D01*
X104029200Y-131884880D01*
X104017438Y-131884302D01*
X104005789Y-131882574D01*
X103994366Y-131879713D01*
X103983278Y-131875746D01*
X103972632Y-131870711D01*
X103962532Y-131864656D01*
X103953073Y-131857641D01*
X103944347Y-131849733D01*
X103936439Y-131841007D01*
X103929424Y-131831548D01*
X103923369Y-131821448D01*
X103918334Y-131810802D01*
X103914367Y-131799714D01*
X103911506Y-131788291D01*
X103909778Y-131776642D01*
X103909200Y-131764880D01*
X103909200Y-130004880D01*
X103909778Y-129993118D01*
X103911506Y-129981469D01*
X103914367Y-129970046D01*
X103918334Y-129958958D01*
X103923369Y-129948312D01*
X103929424Y-129938212D01*
X103936439Y-129928753D01*
X103944347Y-129920027D01*
X103953073Y-129912119D01*
X103962532Y-129905104D01*
X103972632Y-129899049D01*
X103983278Y-129894014D01*
X103994366Y-129890047D01*
X104005789Y-129887186D01*
X104017438Y-129885458D01*
X104029200Y-129884880D01*
X104989200Y-129884880D01*
X105000962Y-129885458D01*
X105000962Y-129885458D01*
G37*
D29*
X104509200Y-130884880D03*
D21*
G36*
X106800962Y-129885458D02*
X106812611Y-129887186D01*
X106824034Y-129890047D01*
X106835122Y-129894014D01*
X106845768Y-129899049D01*
X106855868Y-129905104D01*
X106865327Y-129912119D01*
X106874053Y-129920027D01*
X106881961Y-129928753D01*
X106888976Y-129938212D01*
X106895031Y-129948312D01*
X106900066Y-129958958D01*
X106904033Y-129970046D01*
X106906894Y-129981469D01*
X106908622Y-129993118D01*
X106909200Y-130004880D01*
X106909200Y-131764880D01*
X106908622Y-131776642D01*
X106906894Y-131788291D01*
X106904033Y-131799714D01*
X106900066Y-131810802D01*
X106895031Y-131821448D01*
X106888976Y-131831548D01*
X106881961Y-131841007D01*
X106874053Y-131849733D01*
X106865327Y-131857641D01*
X106855868Y-131864656D01*
X106845768Y-131870711D01*
X106835122Y-131875746D01*
X106824034Y-131879713D01*
X106812611Y-131882574D01*
X106800962Y-131884302D01*
X106789200Y-131884880D01*
X105829200Y-131884880D01*
X105817438Y-131884302D01*
X105805789Y-131882574D01*
X105794366Y-131879713D01*
X105783278Y-131875746D01*
X105772632Y-131870711D01*
X105762532Y-131864656D01*
X105753073Y-131857641D01*
X105744347Y-131849733D01*
X105736439Y-131841007D01*
X105729424Y-131831548D01*
X105723369Y-131821448D01*
X105718334Y-131810802D01*
X105714367Y-131799714D01*
X105711506Y-131788291D01*
X105709778Y-131776642D01*
X105709200Y-131764880D01*
X105709200Y-130004880D01*
X105709778Y-129993118D01*
X105711506Y-129981469D01*
X105714367Y-129970046D01*
X105718334Y-129958958D01*
X105723369Y-129948312D01*
X105729424Y-129938212D01*
X105736439Y-129928753D01*
X105744347Y-129920027D01*
X105753073Y-129912119D01*
X105762532Y-129905104D01*
X105772632Y-129899049D01*
X105783278Y-129894014D01*
X105794366Y-129890047D01*
X105805789Y-129887186D01*
X105817438Y-129885458D01*
X105829200Y-129884880D01*
X106789200Y-129884880D01*
X106800962Y-129885458D01*
X106800962Y-129885458D01*
G37*
D29*
X106309200Y-130884880D03*
D21*
G36*
X108600962Y-129885458D02*
X108612611Y-129887186D01*
X108624034Y-129890047D01*
X108635122Y-129894014D01*
X108645768Y-129899049D01*
X108655868Y-129905104D01*
X108665327Y-129912119D01*
X108674053Y-129920027D01*
X108681961Y-129928753D01*
X108688976Y-129938212D01*
X108695031Y-129948312D01*
X108700066Y-129958958D01*
X108704033Y-129970046D01*
X108706894Y-129981469D01*
X108708622Y-129993118D01*
X108709200Y-130004880D01*
X108709200Y-131764880D01*
X108708622Y-131776642D01*
X108706894Y-131788291D01*
X108704033Y-131799714D01*
X108700066Y-131810802D01*
X108695031Y-131821448D01*
X108688976Y-131831548D01*
X108681961Y-131841007D01*
X108674053Y-131849733D01*
X108665327Y-131857641D01*
X108655868Y-131864656D01*
X108645768Y-131870711D01*
X108635122Y-131875746D01*
X108624034Y-131879713D01*
X108612611Y-131882574D01*
X108600962Y-131884302D01*
X108589200Y-131884880D01*
X107629200Y-131884880D01*
X107617438Y-131884302D01*
X107605789Y-131882574D01*
X107594366Y-131879713D01*
X107583278Y-131875746D01*
X107572632Y-131870711D01*
X107562532Y-131864656D01*
X107553073Y-131857641D01*
X107544347Y-131849733D01*
X107536439Y-131841007D01*
X107529424Y-131831548D01*
X107523369Y-131821448D01*
X107518334Y-131810802D01*
X107514367Y-131799714D01*
X107511506Y-131788291D01*
X107509778Y-131776642D01*
X107509200Y-131764880D01*
X107509200Y-130004880D01*
X107509778Y-129993118D01*
X107511506Y-129981469D01*
X107514367Y-129970046D01*
X107518334Y-129958958D01*
X107523369Y-129948312D01*
X107529424Y-129938212D01*
X107536439Y-129928753D01*
X107544347Y-129920027D01*
X107553073Y-129912119D01*
X107562532Y-129905104D01*
X107572632Y-129899049D01*
X107583278Y-129894014D01*
X107594366Y-129890047D01*
X107605789Y-129887186D01*
X107617438Y-129885458D01*
X107629200Y-129884880D01*
X108589200Y-129884880D01*
X108600962Y-129885458D01*
X108600962Y-129885458D01*
G37*
D29*
X108109200Y-130884880D03*
D21*
G36*
X110400962Y-129885458D02*
X110412611Y-129887186D01*
X110424034Y-129890047D01*
X110435122Y-129894014D01*
X110445768Y-129899049D01*
X110455868Y-129905104D01*
X110465327Y-129912119D01*
X110474053Y-129920027D01*
X110481961Y-129928753D01*
X110488976Y-129938212D01*
X110495031Y-129948312D01*
X110500066Y-129958958D01*
X110504033Y-129970046D01*
X110506894Y-129981469D01*
X110508622Y-129993118D01*
X110509200Y-130004880D01*
X110509200Y-131764880D01*
X110508622Y-131776642D01*
X110506894Y-131788291D01*
X110504033Y-131799714D01*
X110500066Y-131810802D01*
X110495031Y-131821448D01*
X110488976Y-131831548D01*
X110481961Y-131841007D01*
X110474053Y-131849733D01*
X110465327Y-131857641D01*
X110455868Y-131864656D01*
X110445768Y-131870711D01*
X110435122Y-131875746D01*
X110424034Y-131879713D01*
X110412611Y-131882574D01*
X110400962Y-131884302D01*
X110389200Y-131884880D01*
X109429200Y-131884880D01*
X109417438Y-131884302D01*
X109405789Y-131882574D01*
X109394366Y-131879713D01*
X109383278Y-131875746D01*
X109372632Y-131870711D01*
X109362532Y-131864656D01*
X109353073Y-131857641D01*
X109344347Y-131849733D01*
X109336439Y-131841007D01*
X109329424Y-131831548D01*
X109323369Y-131821448D01*
X109318334Y-131810802D01*
X109314367Y-131799714D01*
X109311506Y-131788291D01*
X109309778Y-131776642D01*
X109309200Y-131764880D01*
X109309200Y-130004880D01*
X109309778Y-129993118D01*
X109311506Y-129981469D01*
X109314367Y-129970046D01*
X109318334Y-129958958D01*
X109323369Y-129948312D01*
X109329424Y-129938212D01*
X109336439Y-129928753D01*
X109344347Y-129920027D01*
X109353073Y-129912119D01*
X109362532Y-129905104D01*
X109372632Y-129899049D01*
X109383278Y-129894014D01*
X109394366Y-129890047D01*
X109405789Y-129887186D01*
X109417438Y-129885458D01*
X109429200Y-129884880D01*
X110389200Y-129884880D01*
X110400962Y-129885458D01*
X110400962Y-129885458D01*
G37*
D29*
X109909200Y-130884880D03*
D21*
G36*
X112200962Y-129885458D02*
X112212611Y-129887186D01*
X112224034Y-129890047D01*
X112235122Y-129894014D01*
X112245768Y-129899049D01*
X112255868Y-129905104D01*
X112265327Y-129912119D01*
X112274053Y-129920027D01*
X112281961Y-129928753D01*
X112288976Y-129938212D01*
X112295031Y-129948312D01*
X112300066Y-129958958D01*
X112304033Y-129970046D01*
X112306894Y-129981469D01*
X112308622Y-129993118D01*
X112309200Y-130004880D01*
X112309200Y-131764880D01*
X112308622Y-131776642D01*
X112306894Y-131788291D01*
X112304033Y-131799714D01*
X112300066Y-131810802D01*
X112295031Y-131821448D01*
X112288976Y-131831548D01*
X112281961Y-131841007D01*
X112274053Y-131849733D01*
X112265327Y-131857641D01*
X112255868Y-131864656D01*
X112245768Y-131870711D01*
X112235122Y-131875746D01*
X112224034Y-131879713D01*
X112212611Y-131882574D01*
X112200962Y-131884302D01*
X112189200Y-131884880D01*
X111229200Y-131884880D01*
X111217438Y-131884302D01*
X111205789Y-131882574D01*
X111194366Y-131879713D01*
X111183278Y-131875746D01*
X111172632Y-131870711D01*
X111162532Y-131864656D01*
X111153073Y-131857641D01*
X111144347Y-131849733D01*
X111136439Y-131841007D01*
X111129424Y-131831548D01*
X111123369Y-131821448D01*
X111118334Y-131810802D01*
X111114367Y-131799714D01*
X111111506Y-131788291D01*
X111109778Y-131776642D01*
X111109200Y-131764880D01*
X111109200Y-130004880D01*
X111109778Y-129993118D01*
X111111506Y-129981469D01*
X111114367Y-129970046D01*
X111118334Y-129958958D01*
X111123369Y-129948312D01*
X111129424Y-129938212D01*
X111136439Y-129928753D01*
X111144347Y-129920027D01*
X111153073Y-129912119D01*
X111162532Y-129905104D01*
X111172632Y-129899049D01*
X111183278Y-129894014D01*
X111194366Y-129890047D01*
X111205789Y-129887186D01*
X111217438Y-129885458D01*
X111229200Y-129884880D01*
X112189200Y-129884880D01*
X112200962Y-129885458D01*
X112200962Y-129885458D01*
G37*
D29*
X111709200Y-130884880D03*
D21*
G36*
X114000962Y-129885458D02*
X114012611Y-129887186D01*
X114024034Y-129890047D01*
X114035122Y-129894014D01*
X114045768Y-129899049D01*
X114055868Y-129905104D01*
X114065327Y-129912119D01*
X114074053Y-129920027D01*
X114081961Y-129928753D01*
X114088976Y-129938212D01*
X114095031Y-129948312D01*
X114100066Y-129958958D01*
X114104033Y-129970046D01*
X114106894Y-129981469D01*
X114108622Y-129993118D01*
X114109200Y-130004880D01*
X114109200Y-131764880D01*
X114108622Y-131776642D01*
X114106894Y-131788291D01*
X114104033Y-131799714D01*
X114100066Y-131810802D01*
X114095031Y-131821448D01*
X114088976Y-131831548D01*
X114081961Y-131841007D01*
X114074053Y-131849733D01*
X114065327Y-131857641D01*
X114055868Y-131864656D01*
X114045768Y-131870711D01*
X114035122Y-131875746D01*
X114024034Y-131879713D01*
X114012611Y-131882574D01*
X114000962Y-131884302D01*
X113989200Y-131884880D01*
X113029200Y-131884880D01*
X113017438Y-131884302D01*
X113005789Y-131882574D01*
X112994366Y-131879713D01*
X112983278Y-131875746D01*
X112972632Y-131870711D01*
X112962532Y-131864656D01*
X112953073Y-131857641D01*
X112944347Y-131849733D01*
X112936439Y-131841007D01*
X112929424Y-131831548D01*
X112923369Y-131821448D01*
X112918334Y-131810802D01*
X112914367Y-131799714D01*
X112911506Y-131788291D01*
X112909778Y-131776642D01*
X112909200Y-131764880D01*
X112909200Y-130004880D01*
X112909778Y-129993118D01*
X112911506Y-129981469D01*
X112914367Y-129970046D01*
X112918334Y-129958958D01*
X112923369Y-129948312D01*
X112929424Y-129938212D01*
X112936439Y-129928753D01*
X112944347Y-129920027D01*
X112953073Y-129912119D01*
X112962532Y-129905104D01*
X112972632Y-129899049D01*
X112983278Y-129894014D01*
X112994366Y-129890047D01*
X113005789Y-129887186D01*
X113017438Y-129885458D01*
X113029200Y-129884880D01*
X113989200Y-129884880D01*
X114000962Y-129885458D01*
X114000962Y-129885458D01*
G37*
D29*
X113509200Y-130884880D03*
D21*
G36*
X115800962Y-129885458D02*
X115812611Y-129887186D01*
X115824034Y-129890047D01*
X115835122Y-129894014D01*
X115845768Y-129899049D01*
X115855868Y-129905104D01*
X115865327Y-129912119D01*
X115874053Y-129920027D01*
X115881961Y-129928753D01*
X115888976Y-129938212D01*
X115895031Y-129948312D01*
X115900066Y-129958958D01*
X115904033Y-129970046D01*
X115906894Y-129981469D01*
X115908622Y-129993118D01*
X115909200Y-130004880D01*
X115909200Y-131764880D01*
X115908622Y-131776642D01*
X115906894Y-131788291D01*
X115904033Y-131799714D01*
X115900066Y-131810802D01*
X115895031Y-131821448D01*
X115888976Y-131831548D01*
X115881961Y-131841007D01*
X115874053Y-131849733D01*
X115865327Y-131857641D01*
X115855868Y-131864656D01*
X115845768Y-131870711D01*
X115835122Y-131875746D01*
X115824034Y-131879713D01*
X115812611Y-131882574D01*
X115800962Y-131884302D01*
X115789200Y-131884880D01*
X114829200Y-131884880D01*
X114817438Y-131884302D01*
X114805789Y-131882574D01*
X114794366Y-131879713D01*
X114783278Y-131875746D01*
X114772632Y-131870711D01*
X114762532Y-131864656D01*
X114753073Y-131857641D01*
X114744347Y-131849733D01*
X114736439Y-131841007D01*
X114729424Y-131831548D01*
X114723369Y-131821448D01*
X114718334Y-131810802D01*
X114714367Y-131799714D01*
X114711506Y-131788291D01*
X114709778Y-131776642D01*
X114709200Y-131764880D01*
X114709200Y-130004880D01*
X114709778Y-129993118D01*
X114711506Y-129981469D01*
X114714367Y-129970046D01*
X114718334Y-129958958D01*
X114723369Y-129948312D01*
X114729424Y-129938212D01*
X114736439Y-129928753D01*
X114744347Y-129920027D01*
X114753073Y-129912119D01*
X114762532Y-129905104D01*
X114772632Y-129899049D01*
X114783278Y-129894014D01*
X114794366Y-129890047D01*
X114805789Y-129887186D01*
X114817438Y-129885458D01*
X114829200Y-129884880D01*
X115789200Y-129884880D01*
X115800962Y-129885458D01*
X115800962Y-129885458D01*
G37*
D29*
X115309200Y-130884880D03*
D21*
G36*
X117600962Y-129885458D02*
X117612611Y-129887186D01*
X117624034Y-129890047D01*
X117635122Y-129894014D01*
X117645768Y-129899049D01*
X117655868Y-129905104D01*
X117665327Y-129912119D01*
X117674053Y-129920027D01*
X117681961Y-129928753D01*
X117688976Y-129938212D01*
X117695031Y-129948312D01*
X117700066Y-129958958D01*
X117704033Y-129970046D01*
X117706894Y-129981469D01*
X117708622Y-129993118D01*
X117709200Y-130004880D01*
X117709200Y-131764880D01*
X117708622Y-131776642D01*
X117706894Y-131788291D01*
X117704033Y-131799714D01*
X117700066Y-131810802D01*
X117695031Y-131821448D01*
X117688976Y-131831548D01*
X117681961Y-131841007D01*
X117674053Y-131849733D01*
X117665327Y-131857641D01*
X117655868Y-131864656D01*
X117645768Y-131870711D01*
X117635122Y-131875746D01*
X117624034Y-131879713D01*
X117612611Y-131882574D01*
X117600962Y-131884302D01*
X117589200Y-131884880D01*
X116629200Y-131884880D01*
X116617438Y-131884302D01*
X116605789Y-131882574D01*
X116594366Y-131879713D01*
X116583278Y-131875746D01*
X116572632Y-131870711D01*
X116562532Y-131864656D01*
X116553073Y-131857641D01*
X116544347Y-131849733D01*
X116536439Y-131841007D01*
X116529424Y-131831548D01*
X116523369Y-131821448D01*
X116518334Y-131810802D01*
X116514367Y-131799714D01*
X116511506Y-131788291D01*
X116509778Y-131776642D01*
X116509200Y-131764880D01*
X116509200Y-130004880D01*
X116509778Y-129993118D01*
X116511506Y-129981469D01*
X116514367Y-129970046D01*
X116518334Y-129958958D01*
X116523369Y-129948312D01*
X116529424Y-129938212D01*
X116536439Y-129928753D01*
X116544347Y-129920027D01*
X116553073Y-129912119D01*
X116562532Y-129905104D01*
X116572632Y-129899049D01*
X116583278Y-129894014D01*
X116594366Y-129890047D01*
X116605789Y-129887186D01*
X116617438Y-129885458D01*
X116629200Y-129884880D01*
X117589200Y-129884880D01*
X117600962Y-129885458D01*
X117600962Y-129885458D01*
G37*
D29*
X117109200Y-130884880D03*
D21*
G36*
X119400962Y-129885458D02*
X119412611Y-129887186D01*
X119424034Y-129890047D01*
X119435122Y-129894014D01*
X119445768Y-129899049D01*
X119455868Y-129905104D01*
X119465327Y-129912119D01*
X119474053Y-129920027D01*
X119481961Y-129928753D01*
X119488976Y-129938212D01*
X119495031Y-129948312D01*
X119500066Y-129958958D01*
X119504033Y-129970046D01*
X119506894Y-129981469D01*
X119508622Y-129993118D01*
X119509200Y-130004880D01*
X119509200Y-131764880D01*
X119508622Y-131776642D01*
X119506894Y-131788291D01*
X119504033Y-131799714D01*
X119500066Y-131810802D01*
X119495031Y-131821448D01*
X119488976Y-131831548D01*
X119481961Y-131841007D01*
X119474053Y-131849733D01*
X119465327Y-131857641D01*
X119455868Y-131864656D01*
X119445768Y-131870711D01*
X119435122Y-131875746D01*
X119424034Y-131879713D01*
X119412611Y-131882574D01*
X119400962Y-131884302D01*
X119389200Y-131884880D01*
X118429200Y-131884880D01*
X118417438Y-131884302D01*
X118405789Y-131882574D01*
X118394366Y-131879713D01*
X118383278Y-131875746D01*
X118372632Y-131870711D01*
X118362532Y-131864656D01*
X118353073Y-131857641D01*
X118344347Y-131849733D01*
X118336439Y-131841007D01*
X118329424Y-131831548D01*
X118323369Y-131821448D01*
X118318334Y-131810802D01*
X118314367Y-131799714D01*
X118311506Y-131788291D01*
X118309778Y-131776642D01*
X118309200Y-131764880D01*
X118309200Y-130004880D01*
X118309778Y-129993118D01*
X118311506Y-129981469D01*
X118314367Y-129970046D01*
X118318334Y-129958958D01*
X118323369Y-129948312D01*
X118329424Y-129938212D01*
X118336439Y-129928753D01*
X118344347Y-129920027D01*
X118353073Y-129912119D01*
X118362532Y-129905104D01*
X118372632Y-129899049D01*
X118383278Y-129894014D01*
X118394366Y-129890047D01*
X118405789Y-129887186D01*
X118417438Y-129885458D01*
X118429200Y-129884880D01*
X119389200Y-129884880D01*
X119400962Y-129885458D01*
X119400962Y-129885458D01*
G37*
D29*
X118909200Y-130884880D03*
D21*
G36*
X121200962Y-129885458D02*
X121212611Y-129887186D01*
X121224034Y-129890047D01*
X121235122Y-129894014D01*
X121245768Y-129899049D01*
X121255868Y-129905104D01*
X121265327Y-129912119D01*
X121274053Y-129920027D01*
X121281961Y-129928753D01*
X121288976Y-129938212D01*
X121295031Y-129948312D01*
X121300066Y-129958958D01*
X121304033Y-129970046D01*
X121306894Y-129981469D01*
X121308622Y-129993118D01*
X121309200Y-130004880D01*
X121309200Y-131764880D01*
X121308622Y-131776642D01*
X121306894Y-131788291D01*
X121304033Y-131799714D01*
X121300066Y-131810802D01*
X121295031Y-131821448D01*
X121288976Y-131831548D01*
X121281961Y-131841007D01*
X121274053Y-131849733D01*
X121265327Y-131857641D01*
X121255868Y-131864656D01*
X121245768Y-131870711D01*
X121235122Y-131875746D01*
X121224034Y-131879713D01*
X121212611Y-131882574D01*
X121200962Y-131884302D01*
X121189200Y-131884880D01*
X120229200Y-131884880D01*
X120217438Y-131884302D01*
X120205789Y-131882574D01*
X120194366Y-131879713D01*
X120183278Y-131875746D01*
X120172632Y-131870711D01*
X120162532Y-131864656D01*
X120153073Y-131857641D01*
X120144347Y-131849733D01*
X120136439Y-131841007D01*
X120129424Y-131831548D01*
X120123369Y-131821448D01*
X120118334Y-131810802D01*
X120114367Y-131799714D01*
X120111506Y-131788291D01*
X120109778Y-131776642D01*
X120109200Y-131764880D01*
X120109200Y-130004880D01*
X120109778Y-129993118D01*
X120111506Y-129981469D01*
X120114367Y-129970046D01*
X120118334Y-129958958D01*
X120123369Y-129948312D01*
X120129424Y-129938212D01*
X120136439Y-129928753D01*
X120144347Y-129920027D01*
X120153073Y-129912119D01*
X120162532Y-129905104D01*
X120172632Y-129899049D01*
X120183278Y-129894014D01*
X120194366Y-129890047D01*
X120205789Y-129887186D01*
X120217438Y-129885458D01*
X120229200Y-129884880D01*
X121189200Y-129884880D01*
X121200962Y-129885458D01*
X121200962Y-129885458D01*
G37*
D29*
X120709200Y-130884880D03*
D21*
G36*
X103200962Y-129885458D02*
X103212611Y-129887186D01*
X103224034Y-129890047D01*
X103235122Y-129894014D01*
X103245768Y-129899049D01*
X103255868Y-129905104D01*
X103265327Y-129912119D01*
X103274053Y-129920027D01*
X103281961Y-129928753D01*
X103288976Y-129938212D01*
X103295031Y-129948312D01*
X103300066Y-129958958D01*
X103304033Y-129970046D01*
X103306894Y-129981469D01*
X103308622Y-129993118D01*
X103309200Y-130004880D01*
X103309200Y-131764880D01*
X103308622Y-131776642D01*
X103306894Y-131788291D01*
X103304033Y-131799714D01*
X103300066Y-131810802D01*
X103295031Y-131821448D01*
X103288976Y-131831548D01*
X103281961Y-131841007D01*
X103274053Y-131849733D01*
X103265327Y-131857641D01*
X103255868Y-131864656D01*
X103245768Y-131870711D01*
X103235122Y-131875746D01*
X103224034Y-131879713D01*
X103212611Y-131882574D01*
X103200962Y-131884302D01*
X103189200Y-131884880D01*
X102229200Y-131884880D01*
X102217438Y-131884302D01*
X102205789Y-131882574D01*
X102194366Y-131879713D01*
X102183278Y-131875746D01*
X102172632Y-131870711D01*
X102162532Y-131864656D01*
X102153073Y-131857641D01*
X102144347Y-131849733D01*
X102136439Y-131841007D01*
X102129424Y-131831548D01*
X102123369Y-131821448D01*
X102118334Y-131810802D01*
X102114367Y-131799714D01*
X102111506Y-131788291D01*
X102109778Y-131776642D01*
X102109200Y-131764880D01*
X102109200Y-130004880D01*
X102109778Y-129993118D01*
X102111506Y-129981469D01*
X102114367Y-129970046D01*
X102118334Y-129958958D01*
X102123369Y-129948312D01*
X102129424Y-129938212D01*
X102136439Y-129928753D01*
X102144347Y-129920027D01*
X102153073Y-129912119D01*
X102162532Y-129905104D01*
X102172632Y-129899049D01*
X102183278Y-129894014D01*
X102194366Y-129890047D01*
X102205789Y-129887186D01*
X102217438Y-129885458D01*
X102229200Y-129884880D01*
X103189200Y-129884880D01*
X103200962Y-129885458D01*
X103200962Y-129885458D01*
G37*
D29*
X102709200Y-130884880D03*
D21*
G36*
X105000962Y-116385458D02*
X105012611Y-116387186D01*
X105024034Y-116390047D01*
X105035122Y-116394014D01*
X105045768Y-116399049D01*
X105055868Y-116405104D01*
X105065327Y-116412119D01*
X105074053Y-116420027D01*
X105081961Y-116428753D01*
X105088976Y-116438212D01*
X105095031Y-116448312D01*
X105100066Y-116458958D01*
X105104033Y-116470046D01*
X105106894Y-116481469D01*
X105108622Y-116493118D01*
X105109200Y-116504880D01*
X105109200Y-118264880D01*
X105108622Y-118276642D01*
X105106894Y-118288291D01*
X105104033Y-118299714D01*
X105100066Y-118310802D01*
X105095031Y-118321448D01*
X105088976Y-118331548D01*
X105081961Y-118341007D01*
X105074053Y-118349733D01*
X105065327Y-118357641D01*
X105055868Y-118364656D01*
X105045768Y-118370711D01*
X105035122Y-118375746D01*
X105024034Y-118379713D01*
X105012611Y-118382574D01*
X105000962Y-118384302D01*
X104989200Y-118384880D01*
X104029200Y-118384880D01*
X104017438Y-118384302D01*
X104005789Y-118382574D01*
X103994366Y-118379713D01*
X103983278Y-118375746D01*
X103972632Y-118370711D01*
X103962532Y-118364656D01*
X103953073Y-118357641D01*
X103944347Y-118349733D01*
X103936439Y-118341007D01*
X103929424Y-118331548D01*
X103923369Y-118321448D01*
X103918334Y-118310802D01*
X103914367Y-118299714D01*
X103911506Y-118288291D01*
X103909778Y-118276642D01*
X103909200Y-118264880D01*
X103909200Y-116504880D01*
X103909778Y-116493118D01*
X103911506Y-116481469D01*
X103914367Y-116470046D01*
X103918334Y-116458958D01*
X103923369Y-116448312D01*
X103929424Y-116438212D01*
X103936439Y-116428753D01*
X103944347Y-116420027D01*
X103953073Y-116412119D01*
X103962532Y-116405104D01*
X103972632Y-116399049D01*
X103983278Y-116394014D01*
X103994366Y-116390047D01*
X104005789Y-116387186D01*
X104017438Y-116385458D01*
X104029200Y-116384880D01*
X104989200Y-116384880D01*
X105000962Y-116385458D01*
X105000962Y-116385458D01*
G37*
D29*
X104509200Y-117384880D03*
D21*
G36*
X106800962Y-116385458D02*
X106812611Y-116387186D01*
X106824034Y-116390047D01*
X106835122Y-116394014D01*
X106845768Y-116399049D01*
X106855868Y-116405104D01*
X106865327Y-116412119D01*
X106874053Y-116420027D01*
X106881961Y-116428753D01*
X106888976Y-116438212D01*
X106895031Y-116448312D01*
X106900066Y-116458958D01*
X106904033Y-116470046D01*
X106906894Y-116481469D01*
X106908622Y-116493118D01*
X106909200Y-116504880D01*
X106909200Y-118264880D01*
X106908622Y-118276642D01*
X106906894Y-118288291D01*
X106904033Y-118299714D01*
X106900066Y-118310802D01*
X106895031Y-118321448D01*
X106888976Y-118331548D01*
X106881961Y-118341007D01*
X106874053Y-118349733D01*
X106865327Y-118357641D01*
X106855868Y-118364656D01*
X106845768Y-118370711D01*
X106835122Y-118375746D01*
X106824034Y-118379713D01*
X106812611Y-118382574D01*
X106800962Y-118384302D01*
X106789200Y-118384880D01*
X105829200Y-118384880D01*
X105817438Y-118384302D01*
X105805789Y-118382574D01*
X105794366Y-118379713D01*
X105783278Y-118375746D01*
X105772632Y-118370711D01*
X105762532Y-118364656D01*
X105753073Y-118357641D01*
X105744347Y-118349733D01*
X105736439Y-118341007D01*
X105729424Y-118331548D01*
X105723369Y-118321448D01*
X105718334Y-118310802D01*
X105714367Y-118299714D01*
X105711506Y-118288291D01*
X105709778Y-118276642D01*
X105709200Y-118264880D01*
X105709200Y-116504880D01*
X105709778Y-116493118D01*
X105711506Y-116481469D01*
X105714367Y-116470046D01*
X105718334Y-116458958D01*
X105723369Y-116448312D01*
X105729424Y-116438212D01*
X105736439Y-116428753D01*
X105744347Y-116420027D01*
X105753073Y-116412119D01*
X105762532Y-116405104D01*
X105772632Y-116399049D01*
X105783278Y-116394014D01*
X105794366Y-116390047D01*
X105805789Y-116387186D01*
X105817438Y-116385458D01*
X105829200Y-116384880D01*
X106789200Y-116384880D01*
X106800962Y-116385458D01*
X106800962Y-116385458D01*
G37*
D29*
X106309200Y-117384880D03*
D21*
G36*
X108600962Y-116385458D02*
X108612611Y-116387186D01*
X108624034Y-116390047D01*
X108635122Y-116394014D01*
X108645768Y-116399049D01*
X108655868Y-116405104D01*
X108665327Y-116412119D01*
X108674053Y-116420027D01*
X108681961Y-116428753D01*
X108688976Y-116438212D01*
X108695031Y-116448312D01*
X108700066Y-116458958D01*
X108704033Y-116470046D01*
X108706894Y-116481469D01*
X108708622Y-116493118D01*
X108709200Y-116504880D01*
X108709200Y-118264880D01*
X108708622Y-118276642D01*
X108706894Y-118288291D01*
X108704033Y-118299714D01*
X108700066Y-118310802D01*
X108695031Y-118321448D01*
X108688976Y-118331548D01*
X108681961Y-118341007D01*
X108674053Y-118349733D01*
X108665327Y-118357641D01*
X108655868Y-118364656D01*
X108645768Y-118370711D01*
X108635122Y-118375746D01*
X108624034Y-118379713D01*
X108612611Y-118382574D01*
X108600962Y-118384302D01*
X108589200Y-118384880D01*
X107629200Y-118384880D01*
X107617438Y-118384302D01*
X107605789Y-118382574D01*
X107594366Y-118379713D01*
X107583278Y-118375746D01*
X107572632Y-118370711D01*
X107562532Y-118364656D01*
X107553073Y-118357641D01*
X107544347Y-118349733D01*
X107536439Y-118341007D01*
X107529424Y-118331548D01*
X107523369Y-118321448D01*
X107518334Y-118310802D01*
X107514367Y-118299714D01*
X107511506Y-118288291D01*
X107509778Y-118276642D01*
X107509200Y-118264880D01*
X107509200Y-116504880D01*
X107509778Y-116493118D01*
X107511506Y-116481469D01*
X107514367Y-116470046D01*
X107518334Y-116458958D01*
X107523369Y-116448312D01*
X107529424Y-116438212D01*
X107536439Y-116428753D01*
X107544347Y-116420027D01*
X107553073Y-116412119D01*
X107562532Y-116405104D01*
X107572632Y-116399049D01*
X107583278Y-116394014D01*
X107594366Y-116390047D01*
X107605789Y-116387186D01*
X107617438Y-116385458D01*
X107629200Y-116384880D01*
X108589200Y-116384880D01*
X108600962Y-116385458D01*
X108600962Y-116385458D01*
G37*
D29*
X108109200Y-117384880D03*
D21*
G36*
X110400962Y-116385458D02*
X110412611Y-116387186D01*
X110424034Y-116390047D01*
X110435122Y-116394014D01*
X110445768Y-116399049D01*
X110455868Y-116405104D01*
X110465327Y-116412119D01*
X110474053Y-116420027D01*
X110481961Y-116428753D01*
X110488976Y-116438212D01*
X110495031Y-116448312D01*
X110500066Y-116458958D01*
X110504033Y-116470046D01*
X110506894Y-116481469D01*
X110508622Y-116493118D01*
X110509200Y-116504880D01*
X110509200Y-118264880D01*
X110508622Y-118276642D01*
X110506894Y-118288291D01*
X110504033Y-118299714D01*
X110500066Y-118310802D01*
X110495031Y-118321448D01*
X110488976Y-118331548D01*
X110481961Y-118341007D01*
X110474053Y-118349733D01*
X110465327Y-118357641D01*
X110455868Y-118364656D01*
X110445768Y-118370711D01*
X110435122Y-118375746D01*
X110424034Y-118379713D01*
X110412611Y-118382574D01*
X110400962Y-118384302D01*
X110389200Y-118384880D01*
X109429200Y-118384880D01*
X109417438Y-118384302D01*
X109405789Y-118382574D01*
X109394366Y-118379713D01*
X109383278Y-118375746D01*
X109372632Y-118370711D01*
X109362532Y-118364656D01*
X109353073Y-118357641D01*
X109344347Y-118349733D01*
X109336439Y-118341007D01*
X109329424Y-118331548D01*
X109323369Y-118321448D01*
X109318334Y-118310802D01*
X109314367Y-118299714D01*
X109311506Y-118288291D01*
X109309778Y-118276642D01*
X109309200Y-118264880D01*
X109309200Y-116504880D01*
X109309778Y-116493118D01*
X109311506Y-116481469D01*
X109314367Y-116470046D01*
X109318334Y-116458958D01*
X109323369Y-116448312D01*
X109329424Y-116438212D01*
X109336439Y-116428753D01*
X109344347Y-116420027D01*
X109353073Y-116412119D01*
X109362532Y-116405104D01*
X109372632Y-116399049D01*
X109383278Y-116394014D01*
X109394366Y-116390047D01*
X109405789Y-116387186D01*
X109417438Y-116385458D01*
X109429200Y-116384880D01*
X110389200Y-116384880D01*
X110400962Y-116385458D01*
X110400962Y-116385458D01*
G37*
D29*
X109909200Y-117384880D03*
D21*
G36*
X112200962Y-116385458D02*
X112212611Y-116387186D01*
X112224034Y-116390047D01*
X112235122Y-116394014D01*
X112245768Y-116399049D01*
X112255868Y-116405104D01*
X112265327Y-116412119D01*
X112274053Y-116420027D01*
X112281961Y-116428753D01*
X112288976Y-116438212D01*
X112295031Y-116448312D01*
X112300066Y-116458958D01*
X112304033Y-116470046D01*
X112306894Y-116481469D01*
X112308622Y-116493118D01*
X112309200Y-116504880D01*
X112309200Y-118264880D01*
X112308622Y-118276642D01*
X112306894Y-118288291D01*
X112304033Y-118299714D01*
X112300066Y-118310802D01*
X112295031Y-118321448D01*
X112288976Y-118331548D01*
X112281961Y-118341007D01*
X112274053Y-118349733D01*
X112265327Y-118357641D01*
X112255868Y-118364656D01*
X112245768Y-118370711D01*
X112235122Y-118375746D01*
X112224034Y-118379713D01*
X112212611Y-118382574D01*
X112200962Y-118384302D01*
X112189200Y-118384880D01*
X111229200Y-118384880D01*
X111217438Y-118384302D01*
X111205789Y-118382574D01*
X111194366Y-118379713D01*
X111183278Y-118375746D01*
X111172632Y-118370711D01*
X111162532Y-118364656D01*
X111153073Y-118357641D01*
X111144347Y-118349733D01*
X111136439Y-118341007D01*
X111129424Y-118331548D01*
X111123369Y-118321448D01*
X111118334Y-118310802D01*
X111114367Y-118299714D01*
X111111506Y-118288291D01*
X111109778Y-118276642D01*
X111109200Y-118264880D01*
X111109200Y-116504880D01*
X111109778Y-116493118D01*
X111111506Y-116481469D01*
X111114367Y-116470046D01*
X111118334Y-116458958D01*
X111123369Y-116448312D01*
X111129424Y-116438212D01*
X111136439Y-116428753D01*
X111144347Y-116420027D01*
X111153073Y-116412119D01*
X111162532Y-116405104D01*
X111172632Y-116399049D01*
X111183278Y-116394014D01*
X111194366Y-116390047D01*
X111205789Y-116387186D01*
X111217438Y-116385458D01*
X111229200Y-116384880D01*
X112189200Y-116384880D01*
X112200962Y-116385458D01*
X112200962Y-116385458D01*
G37*
D29*
X111709200Y-117384880D03*
D21*
G36*
X114000962Y-116385458D02*
X114012611Y-116387186D01*
X114024034Y-116390047D01*
X114035122Y-116394014D01*
X114045768Y-116399049D01*
X114055868Y-116405104D01*
X114065327Y-116412119D01*
X114074053Y-116420027D01*
X114081961Y-116428753D01*
X114088976Y-116438212D01*
X114095031Y-116448312D01*
X114100066Y-116458958D01*
X114104033Y-116470046D01*
X114106894Y-116481469D01*
X114108622Y-116493118D01*
X114109200Y-116504880D01*
X114109200Y-118264880D01*
X114108622Y-118276642D01*
X114106894Y-118288291D01*
X114104033Y-118299714D01*
X114100066Y-118310802D01*
X114095031Y-118321448D01*
X114088976Y-118331548D01*
X114081961Y-118341007D01*
X114074053Y-118349733D01*
X114065327Y-118357641D01*
X114055868Y-118364656D01*
X114045768Y-118370711D01*
X114035122Y-118375746D01*
X114024034Y-118379713D01*
X114012611Y-118382574D01*
X114000962Y-118384302D01*
X113989200Y-118384880D01*
X113029200Y-118384880D01*
X113017438Y-118384302D01*
X113005789Y-118382574D01*
X112994366Y-118379713D01*
X112983278Y-118375746D01*
X112972632Y-118370711D01*
X112962532Y-118364656D01*
X112953073Y-118357641D01*
X112944347Y-118349733D01*
X112936439Y-118341007D01*
X112929424Y-118331548D01*
X112923369Y-118321448D01*
X112918334Y-118310802D01*
X112914367Y-118299714D01*
X112911506Y-118288291D01*
X112909778Y-118276642D01*
X112909200Y-118264880D01*
X112909200Y-116504880D01*
X112909778Y-116493118D01*
X112911506Y-116481469D01*
X112914367Y-116470046D01*
X112918334Y-116458958D01*
X112923369Y-116448312D01*
X112929424Y-116438212D01*
X112936439Y-116428753D01*
X112944347Y-116420027D01*
X112953073Y-116412119D01*
X112962532Y-116405104D01*
X112972632Y-116399049D01*
X112983278Y-116394014D01*
X112994366Y-116390047D01*
X113005789Y-116387186D01*
X113017438Y-116385458D01*
X113029200Y-116384880D01*
X113989200Y-116384880D01*
X114000962Y-116385458D01*
X114000962Y-116385458D01*
G37*
D29*
X113509200Y-117384880D03*
D21*
G36*
X115800962Y-116385458D02*
X115812611Y-116387186D01*
X115824034Y-116390047D01*
X115835122Y-116394014D01*
X115845768Y-116399049D01*
X115855868Y-116405104D01*
X115865327Y-116412119D01*
X115874053Y-116420027D01*
X115881961Y-116428753D01*
X115888976Y-116438212D01*
X115895031Y-116448312D01*
X115900066Y-116458958D01*
X115904033Y-116470046D01*
X115906894Y-116481469D01*
X115908622Y-116493118D01*
X115909200Y-116504880D01*
X115909200Y-118264880D01*
X115908622Y-118276642D01*
X115906894Y-118288291D01*
X115904033Y-118299714D01*
X115900066Y-118310802D01*
X115895031Y-118321448D01*
X115888976Y-118331548D01*
X115881961Y-118341007D01*
X115874053Y-118349733D01*
X115865327Y-118357641D01*
X115855868Y-118364656D01*
X115845768Y-118370711D01*
X115835122Y-118375746D01*
X115824034Y-118379713D01*
X115812611Y-118382574D01*
X115800962Y-118384302D01*
X115789200Y-118384880D01*
X114829200Y-118384880D01*
X114817438Y-118384302D01*
X114805789Y-118382574D01*
X114794366Y-118379713D01*
X114783278Y-118375746D01*
X114772632Y-118370711D01*
X114762532Y-118364656D01*
X114753073Y-118357641D01*
X114744347Y-118349733D01*
X114736439Y-118341007D01*
X114729424Y-118331548D01*
X114723369Y-118321448D01*
X114718334Y-118310802D01*
X114714367Y-118299714D01*
X114711506Y-118288291D01*
X114709778Y-118276642D01*
X114709200Y-118264880D01*
X114709200Y-116504880D01*
X114709778Y-116493118D01*
X114711506Y-116481469D01*
X114714367Y-116470046D01*
X114718334Y-116458958D01*
X114723369Y-116448312D01*
X114729424Y-116438212D01*
X114736439Y-116428753D01*
X114744347Y-116420027D01*
X114753073Y-116412119D01*
X114762532Y-116405104D01*
X114772632Y-116399049D01*
X114783278Y-116394014D01*
X114794366Y-116390047D01*
X114805789Y-116387186D01*
X114817438Y-116385458D01*
X114829200Y-116384880D01*
X115789200Y-116384880D01*
X115800962Y-116385458D01*
X115800962Y-116385458D01*
G37*
D29*
X115309200Y-117384880D03*
D21*
G36*
X117600962Y-116385458D02*
X117612611Y-116387186D01*
X117624034Y-116390047D01*
X117635122Y-116394014D01*
X117645768Y-116399049D01*
X117655868Y-116405104D01*
X117665327Y-116412119D01*
X117674053Y-116420027D01*
X117681961Y-116428753D01*
X117688976Y-116438212D01*
X117695031Y-116448312D01*
X117700066Y-116458958D01*
X117704033Y-116470046D01*
X117706894Y-116481469D01*
X117708622Y-116493118D01*
X117709200Y-116504880D01*
X117709200Y-118264880D01*
X117708622Y-118276642D01*
X117706894Y-118288291D01*
X117704033Y-118299714D01*
X117700066Y-118310802D01*
X117695031Y-118321448D01*
X117688976Y-118331548D01*
X117681961Y-118341007D01*
X117674053Y-118349733D01*
X117665327Y-118357641D01*
X117655868Y-118364656D01*
X117645768Y-118370711D01*
X117635122Y-118375746D01*
X117624034Y-118379713D01*
X117612611Y-118382574D01*
X117600962Y-118384302D01*
X117589200Y-118384880D01*
X116629200Y-118384880D01*
X116617438Y-118384302D01*
X116605789Y-118382574D01*
X116594366Y-118379713D01*
X116583278Y-118375746D01*
X116572632Y-118370711D01*
X116562532Y-118364656D01*
X116553073Y-118357641D01*
X116544347Y-118349733D01*
X116536439Y-118341007D01*
X116529424Y-118331548D01*
X116523369Y-118321448D01*
X116518334Y-118310802D01*
X116514367Y-118299714D01*
X116511506Y-118288291D01*
X116509778Y-118276642D01*
X116509200Y-118264880D01*
X116509200Y-116504880D01*
X116509778Y-116493118D01*
X116511506Y-116481469D01*
X116514367Y-116470046D01*
X116518334Y-116458958D01*
X116523369Y-116448312D01*
X116529424Y-116438212D01*
X116536439Y-116428753D01*
X116544347Y-116420027D01*
X116553073Y-116412119D01*
X116562532Y-116405104D01*
X116572632Y-116399049D01*
X116583278Y-116394014D01*
X116594366Y-116390047D01*
X116605789Y-116387186D01*
X116617438Y-116385458D01*
X116629200Y-116384880D01*
X117589200Y-116384880D01*
X117600962Y-116385458D01*
X117600962Y-116385458D01*
G37*
D29*
X117109200Y-117384880D03*
D21*
G36*
X119400962Y-116385458D02*
X119412611Y-116387186D01*
X119424034Y-116390047D01*
X119435122Y-116394014D01*
X119445768Y-116399049D01*
X119455868Y-116405104D01*
X119465327Y-116412119D01*
X119474053Y-116420027D01*
X119481961Y-116428753D01*
X119488976Y-116438212D01*
X119495031Y-116448312D01*
X119500066Y-116458958D01*
X119504033Y-116470046D01*
X119506894Y-116481469D01*
X119508622Y-116493118D01*
X119509200Y-116504880D01*
X119509200Y-118264880D01*
X119508622Y-118276642D01*
X119506894Y-118288291D01*
X119504033Y-118299714D01*
X119500066Y-118310802D01*
X119495031Y-118321448D01*
X119488976Y-118331548D01*
X119481961Y-118341007D01*
X119474053Y-118349733D01*
X119465327Y-118357641D01*
X119455868Y-118364656D01*
X119445768Y-118370711D01*
X119435122Y-118375746D01*
X119424034Y-118379713D01*
X119412611Y-118382574D01*
X119400962Y-118384302D01*
X119389200Y-118384880D01*
X118429200Y-118384880D01*
X118417438Y-118384302D01*
X118405789Y-118382574D01*
X118394366Y-118379713D01*
X118383278Y-118375746D01*
X118372632Y-118370711D01*
X118362532Y-118364656D01*
X118353073Y-118357641D01*
X118344347Y-118349733D01*
X118336439Y-118341007D01*
X118329424Y-118331548D01*
X118323369Y-118321448D01*
X118318334Y-118310802D01*
X118314367Y-118299714D01*
X118311506Y-118288291D01*
X118309778Y-118276642D01*
X118309200Y-118264880D01*
X118309200Y-116504880D01*
X118309778Y-116493118D01*
X118311506Y-116481469D01*
X118314367Y-116470046D01*
X118318334Y-116458958D01*
X118323369Y-116448312D01*
X118329424Y-116438212D01*
X118336439Y-116428753D01*
X118344347Y-116420027D01*
X118353073Y-116412119D01*
X118362532Y-116405104D01*
X118372632Y-116399049D01*
X118383278Y-116394014D01*
X118394366Y-116390047D01*
X118405789Y-116387186D01*
X118417438Y-116385458D01*
X118429200Y-116384880D01*
X119389200Y-116384880D01*
X119400962Y-116385458D01*
X119400962Y-116385458D01*
G37*
D29*
X118909200Y-117384880D03*
D21*
G36*
X121200962Y-116385458D02*
X121212611Y-116387186D01*
X121224034Y-116390047D01*
X121235122Y-116394014D01*
X121245768Y-116399049D01*
X121255868Y-116405104D01*
X121265327Y-116412119D01*
X121274053Y-116420027D01*
X121281961Y-116428753D01*
X121288976Y-116438212D01*
X121295031Y-116448312D01*
X121300066Y-116458958D01*
X121304033Y-116470046D01*
X121306894Y-116481469D01*
X121308622Y-116493118D01*
X121309200Y-116504880D01*
X121309200Y-118264880D01*
X121308622Y-118276642D01*
X121306894Y-118288291D01*
X121304033Y-118299714D01*
X121300066Y-118310802D01*
X121295031Y-118321448D01*
X121288976Y-118331548D01*
X121281961Y-118341007D01*
X121274053Y-118349733D01*
X121265327Y-118357641D01*
X121255868Y-118364656D01*
X121245768Y-118370711D01*
X121235122Y-118375746D01*
X121224034Y-118379713D01*
X121212611Y-118382574D01*
X121200962Y-118384302D01*
X121189200Y-118384880D01*
X120229200Y-118384880D01*
X120217438Y-118384302D01*
X120205789Y-118382574D01*
X120194366Y-118379713D01*
X120183278Y-118375746D01*
X120172632Y-118370711D01*
X120162532Y-118364656D01*
X120153073Y-118357641D01*
X120144347Y-118349733D01*
X120136439Y-118341007D01*
X120129424Y-118331548D01*
X120123369Y-118321448D01*
X120118334Y-118310802D01*
X120114367Y-118299714D01*
X120111506Y-118288291D01*
X120109778Y-118276642D01*
X120109200Y-118264880D01*
X120109200Y-116504880D01*
X120109778Y-116493118D01*
X120111506Y-116481469D01*
X120114367Y-116470046D01*
X120118334Y-116458958D01*
X120123369Y-116448312D01*
X120129424Y-116438212D01*
X120136439Y-116428753D01*
X120144347Y-116420027D01*
X120153073Y-116412119D01*
X120162532Y-116405104D01*
X120172632Y-116399049D01*
X120183278Y-116394014D01*
X120194366Y-116390047D01*
X120205789Y-116387186D01*
X120217438Y-116385458D01*
X120229200Y-116384880D01*
X121189200Y-116384880D01*
X121200962Y-116385458D01*
X121200962Y-116385458D01*
G37*
D29*
X120709200Y-117384880D03*
D21*
G36*
X103200962Y-116385458D02*
X103212611Y-116387186D01*
X103224034Y-116390047D01*
X103235122Y-116394014D01*
X103245768Y-116399049D01*
X103255868Y-116405104D01*
X103265327Y-116412119D01*
X103274053Y-116420027D01*
X103281961Y-116428753D01*
X103288976Y-116438212D01*
X103295031Y-116448312D01*
X103300066Y-116458958D01*
X103304033Y-116470046D01*
X103306894Y-116481469D01*
X103308622Y-116493118D01*
X103309200Y-116504880D01*
X103309200Y-118264880D01*
X103308622Y-118276642D01*
X103306894Y-118288291D01*
X103304033Y-118299714D01*
X103300066Y-118310802D01*
X103295031Y-118321448D01*
X103288976Y-118331548D01*
X103281961Y-118341007D01*
X103274053Y-118349733D01*
X103265327Y-118357641D01*
X103255868Y-118364656D01*
X103245768Y-118370711D01*
X103235122Y-118375746D01*
X103224034Y-118379713D01*
X103212611Y-118382574D01*
X103200962Y-118384302D01*
X103189200Y-118384880D01*
X102229200Y-118384880D01*
X102217438Y-118384302D01*
X102205789Y-118382574D01*
X102194366Y-118379713D01*
X102183278Y-118375746D01*
X102172632Y-118370711D01*
X102162532Y-118364656D01*
X102153073Y-118357641D01*
X102144347Y-118349733D01*
X102136439Y-118341007D01*
X102129424Y-118331548D01*
X102123369Y-118321448D01*
X102118334Y-118310802D01*
X102114367Y-118299714D01*
X102111506Y-118288291D01*
X102109778Y-118276642D01*
X102109200Y-118264880D01*
X102109200Y-116504880D01*
X102109778Y-116493118D01*
X102111506Y-116481469D01*
X102114367Y-116470046D01*
X102118334Y-116458958D01*
X102123369Y-116448312D01*
X102129424Y-116438212D01*
X102136439Y-116428753D01*
X102144347Y-116420027D01*
X102153073Y-116412119D01*
X102162532Y-116405104D01*
X102172632Y-116399049D01*
X102183278Y-116394014D01*
X102194366Y-116390047D01*
X102205789Y-116387186D01*
X102217438Y-116385458D01*
X102229200Y-116384880D01*
X103189200Y-116384880D01*
X103200962Y-116385458D01*
X103200962Y-116385458D01*
G37*
D29*
X102709200Y-117384880D03*
G04 #@! TD*
M02*
