G04 #@! TF.GenerationSoftware,KiCad,Pcbnew,(5.0.0)*
G04 #@! TF.CreationDate,2019-03-03T03:18:43+05:30*
G04 #@! TF.ProjectId,LoRa_Modbus,4C6F52615F4D6F646275732E6B696361,rev?*
G04 #@! TF.SameCoordinates,Original*
G04 #@! TF.FileFunction,Soldermask,Bot*
G04 #@! TF.FilePolarity,Negative*
%FSLAX46Y46*%
G04 Gerber Fmt 4.6, Leading zero omitted, Abs format (unit mm)*
G04 Created by KiCad (PCBNEW (5.0.0)) date 03/03/19 03:18:43*
%MOMM*%
%LPD*%
G01*
G04 APERTURE LIST*
%ADD10R,1.473200X0.838200*%
%ADD11R,3.000000X3.000000*%
%ADD12C,3.000000*%
%ADD13R,0.600000X0.400000*%
%ADD14R,1.250000X1.000000*%
%ADD15C,0.500000*%
%ADD16C,0.600000*%
%ADD17R,0.500000X0.600000*%
%ADD18R,1.000000X3.000000*%
%ADD19O,1.700000X1.200000*%
%ADD20R,1.700000X1.200000*%
%ADD21R,4.470400X1.676400*%
%ADD22C,0.100000*%
%ADD23C,1.295400*%
%ADD24C,1.422400*%
%ADD25R,0.700000X1.300000*%
%ADD26C,0.900000*%
%ADD27C,8.600000*%
%ADD28C,2.200000*%
%ADD29R,1.950000X0.600000*%
G04 APERTURE END LIST*
D10*
G04 #@! TO.C,JP2*
X69037200Y-111236760D03*
X69037200Y-112049560D03*
G04 #@! TD*
D11*
G04 #@! TO.C,J1*
X72910700Y-98742500D03*
D12*
X72910700Y-103822500D03*
G04 #@! TD*
D13*
G04 #@! TO.C,R18*
X68940680Y-115008240D03*
X68940680Y-115908240D03*
G04 #@! TD*
D12*
G04 #@! TO.C,J4*
X72910700Y-126288800D03*
D11*
X72910700Y-111048800D03*
D12*
X72910700Y-121208800D03*
X72910700Y-116128800D03*
G04 #@! TD*
D14*
G04 #@! TO.C,C22*
X78867000Y-122174000D03*
X78867000Y-124174000D03*
G04 #@! TD*
D15*
G04 #@! TO.C,AE1*
X147507440Y-122850040D03*
X147507440Y-117350040D03*
X147507440Y-114850040D03*
X147507440Y-112350040D03*
X147507440Y-109850040D03*
X147507440Y-107350040D03*
X147507440Y-104850040D03*
D16*
X147474940Y-103634540D03*
X147474940Y-123510040D03*
G04 #@! TD*
D17*
G04 #@! TO.C,C14*
X100012500Y-112247500D03*
X100012500Y-113347500D03*
G04 #@! TD*
G04 #@! TO.C,C15*
X102044500Y-113347500D03*
X102044500Y-112247500D03*
G04 #@! TD*
G04 #@! TO.C,C16*
X99110800Y-122029400D03*
X99110800Y-120929400D03*
G04 #@! TD*
D14*
G04 #@! TO.C,C17*
X101091000Y-122929400D03*
X101091000Y-120929400D03*
G04 #@! TD*
D18*
G04 #@! TO.C,C18*
X94375000Y-127660400D03*
X89775000Y-127660400D03*
G04 #@! TD*
D17*
G04 #@! TO.C,C19*
X83159600Y-114358600D03*
X83159600Y-113258600D03*
G04 #@! TD*
G04 #@! TO.C,C20*
X84696300Y-112166400D03*
X84696300Y-113266400D03*
G04 #@! TD*
G04 #@! TO.C,C21*
X85013800Y-122364500D03*
X85013800Y-123464500D03*
G04 #@! TD*
D19*
G04 #@! TO.C,J2*
X94625160Y-80965720D03*
D20*
X94625160Y-82965720D03*
G04 #@! TD*
D21*
G04 #@! TO.C,J$1*
X135417290Y-123967240D03*
X135417290Y-118887240D03*
D22*
G36*
X135211819Y-120779852D02*
X135218106Y-120780785D01*
X135224272Y-120782329D01*
X135230256Y-120784470D01*
X135236002Y-120787188D01*
X135241454Y-120790456D01*
X135246560Y-120794242D01*
X135251269Y-120798511D01*
X135255538Y-120803220D01*
X135259324Y-120808326D01*
X135262592Y-120813778D01*
X135265310Y-120819524D01*
X135267451Y-120825508D01*
X135268995Y-120831674D01*
X135269928Y-120837961D01*
X135270240Y-120844310D01*
X135270240Y-122010170D01*
X135269928Y-122016519D01*
X135268995Y-122022806D01*
X135267451Y-122028972D01*
X135265310Y-122034956D01*
X135262592Y-122040702D01*
X135259324Y-122046154D01*
X135255538Y-122051260D01*
X135251269Y-122055969D01*
X135246560Y-122060238D01*
X135241454Y-122064024D01*
X135236002Y-122067292D01*
X135230256Y-122070010D01*
X135224272Y-122072151D01*
X135218106Y-122073695D01*
X135211819Y-122074628D01*
X135205470Y-122074940D01*
X133150610Y-122074940D01*
X133144261Y-122074628D01*
X133137974Y-122073695D01*
X133131808Y-122072151D01*
X133125824Y-122070010D01*
X133120078Y-122067292D01*
X133114626Y-122064024D01*
X133109520Y-122060238D01*
X133104811Y-122055969D01*
X133100542Y-122051260D01*
X133096756Y-122046154D01*
X133093488Y-122040702D01*
X133090770Y-122034956D01*
X133088629Y-122028972D01*
X133087085Y-122022806D01*
X133086152Y-122016519D01*
X133085840Y-122010170D01*
X133085840Y-120844310D01*
X133086152Y-120837961D01*
X133087085Y-120831674D01*
X133088629Y-120825508D01*
X133090770Y-120819524D01*
X133093488Y-120813778D01*
X133096756Y-120808326D01*
X133100542Y-120803220D01*
X133104811Y-120798511D01*
X133109520Y-120794242D01*
X133114626Y-120790456D01*
X133120078Y-120787188D01*
X133125824Y-120784470D01*
X133131808Y-120782329D01*
X133137974Y-120780785D01*
X133144261Y-120779852D01*
X133150610Y-120779540D01*
X135205470Y-120779540D01*
X135211819Y-120779852D01*
X135211819Y-120779852D01*
G37*
D23*
X134178040Y-121427240D03*
D24*
X132686790Y-121427240D03*
G04 #@! TD*
D25*
G04 #@! TO.C,L2*
X82763400Y-121793000D03*
X80863400Y-121793000D03*
G04 #@! TD*
G04 #@! TO.C,L3*
X80863400Y-124523500D03*
X82763400Y-124523500D03*
G04 #@! TD*
D26*
G04 #@! TO.C,MH1*
X84462119Y-81399881D03*
X82181700Y-80455300D03*
X79901281Y-81399881D03*
X78956700Y-83680300D03*
X79901281Y-85960719D03*
X82181700Y-86905300D03*
X84462119Y-85960719D03*
X85406700Y-83680300D03*
D27*
X82181700Y-83680300D03*
G04 #@! TD*
D26*
G04 #@! TO.C,MH2*
X84462119Y-139388081D03*
X82181700Y-138443500D03*
X79901281Y-139388081D03*
X78956700Y-141668500D03*
X79901281Y-143948919D03*
X82181700Y-144893500D03*
X84462119Y-143948919D03*
X85406700Y-141668500D03*
D27*
X82181700Y-141668500D03*
G04 #@! TD*
D26*
G04 #@! TO.C,MH3*
X125254519Y-81387181D03*
X122974100Y-80442600D03*
X120693681Y-81387181D03*
X119749100Y-83667600D03*
X120693681Y-85948019D03*
X122974100Y-86892600D03*
X125254519Y-85948019D03*
X126199100Y-83667600D03*
D27*
X122974100Y-83667600D03*
G04 #@! TD*
G04 #@! TO.C,MH4*
X122948700Y-141668500D03*
D26*
X126173700Y-141668500D03*
X125229119Y-143948919D03*
X122948700Y-144893500D03*
X120668281Y-143948919D03*
X119723700Y-141668500D03*
X120668281Y-139388081D03*
X122948700Y-138443500D03*
X125229119Y-139388081D03*
G04 #@! TD*
G04 #@! TO.C,MH5*
X165945319Y-81387181D03*
X163664900Y-80442600D03*
X161384481Y-81387181D03*
X160439900Y-83667600D03*
X161384481Y-85948019D03*
X163664900Y-86892600D03*
X165945319Y-85948019D03*
X166889900Y-83667600D03*
D27*
X163664900Y-83667600D03*
G04 #@! TD*
G04 #@! TO.C,MH6*
X163677600Y-141668500D03*
D26*
X166902600Y-141668500D03*
X165958019Y-143948919D03*
X163677600Y-144893500D03*
X161397181Y-143948919D03*
X160452600Y-141668500D03*
X161397181Y-139388081D03*
X163677600Y-138443500D03*
X165958019Y-139388081D03*
G04 #@! TD*
D28*
G04 #@! TO.C,U2*
X117138200Y-104905800D03*
X117138200Y-89505800D03*
X87738200Y-99705800D03*
X87738200Y-94705800D03*
G04 #@! TD*
D29*
G04 #@! TO.C,U5*
X87375000Y-112052100D03*
X87375000Y-113322100D03*
X87375000Y-114592100D03*
X87375000Y-115862100D03*
X87375000Y-117132100D03*
X87375000Y-118402100D03*
X87375000Y-119672100D03*
X87375000Y-120942100D03*
X87375000Y-122212100D03*
X87375000Y-123482100D03*
X96775000Y-123482100D03*
X96775000Y-122212100D03*
X96775000Y-120942100D03*
X96775000Y-119672100D03*
X96775000Y-118402100D03*
X96775000Y-117132100D03*
X96775000Y-115862100D03*
X96775000Y-114592100D03*
X96775000Y-113322100D03*
X96775000Y-112052100D03*
G04 #@! TD*
M02*
