G04 #@! TF.GenerationSoftware,KiCad,Pcbnew,(5.0.0)*
G04 #@! TF.CreationDate,2019-03-03T03:18:43+05:30*
G04 #@! TF.ProjectId,LoRa_Modbus,4C6F52615F4D6F646275732E6B696361,rev?*
G04 #@! TF.SameCoordinates,Original*
G04 #@! TF.FileFunction,Legend,Top*
G04 #@! TF.FilePolarity,Positive*
%FSLAX46Y46*%
G04 Gerber Fmt 4.6, Leading zero omitted, Abs format (unit mm)*
G04 Created by KiCad (PCBNEW (5.0.0)) date 03/03/19 03:18:43*
%MOMM*%
%LPD*%
G01*
G04 APERTURE LIST*
%ADD10C,0.120000*%
%ADD11C,0.150000*%
%ADD12C,0.254000*%
%ADD13C,0.203200*%
%ADD14C,0.152400*%
%ADD15C,0.127000*%
%ADD16C,0.010000*%
G04 APERTURE END LIST*
D10*
G04 #@! TO.C,J1*
X70370700Y-106362500D02*
X70370700Y-96202500D01*
X69100700Y-106362500D02*
X76720700Y-106362500D01*
X76720700Y-106362500D02*
X76720700Y-96202500D01*
X76720700Y-96202500D02*
X69100700Y-96202500D01*
X69100700Y-96202500D02*
X69100700Y-106362500D01*
G04 #@! TO.C,J4*
X69100700Y-108508800D02*
X69100700Y-128828800D01*
X76720700Y-108508800D02*
X76720700Y-128828800D01*
X70370700Y-128828800D02*
X70370700Y-108508800D01*
X69100700Y-128828800D02*
X76720700Y-128828800D01*
X76720700Y-108508800D02*
X69100700Y-108508800D01*
G04 #@! TO.C,C1*
X107112320Y-84342680D02*
X107812320Y-84342680D01*
X107812320Y-85542680D02*
X107112320Y-85542680D01*
G04 #@! TO.C,C2*
X111651200Y-78504680D02*
X110651200Y-78504680D01*
X110651200Y-80204680D02*
X111651200Y-80204680D01*
G04 #@! TO.C,C3*
X121442780Y-97371000D02*
X121942780Y-97371000D01*
X121942780Y-96431000D02*
X121442780Y-96431000D01*
G04 #@! TO.C,C4*
X120792780Y-105156000D02*
X120792780Y-99316000D01*
X121552780Y-105916000D02*
X120792780Y-105156000D01*
X127392780Y-105156000D02*
X126632780Y-105916000D01*
X127392780Y-99316000D02*
X127392780Y-105156000D01*
X121552780Y-105916000D02*
X122972780Y-105916000D01*
X120792780Y-99316000D02*
X122972780Y-99316000D01*
X127392780Y-99316000D02*
X125212780Y-99316000D01*
X126632780Y-105916000D02*
X125212780Y-105916000D01*
G04 #@! TO.C,C5*
X99532540Y-84909560D02*
X99532540Y-84409560D01*
X98592540Y-84409560D02*
X98592540Y-84909560D01*
G04 #@! TO.C,C6*
X121250340Y-111279108D02*
X121250340Y-112279108D01*
X122950340Y-112279108D02*
X122950340Y-111279108D01*
G04 #@! TO.C,C7*
X112197780Y-110015400D02*
X112197780Y-111015400D01*
X113897780Y-111015400D02*
X113897780Y-110015400D01*
G04 #@! TO.C,C8*
X115888560Y-109802880D02*
X115888560Y-110502880D01*
X114688560Y-110502880D02*
X114688560Y-109802880D01*
G04 #@! TO.C,C9*
X102549580Y-112357800D02*
X101549580Y-112357800D01*
X101549580Y-114057800D02*
X102549580Y-114057800D01*
G04 #@! TO.C,C10*
X102114540Y-115471400D02*
X102614540Y-115471400D01*
X102614540Y-114531400D02*
X102114540Y-114531400D01*
G04 #@! TO.C,C11*
X129877720Y-121730440D02*
X129877720Y-122230440D01*
X130817720Y-122230440D02*
X130817720Y-121730440D01*
G04 #@! TO.C,C12*
X127703680Y-122230440D02*
X127703680Y-121730440D01*
X126763680Y-121730440D02*
X126763680Y-122230440D01*
G04 #@! TO.C,C13*
X112311280Y-134061620D02*
X112311280Y-133561620D01*
X111371280Y-133561620D02*
X111371280Y-134061620D01*
G04 #@! TO.C,C23*
X110151200Y-81638240D02*
X110651200Y-81638240D01*
X110651200Y-80698240D02*
X110151200Y-80698240D01*
G04 #@! TO.C,D1*
X106777280Y-83138840D02*
X106777280Y-79238840D01*
X108777280Y-83138840D02*
X108777280Y-79238840D01*
X106777280Y-83138840D02*
X108777280Y-83138840D01*
D11*
G04 #@! TO.C,D2*
X106758740Y-109102600D02*
X109258740Y-109102600D01*
X109258740Y-111402600D02*
X106758740Y-111402600D01*
D10*
G04 #@! TO.C,J2*
X92525160Y-85315720D02*
X93775160Y-85315720D01*
X92525160Y-84065720D02*
X92525160Y-85315720D01*
X96925160Y-81965720D02*
X96425160Y-81965720D01*
X96425160Y-81865720D02*
X96925160Y-81865720D01*
X96425160Y-82065720D02*
X96425160Y-81865720D01*
X96925160Y-82065720D02*
X96425160Y-82065720D01*
X92725160Y-83265720D02*
X92725160Y-83565720D01*
X92625160Y-83565720D02*
X92825160Y-83565720D01*
X92625160Y-83265720D02*
X92625160Y-83565720D01*
X92825160Y-83265720D02*
X92625160Y-83265720D01*
X95425160Y-78915720D02*
X95425160Y-79515720D01*
X94125160Y-78915720D02*
X94125160Y-79515720D01*
X95425160Y-85015720D02*
X95425160Y-84415720D01*
X94125160Y-85015720D02*
X94125160Y-84415720D01*
X93425160Y-81465720D02*
X92825160Y-81465720D01*
X93425160Y-79515720D02*
X93425160Y-81465720D01*
X96925160Y-79515720D02*
X93425160Y-79515720D01*
X96925160Y-84415720D02*
X96925160Y-79515720D01*
X93425160Y-84415720D02*
X96925160Y-84415720D01*
X93425160Y-82465720D02*
X93425160Y-84415720D01*
X92825160Y-82465720D02*
X93425160Y-82465720D01*
X92825160Y-78915720D02*
X92825160Y-85015720D01*
X97525160Y-78915720D02*
X92825160Y-78915720D01*
X97525160Y-85015720D02*
X97525160Y-78915720D01*
X92825160Y-85015720D02*
X97525160Y-85015720D01*
G04 #@! TO.C,J3*
X103877840Y-144697760D02*
X102857840Y-144697760D01*
X103877840Y-139497760D02*
X102857840Y-139497760D01*
X106417840Y-144697760D02*
X105397840Y-144697760D01*
X106417840Y-139497760D02*
X105397840Y-139497760D01*
X108957840Y-144697760D02*
X107937840Y-144697760D01*
X108957840Y-139497760D02*
X107937840Y-139497760D01*
X111497840Y-144697760D02*
X110477840Y-144697760D01*
X111497840Y-139497760D02*
X110477840Y-139497760D01*
X114037840Y-144697760D02*
X113017840Y-144697760D01*
X114037840Y-139497760D02*
X113017840Y-139497760D01*
X101337840Y-144697760D02*
X100767840Y-144697760D01*
X101337840Y-139497760D02*
X100767840Y-139497760D01*
X116127840Y-144697760D02*
X115557840Y-144697760D01*
X116127840Y-139497760D02*
X115557840Y-139497760D01*
X115557840Y-138057760D02*
X115557840Y-139497760D01*
X100767840Y-139497760D02*
X100767840Y-144697760D01*
X116127840Y-139497760D02*
X116127840Y-144697760D01*
D12*
G04 #@! TO.C,J$1*
X133321790Y-122252740D02*
X133321790Y-123395740D01*
X133321790Y-119458740D02*
X133321790Y-120601740D01*
D13*
X134361790Y-119327240D02*
X134561790Y-119327240D01*
X134361790Y-120727240D02*
X134561790Y-120727240D01*
X134361790Y-122127240D02*
X134561790Y-122127240D01*
X134361790Y-123527240D02*
X134561790Y-123527240D01*
X134361790Y-119327240D02*
X134361790Y-120727240D01*
X134361790Y-122127240D02*
X134361790Y-123527240D01*
X134461790Y-119427240D02*
X134461790Y-120727240D01*
X134461790Y-122127240D02*
X134461790Y-123427240D01*
X137161790Y-119327240D02*
X137161790Y-120727240D01*
X137161790Y-122127240D02*
X137161790Y-123527240D01*
X134561790Y-119327240D02*
X134561790Y-120727240D01*
X137161790Y-119327240D02*
X134561790Y-119327240D01*
X134561790Y-123527240D02*
X137161790Y-123527240D01*
X134561790Y-122127240D02*
X134561790Y-123527240D01*
D14*
G04 #@! TO.C,JP1*
X103388160Y-85603080D02*
X103388160Y-83875880D01*
X103642160Y-85857080D02*
X105166160Y-85857080D01*
X103642160Y-83621880D02*
X105166160Y-83621880D01*
X105420160Y-83875880D02*
X105420160Y-85603080D01*
X105166160Y-85857080D02*
G75*
G03X105420160Y-85603080I0J254000D01*
G01*
X105420160Y-83875880D02*
G75*
G03X105166160Y-83621880I-254000J0D01*
G01*
X103642160Y-83621880D02*
G75*
G03X103388160Y-83875880I0J-254000D01*
G01*
X103388160Y-85603080D02*
G75*
G03X103642160Y-85857080I254000J0D01*
G01*
D10*
G04 #@! TO.C,L1*
X129129600Y-120897240D02*
X128629600Y-120897240D01*
X128629600Y-121957240D02*
X129129600Y-121957240D01*
G04 #@! TO.C,Q1*
X103233760Y-81747480D02*
X101773760Y-81747480D01*
X103233760Y-78587480D02*
X101073760Y-78587480D01*
X103233760Y-78587480D02*
X103233760Y-79517480D01*
X103233760Y-81747480D02*
X103233760Y-80817480D01*
G04 #@! TO.C,R1*
X113439800Y-84565680D02*
X113439800Y-85065680D01*
X114499800Y-85065680D02*
X114499800Y-84565680D01*
G04 #@! TO.C,R2*
X98616360Y-80301020D02*
X98616360Y-80801020D01*
X99676360Y-80801020D02*
X99676360Y-80301020D01*
G04 #@! TO.C,R3*
X102818340Y-85109560D02*
X102818340Y-84609560D01*
X101758340Y-84609560D02*
X101758340Y-85109560D01*
G04 #@! TO.C,R4*
X101175440Y-85109560D02*
X101175440Y-84609560D01*
X100115440Y-84609560D02*
X100115440Y-85109560D01*
G04 #@! TO.C,R5*
X122299540Y-108501268D02*
X121799540Y-108501268D01*
X121799540Y-109561268D02*
X122299540Y-109561268D01*
G04 #@! TO.C,R6*
X110101790Y-114956400D02*
X110101790Y-114456400D01*
X109041790Y-114456400D02*
X109041790Y-114956400D01*
G04 #@! TO.C,R7*
X114138066Y-133861620D02*
X114138066Y-133361620D01*
X113078066Y-133361620D02*
X113078066Y-133861620D01*
G04 #@! TO.C,R8*
X111693100Y-114956400D02*
X111693100Y-114456400D01*
X110633100Y-114456400D02*
X110633100Y-114956400D01*
G04 #@! TO.C,R9*
X117669720Y-133861620D02*
X117669720Y-133361620D01*
X116609720Y-133361620D02*
X116609720Y-133861620D01*
G04 #@! TO.C,R10*
X114843892Y-133361620D02*
X114843892Y-133861620D01*
X115903892Y-133861620D02*
X115903892Y-133361620D01*
G04 #@! TO.C,R11*
X104107840Y-133361620D02*
X104107840Y-133861620D01*
X105167840Y-133861620D02*
X105167840Y-133361620D01*
G04 #@! TO.C,R12*
X102284120Y-133361620D02*
X102284120Y-133861620D01*
X103344120Y-133861620D02*
X103344120Y-133361620D01*
G04 #@! TO.C,R13*
X104267860Y-114456400D02*
X104267860Y-114956400D01*
X105327860Y-114956400D02*
X105327860Y-114456400D01*
G04 #@! TO.C,R14*
X99412200Y-121212000D02*
X99412200Y-120712000D01*
X98352200Y-120712000D02*
X98352200Y-121212000D01*
G04 #@! TO.C,R15*
X105124660Y-110552040D02*
X105124660Y-110052040D01*
X104064660Y-110052040D02*
X104064660Y-110552040D01*
G04 #@! TO.C,R16*
X106919170Y-114956400D02*
X106919170Y-114456400D01*
X105859170Y-114456400D02*
X105859170Y-114956400D01*
G04 #@! TO.C,R17*
X107450480Y-114456400D02*
X107450480Y-114956400D01*
X108510480Y-114956400D02*
X108510480Y-114456400D01*
G04 #@! TO.C,SW1*
X90673800Y-144733400D02*
X97133800Y-144733400D01*
X90673800Y-140203400D02*
X90673800Y-142803400D01*
X90673800Y-138273400D02*
X97133800Y-138273400D01*
X97133800Y-140203400D02*
X97133800Y-142803400D01*
X90673800Y-138303400D02*
X90673800Y-138273400D01*
X90673800Y-144733400D02*
X90673800Y-144703400D01*
X97133800Y-144733400D02*
X97133800Y-144703400D01*
X97133800Y-138273400D02*
X97133800Y-138303400D01*
G04 #@! TO.C,U1*
X109591200Y-82904760D02*
X109591200Y-84704760D01*
X112811200Y-84704760D02*
X112811200Y-82254760D01*
D15*
G04 #@! TO.C,U2*
X119438200Y-87205800D02*
X85438200Y-87205800D01*
X85438200Y-107205800D02*
X119438200Y-107205800D01*
X85438200Y-87205800D02*
X85438200Y-107205800D01*
X119438200Y-107205800D02*
X119438200Y-87205800D01*
D10*
G04 #@! TO.C,U3*
X117644340Y-112105080D02*
X120094340Y-112105080D01*
X119444340Y-108885080D02*
X117644340Y-108885080D01*
D11*
G04 #@! TO.C,U4*
X122709200Y-117134880D02*
X122709200Y-131134880D01*
X122709200Y-131134880D02*
X100709200Y-131134880D01*
X100709200Y-131134880D02*
X100709200Y-117134880D01*
X100709200Y-117134880D02*
X122709200Y-117134880D01*
X122709200Y-117134880D02*
X122709200Y-117134880D01*
D16*
G04 #@! TO.C,G\002A\002A\002A*
G36*
X163562617Y-103380911D02*
X163553161Y-103753221D01*
X163534882Y-104048623D01*
X163505717Y-104279509D01*
X163463605Y-104458273D01*
X163406484Y-104597308D01*
X163332293Y-104709006D01*
X163253727Y-104792219D01*
X163039506Y-104927050D01*
X162787673Y-104983317D01*
X162524943Y-104961362D01*
X162278026Y-104861529D01*
X162163912Y-104778221D01*
X162060376Y-104672491D01*
X161980353Y-104550139D01*
X161921036Y-104397270D01*
X161879618Y-104199990D01*
X161853293Y-103944405D01*
X161839254Y-103616619D01*
X161834693Y-103202739D01*
X161834649Y-103148356D01*
X161834649Y-102190461D01*
X161020220Y-102190461D01*
X161020220Y-101732345D01*
X162179985Y-101732345D01*
X162179985Y-102190461D01*
X162198356Y-103144870D01*
X162205948Y-103486500D01*
X162214892Y-103742634D01*
X162226954Y-103929579D01*
X162243898Y-104063643D01*
X162267490Y-104161131D01*
X162299495Y-104238352D01*
X162320938Y-104277435D01*
X162394926Y-104386040D01*
X162476684Y-104441661D01*
X162605280Y-104465326D01*
X162679836Y-104470630D01*
X162853989Y-104470197D01*
X162963378Y-104437698D01*
X163022382Y-104388586D01*
X163092238Y-104261708D01*
X163145211Y-104051539D01*
X163181878Y-103753577D01*
X163202821Y-103363319D01*
X163208703Y-102941262D01*
X163208998Y-102190461D01*
X162179985Y-102190461D01*
X162179985Y-101732345D01*
X163565311Y-101732345D01*
X163565311Y-102919298D01*
X163562617Y-103380911D01*
X163562617Y-103380911D01*
G37*
X163562617Y-103380911D02*
X163553161Y-103753221D01*
X163534882Y-104048623D01*
X163505717Y-104279509D01*
X163463605Y-104458273D01*
X163406484Y-104597308D01*
X163332293Y-104709006D01*
X163253727Y-104792219D01*
X163039506Y-104927050D01*
X162787673Y-104983317D01*
X162524943Y-104961362D01*
X162278026Y-104861529D01*
X162163912Y-104778221D01*
X162060376Y-104672491D01*
X161980353Y-104550139D01*
X161921036Y-104397270D01*
X161879618Y-104199990D01*
X161853293Y-103944405D01*
X161839254Y-103616619D01*
X161834693Y-103202739D01*
X161834649Y-103148356D01*
X161834649Y-102190461D01*
X161020220Y-102190461D01*
X161020220Y-101732345D01*
X162179985Y-101732345D01*
X162179985Y-102190461D01*
X162198356Y-103144870D01*
X162205948Y-103486500D01*
X162214892Y-103742634D01*
X162226954Y-103929579D01*
X162243898Y-104063643D01*
X162267490Y-104161131D01*
X162299495Y-104238352D01*
X162320938Y-104277435D01*
X162394926Y-104386040D01*
X162476684Y-104441661D01*
X162605280Y-104465326D01*
X162679836Y-104470630D01*
X162853989Y-104470197D01*
X162963378Y-104437698D01*
X163022382Y-104388586D01*
X163092238Y-104261708D01*
X163145211Y-104051539D01*
X163181878Y-103753577D01*
X163202821Y-103363319D01*
X163208703Y-102941262D01*
X163208998Y-102190461D01*
X162179985Y-102190461D01*
X162179985Y-101732345D01*
X163565311Y-101732345D01*
X163565311Y-102919298D01*
X163562617Y-103380911D01*
G36*
X162712705Y-106221965D02*
X162356255Y-106232204D01*
X162086238Y-106247666D01*
X161887292Y-106272305D01*
X161744053Y-106310073D01*
X161641159Y-106364923D01*
X161563247Y-106440811D01*
X161499475Y-106534177D01*
X161459675Y-106612846D01*
X161432324Y-106707424D01*
X161415274Y-106837466D01*
X161406378Y-107022528D01*
X161403487Y-107282165D01*
X161403524Y-107407896D01*
X161408662Y-107767890D01*
X161429939Y-108047437D01*
X161478765Y-108256680D01*
X161566552Y-108405761D01*
X161704710Y-108504824D01*
X161904650Y-108564012D01*
X162177784Y-108593467D01*
X162535521Y-108603332D01*
X162749247Y-108604088D01*
X163565311Y-108604088D01*
X163565311Y-109062204D01*
X162657084Y-109062204D01*
X162328502Y-109061418D01*
X162084051Y-109057831D01*
X161906067Y-109049601D01*
X161776880Y-109034886D01*
X161678826Y-109011844D01*
X161594236Y-108978631D01*
X161525768Y-108944232D01*
X161340651Y-108813292D01*
X161201772Y-108627893D01*
X161174175Y-108576804D01*
X161126192Y-108477585D01*
X161091533Y-108382459D01*
X161067735Y-108272210D01*
X161052336Y-108127624D01*
X161042872Y-107929483D01*
X161036881Y-107658572D01*
X161034366Y-107485859D01*
X161032523Y-107122412D01*
X161038697Y-106844286D01*
X161053852Y-106635245D01*
X161078953Y-106479052D01*
X161098556Y-106405938D01*
X161222952Y-106149737D01*
X161407704Y-105946776D01*
X161631872Y-105818965D01*
X161671322Y-105806584D01*
X161785737Y-105788827D01*
X161980011Y-105773607D01*
X162232211Y-105762035D01*
X162520404Y-105755222D01*
X162712705Y-105753871D01*
X163565311Y-105753587D01*
X163565311Y-106203122D01*
X162712705Y-106221965D01*
X162712705Y-106221965D01*
G37*
X162712705Y-106221965D02*
X162356255Y-106232204D01*
X162086238Y-106247666D01*
X161887292Y-106272305D01*
X161744053Y-106310073D01*
X161641159Y-106364923D01*
X161563247Y-106440811D01*
X161499475Y-106534177D01*
X161459675Y-106612846D01*
X161432324Y-106707424D01*
X161415274Y-106837466D01*
X161406378Y-107022528D01*
X161403487Y-107282165D01*
X161403524Y-107407896D01*
X161408662Y-107767890D01*
X161429939Y-108047437D01*
X161478765Y-108256680D01*
X161566552Y-108405761D01*
X161704710Y-108504824D01*
X161904650Y-108564012D01*
X162177784Y-108593467D01*
X162535521Y-108603332D01*
X162749247Y-108604088D01*
X163565311Y-108604088D01*
X163565311Y-109062204D01*
X162657084Y-109062204D01*
X162328502Y-109061418D01*
X162084051Y-109057831D01*
X161906067Y-109049601D01*
X161776880Y-109034886D01*
X161678826Y-109011844D01*
X161594236Y-108978631D01*
X161525768Y-108944232D01*
X161340651Y-108813292D01*
X161201772Y-108627893D01*
X161174175Y-108576804D01*
X161126192Y-108477585D01*
X161091533Y-108382459D01*
X161067735Y-108272210D01*
X161052336Y-108127624D01*
X161042872Y-107929483D01*
X161036881Y-107658572D01*
X161034366Y-107485859D01*
X161032523Y-107122412D01*
X161038697Y-106844286D01*
X161053852Y-106635245D01*
X161078953Y-106479052D01*
X161098556Y-106405938D01*
X161222952Y-106149737D01*
X161407704Y-105946776D01*
X161631872Y-105818965D01*
X161671322Y-105806584D01*
X161785737Y-105788827D01*
X161980011Y-105773607D01*
X162232211Y-105762035D01*
X162520404Y-105755222D01*
X162712705Y-105753871D01*
X163565311Y-105753587D01*
X163565311Y-106203122D01*
X162712705Y-106221965D01*
G36*
X162605065Y-111817768D02*
X161644819Y-112905290D01*
X163565311Y-112932940D01*
X163565311Y-113439759D01*
X161020220Y-113439759D01*
X161020220Y-112945185D01*
X162971238Y-110716513D01*
X161995729Y-110702688D01*
X161020220Y-110688864D01*
X161020220Y-110182044D01*
X163565311Y-110182044D01*
X163565311Y-110730245D01*
X162605065Y-111817768D01*
X162605065Y-111817768D01*
G37*
X162605065Y-111817768D02*
X161644819Y-112905290D01*
X163565311Y-112932940D01*
X163565311Y-113439759D01*
X161020220Y-113439759D01*
X161020220Y-112945185D01*
X162971238Y-110716513D01*
X161995729Y-110702688D01*
X161020220Y-110688864D01*
X161020220Y-110182044D01*
X163565311Y-110182044D01*
X163565311Y-110730245D01*
X162605065Y-111817768D01*
G36*
X163208998Y-117766413D02*
X163208998Y-115017715D01*
X162547274Y-115017715D01*
X162547274Y-117715511D01*
X162140060Y-117715511D01*
X162140060Y-115017715D01*
X161427435Y-115017715D01*
X161427435Y-117868216D01*
X161020220Y-117868216D01*
X161020220Y-114508697D01*
X163565311Y-114508697D01*
X163565311Y-117766413D01*
X163208998Y-117766413D01*
X163208998Y-117766413D01*
G37*
X163208998Y-117766413D02*
X163208998Y-115017715D01*
X162547274Y-115017715D01*
X162547274Y-117715511D01*
X162140060Y-117715511D01*
X162140060Y-115017715D01*
X161427435Y-115017715D01*
X161427435Y-117868216D01*
X161020220Y-117868216D01*
X161020220Y-114508697D01*
X163565311Y-114508697D01*
X163565311Y-117766413D01*
X163208998Y-117766413D01*
G36*
X163208998Y-121736753D02*
X163208998Y-118988056D01*
X162547274Y-118988056D01*
X162547274Y-121685852D01*
X162140060Y-121685852D01*
X162140060Y-118988056D01*
X161427435Y-118988056D01*
X161427435Y-121787655D01*
X161020220Y-121787655D01*
X161020220Y-118479038D01*
X163565311Y-118479038D01*
X163565311Y-121736753D01*
X163208998Y-121736753D01*
X163208998Y-121736753D01*
G37*
X163208998Y-121736753D02*
X163208998Y-118988056D01*
X162547274Y-118988056D01*
X162547274Y-121685852D01*
X162140060Y-121685852D01*
X162140060Y-118988056D01*
X161427435Y-118988056D01*
X161427435Y-121787655D01*
X161020220Y-121787655D01*
X161020220Y-118479038D01*
X163565311Y-118479038D01*
X163565311Y-121736753D01*
X163208998Y-121736753D01*
G36*
X172787157Y-111786195D02*
X172681917Y-111913475D01*
X172546131Y-112016317D01*
X172412207Y-112064689D01*
X172396773Y-112065411D01*
X172255971Y-112023421D01*
X172108983Y-111912705D01*
X171956277Y-111760000D01*
X171042363Y-111760000D01*
X170709954Y-111761144D01*
X170465764Y-111765325D01*
X170296223Y-111773668D01*
X170187764Y-111787298D01*
X170126820Y-111807339D01*
X170099822Y-111834916D01*
X170098426Y-111838235D01*
X170023245Y-111925576D01*
X169889733Y-112006197D01*
X169740137Y-112057642D01*
X169671026Y-112065411D01*
X169567734Y-112029785D01*
X169447709Y-111941341D01*
X169419018Y-111912705D01*
X169276370Y-111760000D01*
X166415812Y-111760000D01*
X166415812Y-111454589D01*
X169312587Y-111454589D01*
X169439841Y-111327334D01*
X169605428Y-111221211D01*
X169724429Y-111200080D01*
X169903731Y-111248175D01*
X170009016Y-111327334D01*
X170056620Y-111372307D01*
X170106591Y-111405198D01*
X170174604Y-111427897D01*
X170276330Y-111442294D01*
X170427443Y-111450278D01*
X170643615Y-111453741D01*
X170940519Y-111454571D01*
X171064328Y-111454589D01*
X171395034Y-111453870D01*
X171639004Y-111450718D01*
X171811300Y-111443641D01*
X171926985Y-111431149D01*
X172001121Y-111411749D01*
X172048772Y-111383950D01*
X172078358Y-111354180D01*
X172230613Y-111241588D01*
X172402909Y-111211469D01*
X172571925Y-111254187D01*
X172714341Y-111360107D01*
X172806838Y-111519594D01*
X172829439Y-111664507D01*
X172787157Y-111786195D01*
X172787157Y-111786195D01*
G37*
X172787157Y-111786195D02*
X172681917Y-111913475D01*
X172546131Y-112016317D01*
X172412207Y-112064689D01*
X172396773Y-112065411D01*
X172255971Y-112023421D01*
X172108983Y-111912705D01*
X171956277Y-111760000D01*
X171042363Y-111760000D01*
X170709954Y-111761144D01*
X170465764Y-111765325D01*
X170296223Y-111773668D01*
X170187764Y-111787298D01*
X170126820Y-111807339D01*
X170099822Y-111834916D01*
X170098426Y-111838235D01*
X170023245Y-111925576D01*
X169889733Y-112006197D01*
X169740137Y-112057642D01*
X169671026Y-112065411D01*
X169567734Y-112029785D01*
X169447709Y-111941341D01*
X169419018Y-111912705D01*
X169276370Y-111760000D01*
X166415812Y-111760000D01*
X166415812Y-111454589D01*
X169312587Y-111454589D01*
X169439841Y-111327334D01*
X169605428Y-111221211D01*
X169724429Y-111200080D01*
X169903731Y-111248175D01*
X170009016Y-111327334D01*
X170056620Y-111372307D01*
X170106591Y-111405198D01*
X170174604Y-111427897D01*
X170276330Y-111442294D01*
X170427443Y-111450278D01*
X170643615Y-111453741D01*
X170940519Y-111454571D01*
X171064328Y-111454589D01*
X171395034Y-111453870D01*
X171639004Y-111450718D01*
X171811300Y-111443641D01*
X171926985Y-111431149D01*
X172001121Y-111411749D01*
X172048772Y-111383950D01*
X172078358Y-111354180D01*
X172230613Y-111241588D01*
X172402909Y-111211469D01*
X172571925Y-111254187D01*
X172714341Y-111360107D01*
X172806838Y-111519594D01*
X172829439Y-111664507D01*
X172787157Y-111786195D01*
G36*
X176768171Y-111168218D02*
X176666296Y-111301064D01*
X176487126Y-111378413D01*
X176366822Y-111379565D01*
X176227895Y-111343405D01*
X176106851Y-111284477D01*
X176040198Y-111217326D01*
X176036252Y-111198773D01*
X175987736Y-111177904D01*
X175851588Y-111161946D01*
X175641909Y-111152024D01*
X175415250Y-111149178D01*
X175150256Y-111151207D01*
X174975064Y-111158180D01*
X174877736Y-111171427D01*
X174846335Y-111192278D01*
X174856499Y-111211428D01*
X174947609Y-111250820D01*
X175081281Y-111259658D01*
X175085082Y-111259348D01*
X175278957Y-111285448D01*
X175429722Y-111387075D01*
X175515524Y-111545427D01*
X175527234Y-111639786D01*
X175513174Y-111789543D01*
X175479164Y-111907304D01*
X175477407Y-111910698D01*
X175369237Y-112016086D01*
X175205043Y-112073869D01*
X175023877Y-112072838D01*
X174966240Y-112057409D01*
X174807135Y-111961782D01*
X174726579Y-111807421D01*
X174712806Y-111673359D01*
X174684181Y-111540922D01*
X174612672Y-111385446D01*
X174583716Y-111339151D01*
X174465531Y-111201670D01*
X174344669Y-111146949D01*
X174208090Y-111176517D01*
X174042753Y-111291902D01*
X173909207Y-111418172D01*
X173643554Y-111687166D01*
X174130932Y-112167214D01*
X175926618Y-112167214D01*
X176079323Y-112014509D01*
X176249871Y-111900775D01*
X176430265Y-111872584D01*
X176596231Y-111926850D01*
X176723492Y-112060489D01*
X176743265Y-112098870D01*
X176795928Y-112309956D01*
X176759197Y-112492691D01*
X176641329Y-112630450D01*
X176450578Y-112706609D01*
X176440651Y-112708283D01*
X176295428Y-112712842D01*
X176173150Y-112659502D01*
X176102441Y-112604932D01*
X176023461Y-112544513D01*
X175943440Y-112505922D01*
X175837671Y-112484311D01*
X175681447Y-112474830D01*
X175450062Y-112472632D01*
X175428279Y-112472625D01*
X175195585Y-112474041D01*
X175048489Y-112480271D01*
X174970799Y-112494284D01*
X174946326Y-112519052D01*
X174958880Y-112557544D01*
X174959489Y-112558638D01*
X175042672Y-112622199D01*
X175207233Y-112648102D01*
X175235625Y-112648936D01*
X175442029Y-112675740D01*
X175572939Y-112755031D01*
X175646448Y-112899235D01*
X175656000Y-112937621D01*
X175656241Y-113145531D01*
X175572854Y-113321096D01*
X175422679Y-113443170D01*
X175222557Y-113490612D01*
X175215513Y-113490661D01*
X175086865Y-113446959D01*
X174958564Y-113337021D01*
X174858570Y-113192599D01*
X174814841Y-113045444D01*
X174814609Y-113035369D01*
X174786262Y-112895814D01*
X174715049Y-112732529D01*
X174680591Y-112675141D01*
X174598407Y-112559826D01*
X174524030Y-112499483D01*
X174420456Y-112476340D01*
X174258912Y-112472625D01*
X174110331Y-112469224D01*
X174004507Y-112448827D01*
X173910639Y-112396140D01*
X173797930Y-112295871D01*
X173694466Y-112192358D01*
X173417680Y-111912091D01*
X173033355Y-112294161D01*
X172649030Y-112676232D01*
X171992107Y-112676232D01*
X172370354Y-113057021D01*
X172748601Y-113437809D01*
X172855228Y-113337638D01*
X172932944Y-113223068D01*
X172942119Y-113068668D01*
X172941320Y-113061568D01*
X172965540Y-112877910D01*
X173069416Y-112730590D01*
X173231726Y-112642237D01*
X173348869Y-112626949D01*
X173542782Y-112667309D01*
X173679180Y-112769529D01*
X173757684Y-112911763D01*
X173777916Y-113072164D01*
X173739500Y-113228887D01*
X173642057Y-113360086D01*
X173485210Y-113443914D01*
X173363307Y-113462355D01*
X173175538Y-113509423D01*
X173072386Y-113581403D01*
X172959521Y-113694268D01*
X174159136Y-113694268D01*
X174540567Y-113693794D01*
X174833215Y-113691706D01*
X175050095Y-113687005D01*
X175204226Y-113678693D01*
X175308626Y-113665769D01*
X175376311Y-113647236D01*
X175420300Y-113622095D01*
X175448271Y-113595350D01*
X175609476Y-113487235D01*
X175803790Y-113461410D01*
X175975467Y-113511001D01*
X176122100Y-113636703D01*
X176191221Y-113805101D01*
X176179212Y-113988865D01*
X176082459Y-114160667D01*
X176064017Y-114180149D01*
X175896355Y-114287929D01*
X175715580Y-114297750D01*
X175534151Y-114210192D01*
X175468502Y-114152385D01*
X175315796Y-113999679D01*
X173926769Y-113999679D01*
X174243412Y-114319163D01*
X174399119Y-114472798D01*
X174508260Y-114565864D01*
X174594105Y-114611866D01*
X174679926Y-114624309D01*
X174760917Y-114619491D01*
X174917334Y-114621519D01*
X175032634Y-114676970D01*
X175091800Y-114730359D01*
X175194585Y-114893066D01*
X175214181Y-115069267D01*
X175160896Y-115234524D01*
X175045037Y-115364401D01*
X174876910Y-115434461D01*
X174792423Y-115440148D01*
X174588226Y-115394470D01*
X174449560Y-115270885D01*
X174377299Y-115074354D01*
X174343963Y-114970990D01*
X174271241Y-114851310D01*
X174147512Y-114699782D01*
X173961157Y-114500873D01*
X173906523Y-114445070D01*
X173467834Y-113999679D01*
X172922067Y-113999679D01*
X172226755Y-113338625D01*
X171531443Y-112677572D01*
X171100143Y-112676902D01*
X170668842Y-112676232D01*
X171022425Y-113032545D01*
X171189878Y-113197776D01*
X171309528Y-113302334D01*
X171403103Y-113359904D01*
X171492330Y-113384174D01*
X171588066Y-113388858D01*
X171811086Y-113421999D01*
X171957867Y-113522260D01*
X172029799Y-113690897D01*
X172038147Y-113796072D01*
X172000025Y-113998882D01*
X171886817Y-114133256D01*
X171700264Y-114197555D01*
X171605851Y-114203286D01*
X171416601Y-114157888D01*
X171276334Y-114035452D01*
X171205349Y-113856623D01*
X171200581Y-113791134D01*
X171183965Y-113710988D01*
X171127533Y-113609337D01*
X171021407Y-113472789D01*
X170855710Y-113287948D01*
X170736446Y-113161726D01*
X170272311Y-112676232D01*
X166721222Y-112676232D01*
X166721222Y-112370821D01*
X172501307Y-112370821D01*
X172843866Y-112025618D01*
X173186424Y-111680414D01*
X172757155Y-111287542D01*
X172327885Y-110894669D01*
X166823026Y-110894669D01*
X166823026Y-110589258D01*
X168540962Y-110589233D01*
X170258898Y-110589207D01*
X170704289Y-110109451D01*
X170892324Y-109903404D01*
X171019627Y-109752776D01*
X171097427Y-109640976D01*
X171136954Y-109551413D01*
X171149438Y-109467497D01*
X171149679Y-109451447D01*
X171192537Y-109273497D01*
X171305042Y-109145284D01*
X171463091Y-109076863D01*
X171642581Y-109078287D01*
X171819410Y-109159607D01*
X171829989Y-109167702D01*
X171933796Y-109309362D01*
X171969472Y-109498441D01*
X171932489Y-109696196D01*
X171852172Y-109791384D01*
X171715114Y-109870132D01*
X171566263Y-109911198D01*
X171484924Y-109907732D01*
X171415536Y-109909489D01*
X171327761Y-109954903D01*
X171206009Y-110054950D01*
X171034691Y-110220609D01*
X171020930Y-110234452D01*
X170668842Y-110589258D01*
X171634774Y-110589258D01*
X172269519Y-109952986D01*
X172904264Y-109316713D01*
X173518861Y-109316713D01*
X173937677Y-108895710D01*
X174130911Y-108695468D01*
X174257852Y-108547447D01*
X174329195Y-108437262D01*
X174355638Y-108350525D01*
X174356493Y-108332444D01*
X174391421Y-108135384D01*
X174500922Y-108003867D01*
X174609927Y-107950366D01*
X174807650Y-107924618D01*
X174917487Y-107950366D01*
X175072551Y-108047220D01*
X175158262Y-108188683D01*
X175179766Y-108351338D01*
X175142209Y-108511766D01*
X175050737Y-108646549D01*
X174910497Y-108732269D01*
X174742297Y-108747604D01*
X174645183Y-108743833D01*
X174561143Y-108767901D01*
X174466109Y-108833770D01*
X174336014Y-108955401D01*
X174269920Y-109021630D01*
X173977916Y-109316713D01*
X174701674Y-109316713D01*
X174993319Y-109315078D01*
X175197309Y-109309219D01*
X175327752Y-109297703D01*
X175398759Y-109279097D01*
X175424438Y-109251971D01*
X175425431Y-109243247D01*
X175471451Y-109146829D01*
X175589989Y-109066343D01*
X175751759Y-109018162D01*
X175840277Y-109011302D01*
X176000743Y-109035802D01*
X176116779Y-109124037D01*
X176134362Y-109145421D01*
X176223228Y-109324542D01*
X176228539Y-109505476D01*
X176160544Y-109664870D01*
X176029491Y-109779372D01*
X175845627Y-109825628D01*
X175835815Y-109825731D01*
X175641625Y-109791545D01*
X175513345Y-109723928D01*
X175465829Y-109691220D01*
X175408217Y-109666359D01*
X175326852Y-109648276D01*
X175208076Y-109635902D01*
X175038230Y-109628171D01*
X174803658Y-109624013D01*
X174490702Y-109622361D01*
X174211488Y-109622124D01*
X173876251Y-109624002D01*
X173575974Y-109629269D01*
X173325310Y-109637374D01*
X173138911Y-109647765D01*
X173031430Y-109659892D01*
X173011160Y-109667258D01*
X173016319Y-109734546D01*
X173094665Y-109793877D01*
X173217849Y-109829911D01*
X173317240Y-109832916D01*
X173495063Y-109861093D01*
X173633343Y-109962948D01*
X173720820Y-110114363D01*
X173746239Y-110291219D01*
X173698340Y-110469401D01*
X173649302Y-110544286D01*
X173548441Y-110628777D01*
X173405920Y-110661292D01*
X173338457Y-110663297D01*
X173134874Y-110623356D01*
X172997871Y-110508318D01*
X172934710Y-110325364D01*
X172931242Y-110260647D01*
X172901948Y-110111354D01*
X172839494Y-110012987D01*
X172791456Y-109978543D01*
X172741212Y-109977544D01*
X172671312Y-110020275D01*
X172564307Y-110117019D01*
X172421025Y-110259607D01*
X172094304Y-110589258D01*
X172278438Y-110589258D01*
X172365488Y-110597457D01*
X172453326Y-110629571D01*
X172559085Y-110696881D01*
X172699897Y-110810663D01*
X172892897Y-110982198D01*
X172938691Y-111023902D01*
X173414810Y-111458546D01*
X173686886Y-111151157D01*
X173958962Y-110843767D01*
X174281516Y-110843767D01*
X174460715Y-110840169D01*
X174570910Y-110821175D01*
X174644850Y-110774487D01*
X174715286Y-110687807D01*
X174722065Y-110678336D01*
X174823860Y-110450959D01*
X174841495Y-110290913D01*
X174879727Y-110084141D01*
X174991190Y-109948075D01*
X175175733Y-109882860D01*
X175274670Y-109876633D01*
X175434625Y-109898719D01*
X175548076Y-109979398D01*
X175574442Y-110010752D01*
X175663397Y-110190008D01*
X175668672Y-110370977D01*
X175600521Y-110530339D01*
X175469200Y-110644774D01*
X175284965Y-110690962D01*
X175275264Y-110691062D01*
X175126369Y-110710839D01*
X175024569Y-110760600D01*
X175018216Y-110767415D01*
X175000089Y-110802567D01*
X175026308Y-110825054D01*
X175112226Y-110837592D01*
X175273199Y-110842898D01*
X175449678Y-110843767D01*
X175678708Y-110842433D01*
X175830441Y-110834518D01*
X175929383Y-110814151D01*
X176000038Y-110775463D01*
X176066910Y-110712583D01*
X176087154Y-110691062D01*
X176259039Y-110567366D01*
X176444200Y-110543145D01*
X176632126Y-110619256D01*
X176665660Y-110643855D01*
X176757248Y-110740367D01*
X176795060Y-110863896D01*
X176799779Y-110966827D01*
X176768171Y-111168218D01*
X176768171Y-111168218D01*
G37*
X176768171Y-111168218D02*
X176666296Y-111301064D01*
X176487126Y-111378413D01*
X176366822Y-111379565D01*
X176227895Y-111343405D01*
X176106851Y-111284477D01*
X176040198Y-111217326D01*
X176036252Y-111198773D01*
X175987736Y-111177904D01*
X175851588Y-111161946D01*
X175641909Y-111152024D01*
X175415250Y-111149178D01*
X175150256Y-111151207D01*
X174975064Y-111158180D01*
X174877736Y-111171427D01*
X174846335Y-111192278D01*
X174856499Y-111211428D01*
X174947609Y-111250820D01*
X175081281Y-111259658D01*
X175085082Y-111259348D01*
X175278957Y-111285448D01*
X175429722Y-111387075D01*
X175515524Y-111545427D01*
X175527234Y-111639786D01*
X175513174Y-111789543D01*
X175479164Y-111907304D01*
X175477407Y-111910698D01*
X175369237Y-112016086D01*
X175205043Y-112073869D01*
X175023877Y-112072838D01*
X174966240Y-112057409D01*
X174807135Y-111961782D01*
X174726579Y-111807421D01*
X174712806Y-111673359D01*
X174684181Y-111540922D01*
X174612672Y-111385446D01*
X174583716Y-111339151D01*
X174465531Y-111201670D01*
X174344669Y-111146949D01*
X174208090Y-111176517D01*
X174042753Y-111291902D01*
X173909207Y-111418172D01*
X173643554Y-111687166D01*
X174130932Y-112167214D01*
X175926618Y-112167214D01*
X176079323Y-112014509D01*
X176249871Y-111900775D01*
X176430265Y-111872584D01*
X176596231Y-111926850D01*
X176723492Y-112060489D01*
X176743265Y-112098870D01*
X176795928Y-112309956D01*
X176759197Y-112492691D01*
X176641329Y-112630450D01*
X176450578Y-112706609D01*
X176440651Y-112708283D01*
X176295428Y-112712842D01*
X176173150Y-112659502D01*
X176102441Y-112604932D01*
X176023461Y-112544513D01*
X175943440Y-112505922D01*
X175837671Y-112484311D01*
X175681447Y-112474830D01*
X175450062Y-112472632D01*
X175428279Y-112472625D01*
X175195585Y-112474041D01*
X175048489Y-112480271D01*
X174970799Y-112494284D01*
X174946326Y-112519052D01*
X174958880Y-112557544D01*
X174959489Y-112558638D01*
X175042672Y-112622199D01*
X175207233Y-112648102D01*
X175235625Y-112648936D01*
X175442029Y-112675740D01*
X175572939Y-112755031D01*
X175646448Y-112899235D01*
X175656000Y-112937621D01*
X175656241Y-113145531D01*
X175572854Y-113321096D01*
X175422679Y-113443170D01*
X175222557Y-113490612D01*
X175215513Y-113490661D01*
X175086865Y-113446959D01*
X174958564Y-113337021D01*
X174858570Y-113192599D01*
X174814841Y-113045444D01*
X174814609Y-113035369D01*
X174786262Y-112895814D01*
X174715049Y-112732529D01*
X174680591Y-112675141D01*
X174598407Y-112559826D01*
X174524030Y-112499483D01*
X174420456Y-112476340D01*
X174258912Y-112472625D01*
X174110331Y-112469224D01*
X174004507Y-112448827D01*
X173910639Y-112396140D01*
X173797930Y-112295871D01*
X173694466Y-112192358D01*
X173417680Y-111912091D01*
X173033355Y-112294161D01*
X172649030Y-112676232D01*
X171992107Y-112676232D01*
X172370354Y-113057021D01*
X172748601Y-113437809D01*
X172855228Y-113337638D01*
X172932944Y-113223068D01*
X172942119Y-113068668D01*
X172941320Y-113061568D01*
X172965540Y-112877910D01*
X173069416Y-112730590D01*
X173231726Y-112642237D01*
X173348869Y-112626949D01*
X173542782Y-112667309D01*
X173679180Y-112769529D01*
X173757684Y-112911763D01*
X173777916Y-113072164D01*
X173739500Y-113228887D01*
X173642057Y-113360086D01*
X173485210Y-113443914D01*
X173363307Y-113462355D01*
X173175538Y-113509423D01*
X173072386Y-113581403D01*
X172959521Y-113694268D01*
X174159136Y-113694268D01*
X174540567Y-113693794D01*
X174833215Y-113691706D01*
X175050095Y-113687005D01*
X175204226Y-113678693D01*
X175308626Y-113665769D01*
X175376311Y-113647236D01*
X175420300Y-113622095D01*
X175448271Y-113595350D01*
X175609476Y-113487235D01*
X175803790Y-113461410D01*
X175975467Y-113511001D01*
X176122100Y-113636703D01*
X176191221Y-113805101D01*
X176179212Y-113988865D01*
X176082459Y-114160667D01*
X176064017Y-114180149D01*
X175896355Y-114287929D01*
X175715580Y-114297750D01*
X175534151Y-114210192D01*
X175468502Y-114152385D01*
X175315796Y-113999679D01*
X173926769Y-113999679D01*
X174243412Y-114319163D01*
X174399119Y-114472798D01*
X174508260Y-114565864D01*
X174594105Y-114611866D01*
X174679926Y-114624309D01*
X174760917Y-114619491D01*
X174917334Y-114621519D01*
X175032634Y-114676970D01*
X175091800Y-114730359D01*
X175194585Y-114893066D01*
X175214181Y-115069267D01*
X175160896Y-115234524D01*
X175045037Y-115364401D01*
X174876910Y-115434461D01*
X174792423Y-115440148D01*
X174588226Y-115394470D01*
X174449560Y-115270885D01*
X174377299Y-115074354D01*
X174343963Y-114970990D01*
X174271241Y-114851310D01*
X174147512Y-114699782D01*
X173961157Y-114500873D01*
X173906523Y-114445070D01*
X173467834Y-113999679D01*
X172922067Y-113999679D01*
X172226755Y-113338625D01*
X171531443Y-112677572D01*
X171100143Y-112676902D01*
X170668842Y-112676232D01*
X171022425Y-113032545D01*
X171189878Y-113197776D01*
X171309528Y-113302334D01*
X171403103Y-113359904D01*
X171492330Y-113384174D01*
X171588066Y-113388858D01*
X171811086Y-113421999D01*
X171957867Y-113522260D01*
X172029799Y-113690897D01*
X172038147Y-113796072D01*
X172000025Y-113998882D01*
X171886817Y-114133256D01*
X171700264Y-114197555D01*
X171605851Y-114203286D01*
X171416601Y-114157888D01*
X171276334Y-114035452D01*
X171205349Y-113856623D01*
X171200581Y-113791134D01*
X171183965Y-113710988D01*
X171127533Y-113609337D01*
X171021407Y-113472789D01*
X170855710Y-113287948D01*
X170736446Y-113161726D01*
X170272311Y-112676232D01*
X166721222Y-112676232D01*
X166721222Y-112370821D01*
X172501307Y-112370821D01*
X172843866Y-112025618D01*
X173186424Y-111680414D01*
X172757155Y-111287542D01*
X172327885Y-110894669D01*
X166823026Y-110894669D01*
X166823026Y-110589258D01*
X168540962Y-110589233D01*
X170258898Y-110589207D01*
X170704289Y-110109451D01*
X170892324Y-109903404D01*
X171019627Y-109752776D01*
X171097427Y-109640976D01*
X171136954Y-109551413D01*
X171149438Y-109467497D01*
X171149679Y-109451447D01*
X171192537Y-109273497D01*
X171305042Y-109145284D01*
X171463091Y-109076863D01*
X171642581Y-109078287D01*
X171819410Y-109159607D01*
X171829989Y-109167702D01*
X171933796Y-109309362D01*
X171969472Y-109498441D01*
X171932489Y-109696196D01*
X171852172Y-109791384D01*
X171715114Y-109870132D01*
X171566263Y-109911198D01*
X171484924Y-109907732D01*
X171415536Y-109909489D01*
X171327761Y-109954903D01*
X171206009Y-110054950D01*
X171034691Y-110220609D01*
X171020930Y-110234452D01*
X170668842Y-110589258D01*
X171634774Y-110589258D01*
X172269519Y-109952986D01*
X172904264Y-109316713D01*
X173518861Y-109316713D01*
X173937677Y-108895710D01*
X174130911Y-108695468D01*
X174257852Y-108547447D01*
X174329195Y-108437262D01*
X174355638Y-108350525D01*
X174356493Y-108332444D01*
X174391421Y-108135384D01*
X174500922Y-108003867D01*
X174609927Y-107950366D01*
X174807650Y-107924618D01*
X174917487Y-107950366D01*
X175072551Y-108047220D01*
X175158262Y-108188683D01*
X175179766Y-108351338D01*
X175142209Y-108511766D01*
X175050737Y-108646549D01*
X174910497Y-108732269D01*
X174742297Y-108747604D01*
X174645183Y-108743833D01*
X174561143Y-108767901D01*
X174466109Y-108833770D01*
X174336014Y-108955401D01*
X174269920Y-109021630D01*
X173977916Y-109316713D01*
X174701674Y-109316713D01*
X174993319Y-109315078D01*
X175197309Y-109309219D01*
X175327752Y-109297703D01*
X175398759Y-109279097D01*
X175424438Y-109251971D01*
X175425431Y-109243247D01*
X175471451Y-109146829D01*
X175589989Y-109066343D01*
X175751759Y-109018162D01*
X175840277Y-109011302D01*
X176000743Y-109035802D01*
X176116779Y-109124037D01*
X176134362Y-109145421D01*
X176223228Y-109324542D01*
X176228539Y-109505476D01*
X176160544Y-109664870D01*
X176029491Y-109779372D01*
X175845627Y-109825628D01*
X175835815Y-109825731D01*
X175641625Y-109791545D01*
X175513345Y-109723928D01*
X175465829Y-109691220D01*
X175408217Y-109666359D01*
X175326852Y-109648276D01*
X175208076Y-109635902D01*
X175038230Y-109628171D01*
X174803658Y-109624013D01*
X174490702Y-109622361D01*
X174211488Y-109622124D01*
X173876251Y-109624002D01*
X173575974Y-109629269D01*
X173325310Y-109637374D01*
X173138911Y-109647765D01*
X173031430Y-109659892D01*
X173011160Y-109667258D01*
X173016319Y-109734546D01*
X173094665Y-109793877D01*
X173217849Y-109829911D01*
X173317240Y-109832916D01*
X173495063Y-109861093D01*
X173633343Y-109962948D01*
X173720820Y-110114363D01*
X173746239Y-110291219D01*
X173698340Y-110469401D01*
X173649302Y-110544286D01*
X173548441Y-110628777D01*
X173405920Y-110661292D01*
X173338457Y-110663297D01*
X173134874Y-110623356D01*
X172997871Y-110508318D01*
X172934710Y-110325364D01*
X172931242Y-110260647D01*
X172901948Y-110111354D01*
X172839494Y-110012987D01*
X172791456Y-109978543D01*
X172741212Y-109977544D01*
X172671312Y-110020275D01*
X172564307Y-110117019D01*
X172421025Y-110259607D01*
X172094304Y-110589258D01*
X172278438Y-110589258D01*
X172365488Y-110597457D01*
X172453326Y-110629571D01*
X172559085Y-110696881D01*
X172699897Y-110810663D01*
X172892897Y-110982198D01*
X172938691Y-111023902D01*
X173414810Y-111458546D01*
X173686886Y-111151157D01*
X173958962Y-110843767D01*
X174281516Y-110843767D01*
X174460715Y-110840169D01*
X174570910Y-110821175D01*
X174644850Y-110774487D01*
X174715286Y-110687807D01*
X174722065Y-110678336D01*
X174823860Y-110450959D01*
X174841495Y-110290913D01*
X174879727Y-110084141D01*
X174991190Y-109948075D01*
X175175733Y-109882860D01*
X175274670Y-109876633D01*
X175434625Y-109898719D01*
X175548076Y-109979398D01*
X175574442Y-110010752D01*
X175663397Y-110190008D01*
X175668672Y-110370977D01*
X175600521Y-110530339D01*
X175469200Y-110644774D01*
X175284965Y-110690962D01*
X175275264Y-110691062D01*
X175126369Y-110710839D01*
X175024569Y-110760600D01*
X175018216Y-110767415D01*
X175000089Y-110802567D01*
X175026308Y-110825054D01*
X175112226Y-110837592D01*
X175273199Y-110842898D01*
X175449678Y-110843767D01*
X175678708Y-110842433D01*
X175830441Y-110834518D01*
X175929383Y-110814151D01*
X176000038Y-110775463D01*
X176066910Y-110712583D01*
X176087154Y-110691062D01*
X176259039Y-110567366D01*
X176444200Y-110543145D01*
X176632126Y-110619256D01*
X176665660Y-110643855D01*
X176757248Y-110740367D01*
X176795060Y-110863896D01*
X176799779Y-110966827D01*
X176768171Y-111168218D01*
G36*
X173278419Y-108924205D02*
X173204338Y-109007608D01*
X173017035Y-109101993D01*
X172830594Y-109095890D01*
X172655523Y-108990158D01*
X172625832Y-108960401D01*
X172515680Y-108862236D01*
X172398444Y-108817684D01*
X172239157Y-108807695D01*
X172061957Y-108793524D01*
X171934970Y-108739377D01*
X171851043Y-108669651D01*
X171706955Y-108531607D01*
X170931428Y-109305924D01*
X170155900Y-110080240D01*
X167026633Y-110080240D01*
X167026633Y-109774829D01*
X168784062Y-109774829D01*
X169508755Y-109048842D01*
X169755722Y-108800283D01*
X169939347Y-108611231D01*
X170068944Y-108469879D01*
X170153826Y-108364423D01*
X170203307Y-108283058D01*
X170226699Y-108213980D01*
X170233317Y-108145384D01*
X170233447Y-108130296D01*
X170274951Y-107928736D01*
X170384655Y-107783301D01*
X170540348Y-107704282D01*
X170719820Y-107701970D01*
X170900860Y-107786655D01*
X170927963Y-107808514D01*
X171038980Y-107959870D01*
X171069547Y-108131810D01*
X171029755Y-108300098D01*
X170929696Y-108440497D01*
X170779463Y-108528771D01*
X170621344Y-108544860D01*
X170556792Y-108545685D01*
X170489634Y-108567325D01*
X170407342Y-108619706D01*
X170297391Y-108712752D01*
X170147250Y-108856388D01*
X169944394Y-109060538D01*
X169854391Y-109152453D01*
X169246277Y-109774829D01*
X170005277Y-109774829D01*
X171086496Y-108692732D01*
X171396930Y-108381132D01*
X171642210Y-108132129D01*
X171829855Y-107937027D01*
X171967385Y-107787130D01*
X172062319Y-107673743D01*
X172122175Y-107588169D01*
X172154474Y-107521713D01*
X172166732Y-107465679D01*
X172167715Y-107442292D01*
X172195824Y-107240034D01*
X172288356Y-107106529D01*
X172439953Y-107028681D01*
X172651613Y-106999547D01*
X172819503Y-107058451D01*
X172932926Y-107197146D01*
X172981185Y-107407388D01*
X172982144Y-107446578D01*
X172937212Y-107633851D01*
X172814618Y-107769668D01*
X172632666Y-107836551D01*
X172569522Y-107840561D01*
X172449095Y-107856684D01*
X172335813Y-107916742D01*
X172198840Y-108038262D01*
X172169125Y-108068183D01*
X172048856Y-108193804D01*
X171990963Y-108271761D01*
X171985876Y-108326417D01*
X172024026Y-108382135D01*
X172039161Y-108399045D01*
X172175228Y-108482852D01*
X172348254Y-108505806D01*
X172516280Y-108468633D01*
X172624964Y-108388912D01*
X172756989Y-108298379D01*
X172930129Y-108268786D01*
X173104224Y-108299765D01*
X173239115Y-108390950D01*
X173242087Y-108394551D01*
X173326194Y-108565134D01*
X173337569Y-108753628D01*
X173278419Y-108924205D01*
X173278419Y-108924205D01*
G37*
X173278419Y-108924205D02*
X173204338Y-109007608D01*
X173017035Y-109101993D01*
X172830594Y-109095890D01*
X172655523Y-108990158D01*
X172625832Y-108960401D01*
X172515680Y-108862236D01*
X172398444Y-108817684D01*
X172239157Y-108807695D01*
X172061957Y-108793524D01*
X171934970Y-108739377D01*
X171851043Y-108669651D01*
X171706955Y-108531607D01*
X170931428Y-109305924D01*
X170155900Y-110080240D01*
X167026633Y-110080240D01*
X167026633Y-109774829D01*
X168784062Y-109774829D01*
X169508755Y-109048842D01*
X169755722Y-108800283D01*
X169939347Y-108611231D01*
X170068944Y-108469879D01*
X170153826Y-108364423D01*
X170203307Y-108283058D01*
X170226699Y-108213980D01*
X170233317Y-108145384D01*
X170233447Y-108130296D01*
X170274951Y-107928736D01*
X170384655Y-107783301D01*
X170540348Y-107704282D01*
X170719820Y-107701970D01*
X170900860Y-107786655D01*
X170927963Y-107808514D01*
X171038980Y-107959870D01*
X171069547Y-108131810D01*
X171029755Y-108300098D01*
X170929696Y-108440497D01*
X170779463Y-108528771D01*
X170621344Y-108544860D01*
X170556792Y-108545685D01*
X170489634Y-108567325D01*
X170407342Y-108619706D01*
X170297391Y-108712752D01*
X170147250Y-108856388D01*
X169944394Y-109060538D01*
X169854391Y-109152453D01*
X169246277Y-109774829D01*
X170005277Y-109774829D01*
X171086496Y-108692732D01*
X171396930Y-108381132D01*
X171642210Y-108132129D01*
X171829855Y-107937027D01*
X171967385Y-107787130D01*
X172062319Y-107673743D01*
X172122175Y-107588169D01*
X172154474Y-107521713D01*
X172166732Y-107465679D01*
X172167715Y-107442292D01*
X172195824Y-107240034D01*
X172288356Y-107106529D01*
X172439953Y-107028681D01*
X172651613Y-106999547D01*
X172819503Y-107058451D01*
X172932926Y-107197146D01*
X172981185Y-107407388D01*
X172982144Y-107446578D01*
X172937212Y-107633851D01*
X172814618Y-107769668D01*
X172632666Y-107836551D01*
X172569522Y-107840561D01*
X172449095Y-107856684D01*
X172335813Y-107916742D01*
X172198840Y-108038262D01*
X172169125Y-108068183D01*
X172048856Y-108193804D01*
X171990963Y-108271761D01*
X171985876Y-108326417D01*
X172024026Y-108382135D01*
X172039161Y-108399045D01*
X172175228Y-108482852D01*
X172348254Y-108505806D01*
X172516280Y-108468633D01*
X172624964Y-108388912D01*
X172756989Y-108298379D01*
X172930129Y-108268786D01*
X173104224Y-108299765D01*
X173239115Y-108390950D01*
X173242087Y-108394551D01*
X173326194Y-108565134D01*
X173337569Y-108753628D01*
X173278419Y-108924205D01*
G36*
X173401033Y-114960534D02*
X173261573Y-115074296D01*
X173068248Y-115119465D01*
X173060811Y-115119519D01*
X172909216Y-115089685D01*
X172774378Y-115014972D01*
X172689769Y-114917557D01*
X172676733Y-114865010D01*
X172631349Y-114834149D01*
X172516996Y-114816071D01*
X172456548Y-114814108D01*
X172283093Y-114832748D01*
X172159267Y-114900525D01*
X172115783Y-114942459D01*
X171995203Y-115070811D01*
X172270602Y-115349674D01*
X172419478Y-115494285D01*
X172528639Y-115578370D01*
X172625661Y-115617799D01*
X172738119Y-115628440D01*
X172755200Y-115628537D01*
X172964536Y-115668867D01*
X173109388Y-115783736D01*
X173180213Y-115963961D01*
X173185751Y-116042885D01*
X173141373Y-116234610D01*
X173019230Y-116371940D01*
X172835813Y-116438954D01*
X172771404Y-116442966D01*
X172579656Y-116398592D01*
X172442516Y-116277050D01*
X172376816Y-116095705D01*
X172373550Y-116032471D01*
X172369756Y-115979481D01*
X172352041Y-115922977D01*
X172312967Y-115854572D01*
X172245097Y-115765877D01*
X172140994Y-115648506D01*
X171993221Y-115494071D01*
X171794340Y-115294183D01*
X171536914Y-115040456D01*
X171215533Y-114726480D01*
X170055291Y-113595364D01*
X169674323Y-113593914D01*
X169293355Y-113592465D01*
X169901462Y-114202160D01*
X170124165Y-114424646D01*
X170288450Y-114584503D01*
X170407602Y-114691368D01*
X170494908Y-114754876D01*
X170563655Y-114784665D01*
X170627131Y-114790368D01*
X170698622Y-114781624D01*
X170700136Y-114781382D01*
X170835187Y-114772213D01*
X170936450Y-114810193D01*
X171045643Y-114905848D01*
X171166057Y-115063401D01*
X171195207Y-115219328D01*
X171144066Y-115391471D01*
X171040092Y-115517920D01*
X170884530Y-115606243D01*
X170767916Y-115628537D01*
X170591057Y-115582208D01*
X170443753Y-115461413D01*
X170352331Y-115293437D01*
X170335250Y-115180115D01*
X170300554Y-115119300D01*
X170203641Y-114999509D01*
X170055278Y-114832741D01*
X169866231Y-114630994D01*
X169647267Y-114406269D01*
X169583833Y-114342630D01*
X168832415Y-113592465D01*
X167128437Y-113592465D01*
X167128437Y-113287054D01*
X170275951Y-113287054D01*
X171757543Y-114836946D01*
X171926876Y-114672821D01*
X172040938Y-114575062D01*
X172149571Y-114526061D01*
X172297116Y-114509706D01*
X172378582Y-114508697D01*
X172566138Y-114498410D01*
X172685139Y-114461804D01*
X172753086Y-114406894D01*
X172892781Y-114320764D01*
X173070759Y-114298443D01*
X173247642Y-114337917D01*
X173384050Y-114437177D01*
X173385664Y-114439209D01*
X173474134Y-114619837D01*
X173475572Y-114801330D01*
X173401033Y-114960534D01*
X173401033Y-114960534D01*
G37*
X173401033Y-114960534D02*
X173261573Y-115074296D01*
X173068248Y-115119465D01*
X173060811Y-115119519D01*
X172909216Y-115089685D01*
X172774378Y-115014972D01*
X172689769Y-114917557D01*
X172676733Y-114865010D01*
X172631349Y-114834149D01*
X172516996Y-114816071D01*
X172456548Y-114814108D01*
X172283093Y-114832748D01*
X172159267Y-114900525D01*
X172115783Y-114942459D01*
X171995203Y-115070811D01*
X172270602Y-115349674D01*
X172419478Y-115494285D01*
X172528639Y-115578370D01*
X172625661Y-115617799D01*
X172738119Y-115628440D01*
X172755200Y-115628537D01*
X172964536Y-115668867D01*
X173109388Y-115783736D01*
X173180213Y-115963961D01*
X173185751Y-116042885D01*
X173141373Y-116234610D01*
X173019230Y-116371940D01*
X172835813Y-116438954D01*
X172771404Y-116442966D01*
X172579656Y-116398592D01*
X172442516Y-116277050D01*
X172376816Y-116095705D01*
X172373550Y-116032471D01*
X172369756Y-115979481D01*
X172352041Y-115922977D01*
X172312967Y-115854572D01*
X172245097Y-115765877D01*
X172140994Y-115648506D01*
X171993221Y-115494071D01*
X171794340Y-115294183D01*
X171536914Y-115040456D01*
X171215533Y-114726480D01*
X170055291Y-113595364D01*
X169674323Y-113593914D01*
X169293355Y-113592465D01*
X169901462Y-114202160D01*
X170124165Y-114424646D01*
X170288450Y-114584503D01*
X170407602Y-114691368D01*
X170494908Y-114754876D01*
X170563655Y-114784665D01*
X170627131Y-114790368D01*
X170698622Y-114781624D01*
X170700136Y-114781382D01*
X170835187Y-114772213D01*
X170936450Y-114810193D01*
X171045643Y-114905848D01*
X171166057Y-115063401D01*
X171195207Y-115219328D01*
X171144066Y-115391471D01*
X171040092Y-115517920D01*
X170884530Y-115606243D01*
X170767916Y-115628537D01*
X170591057Y-115582208D01*
X170443753Y-115461413D01*
X170352331Y-115293437D01*
X170335250Y-115180115D01*
X170300554Y-115119300D01*
X170203641Y-114999509D01*
X170055278Y-114832741D01*
X169866231Y-114630994D01*
X169647267Y-114406269D01*
X169583833Y-114342630D01*
X168832415Y-113592465D01*
X167128437Y-113592465D01*
X167128437Y-113287054D01*
X170275951Y-113287054D01*
X171757543Y-114836946D01*
X171926876Y-114672821D01*
X172040938Y-114575062D01*
X172149571Y-114526061D01*
X172297116Y-114509706D01*
X172378582Y-114508697D01*
X172566138Y-114498410D01*
X172685139Y-114461804D01*
X172753086Y-114406894D01*
X172892781Y-114320764D01*
X173070759Y-114298443D01*
X173247642Y-114337917D01*
X173384050Y-114437177D01*
X173385664Y-114439209D01*
X173474134Y-114619837D01*
X173475572Y-114801330D01*
X173401033Y-114960534D01*
G04 #@! TO.C,J1*
D15*
X67915971Y-101485700D02*
X68351400Y-101485700D01*
X68438485Y-101514728D01*
X68496542Y-101572785D01*
X68525571Y-101659871D01*
X68525571Y-101717928D01*
X68525571Y-100876100D02*
X68525571Y-101224442D01*
X68525571Y-101050271D02*
X67915971Y-101050271D01*
X68003057Y-101108328D01*
X68061114Y-101166385D01*
X68090142Y-101224442D01*
G04 #@! TO.C,J4*
X67946451Y-118953280D02*
X68381880Y-118953280D01*
X68468965Y-118982308D01*
X68527022Y-119040365D01*
X68556051Y-119127451D01*
X68556051Y-119185508D01*
X68149651Y-118401737D02*
X68556051Y-118401737D01*
X67917422Y-118546880D02*
X68352851Y-118692022D01*
X68352851Y-118314651D01*
G04 #@! TO.C,AE1*
X152949728Y-116549714D02*
X153559328Y-116549714D01*
X153559328Y-116781942D01*
X153530300Y-116840000D01*
X153501271Y-116869028D01*
X153443214Y-116898057D01*
X153356128Y-116898057D01*
X153298071Y-116869028D01*
X153269042Y-116840000D01*
X153240014Y-116781942D01*
X153240014Y-116549714D01*
X153007785Y-117507657D02*
X152978757Y-117478628D01*
X152949728Y-117391542D01*
X152949728Y-117333485D01*
X152978757Y-117246400D01*
X153036814Y-117188342D01*
X153094871Y-117159314D01*
X153210985Y-117130285D01*
X153298071Y-117130285D01*
X153414185Y-117159314D01*
X153472242Y-117188342D01*
X153530300Y-117246400D01*
X153559328Y-117333485D01*
X153559328Y-117391542D01*
X153530300Y-117478628D01*
X153501271Y-117507657D01*
X153269042Y-117972114D02*
X153240014Y-118059200D01*
X153210985Y-118088228D01*
X153152928Y-118117257D01*
X153065842Y-118117257D01*
X153007785Y-118088228D01*
X152978757Y-118059200D01*
X152949728Y-118001142D01*
X152949728Y-117768914D01*
X153559328Y-117768914D01*
X153559328Y-117972114D01*
X153530300Y-118030171D01*
X153501271Y-118059200D01*
X153443214Y-118088228D01*
X153385157Y-118088228D01*
X153327100Y-118059200D01*
X153298071Y-118030171D01*
X153269042Y-117972114D01*
X153269042Y-117768914D01*
X152891671Y-118233371D02*
X152891671Y-118697828D01*
X153123900Y-118813942D02*
X153123900Y-119104228D01*
X152949728Y-118755885D02*
X153559328Y-118959085D01*
X152949728Y-119162285D01*
X152949728Y-119365485D02*
X153559328Y-119365485D01*
X152949728Y-119713828D01*
X153559328Y-119713828D01*
X153559328Y-119917028D02*
X153559328Y-120265371D01*
X152949728Y-120091200D02*
X153559328Y-120091200D01*
G04 #@! TO.C,C1*
X107315000Y-86430394D02*
X107285971Y-86459422D01*
X107198885Y-86488451D01*
X107140828Y-86488451D01*
X107053742Y-86459422D01*
X106995685Y-86401365D01*
X106966657Y-86343308D01*
X106937628Y-86227194D01*
X106937628Y-86140108D01*
X106966657Y-86023994D01*
X106995685Y-85965937D01*
X107053742Y-85907880D01*
X107140828Y-85878851D01*
X107198885Y-85878851D01*
X107285971Y-85907880D01*
X107315000Y-85936908D01*
X107895571Y-86488451D02*
X107547228Y-86488451D01*
X107721400Y-86488451D02*
X107721400Y-85878851D01*
X107663342Y-85965937D01*
X107605285Y-86023994D01*
X107547228Y-86053022D01*
G04 #@! TO.C,C2*
X113681040Y-79552074D02*
X113652011Y-79581102D01*
X113564925Y-79610131D01*
X113506868Y-79610131D01*
X113419782Y-79581102D01*
X113361725Y-79523045D01*
X113332697Y-79464988D01*
X113303668Y-79348874D01*
X113303668Y-79261788D01*
X113332697Y-79145674D01*
X113361725Y-79087617D01*
X113419782Y-79029560D01*
X113506868Y-79000531D01*
X113564925Y-79000531D01*
X113652011Y-79029560D01*
X113681040Y-79058588D01*
X113913268Y-79058588D02*
X113942297Y-79029560D01*
X114000354Y-79000531D01*
X114145497Y-79000531D01*
X114203554Y-79029560D01*
X114232582Y-79058588D01*
X114261611Y-79116645D01*
X114261611Y-79174702D01*
X114232582Y-79261788D01*
X113884240Y-79610131D01*
X114261611Y-79610131D01*
G04 #@! TO.C,C3*
X123126065Y-96723200D02*
X123097037Y-96694171D01*
X123068008Y-96607085D01*
X123068008Y-96549028D01*
X123097037Y-96461942D01*
X123155094Y-96403885D01*
X123213151Y-96374857D01*
X123329265Y-96345828D01*
X123416351Y-96345828D01*
X123532465Y-96374857D01*
X123590522Y-96403885D01*
X123648580Y-96461942D01*
X123677608Y-96549028D01*
X123677608Y-96607085D01*
X123648580Y-96694171D01*
X123619551Y-96723200D01*
X123677608Y-96926400D02*
X123677608Y-97303771D01*
X123445380Y-97100571D01*
X123445380Y-97187657D01*
X123416351Y-97245714D01*
X123387322Y-97274742D01*
X123329265Y-97303771D01*
X123184122Y-97303771D01*
X123126065Y-97274742D01*
X123097037Y-97245714D01*
X123068008Y-97187657D01*
X123068008Y-97013485D01*
X123097037Y-96955428D01*
X123126065Y-96926400D01*
G04 #@! TO.C,C4*
X128247494Y-102692200D02*
X128276522Y-102721228D01*
X128305551Y-102808314D01*
X128305551Y-102866371D01*
X128276522Y-102953457D01*
X128218465Y-103011514D01*
X128160408Y-103040542D01*
X128044294Y-103069571D01*
X127957208Y-103069571D01*
X127841094Y-103040542D01*
X127783037Y-103011514D01*
X127724980Y-102953457D01*
X127695951Y-102866371D01*
X127695951Y-102808314D01*
X127724980Y-102721228D01*
X127754008Y-102692200D01*
X127899151Y-102169685D02*
X128305551Y-102169685D01*
X127666922Y-102314828D02*
X128102351Y-102459971D01*
X128102351Y-102082600D01*
X127046322Y-107128228D02*
X127046322Y-106663771D01*
X127278551Y-106896000D02*
X126814094Y-106896000D01*
G04 #@! TO.C,C5*
X99280254Y-83068160D02*
X99309282Y-83097188D01*
X99338311Y-83184274D01*
X99338311Y-83242331D01*
X99309282Y-83329417D01*
X99251225Y-83387474D01*
X99193168Y-83416502D01*
X99077054Y-83445531D01*
X98989968Y-83445531D01*
X98873854Y-83416502D01*
X98815797Y-83387474D01*
X98757740Y-83329417D01*
X98728711Y-83242331D01*
X98728711Y-83184274D01*
X98757740Y-83097188D01*
X98786768Y-83068160D01*
X98728711Y-82516617D02*
X98728711Y-82806902D01*
X99018997Y-82835931D01*
X98989968Y-82806902D01*
X98960940Y-82748845D01*
X98960940Y-82603702D01*
X98989968Y-82545645D01*
X99018997Y-82516617D01*
X99077054Y-82487588D01*
X99222197Y-82487588D01*
X99280254Y-82516617D01*
X99309282Y-82545645D01*
X99338311Y-82603702D01*
X99338311Y-82748845D01*
X99309282Y-82806902D01*
X99280254Y-82835931D01*
G04 #@! TO.C,C6*
X122029220Y-114227382D02*
X122000191Y-114256410D01*
X121913105Y-114285439D01*
X121855048Y-114285439D01*
X121767962Y-114256410D01*
X121709905Y-114198353D01*
X121680877Y-114140296D01*
X121651848Y-114024182D01*
X121651848Y-113937096D01*
X121680877Y-113820982D01*
X121709905Y-113762925D01*
X121767962Y-113704868D01*
X121855048Y-113675839D01*
X121913105Y-113675839D01*
X122000191Y-113704868D01*
X122029220Y-113733896D01*
X122551734Y-113675839D02*
X122435620Y-113675839D01*
X122377562Y-113704868D01*
X122348534Y-113733896D01*
X122290477Y-113820982D01*
X122261448Y-113937096D01*
X122261448Y-114169325D01*
X122290477Y-114227382D01*
X122319505Y-114256410D01*
X122377562Y-114285439D01*
X122493677Y-114285439D01*
X122551734Y-114256410D01*
X122580762Y-114227382D01*
X122609791Y-114169325D01*
X122609791Y-114024182D01*
X122580762Y-113966125D01*
X122551734Y-113937096D01*
X122493677Y-113908068D01*
X122377562Y-113908068D01*
X122319505Y-113937096D01*
X122290477Y-113966125D01*
X122261448Y-114024182D01*
G04 #@! TO.C,C7*
X112905540Y-108584274D02*
X112876511Y-108613302D01*
X112789425Y-108642331D01*
X112731368Y-108642331D01*
X112644282Y-108613302D01*
X112586225Y-108555245D01*
X112557197Y-108497188D01*
X112528168Y-108381074D01*
X112528168Y-108293988D01*
X112557197Y-108177874D01*
X112586225Y-108119817D01*
X112644282Y-108061760D01*
X112731368Y-108032731D01*
X112789425Y-108032731D01*
X112876511Y-108061760D01*
X112905540Y-108090788D01*
X113108740Y-108032731D02*
X113515140Y-108032731D01*
X113253882Y-108642331D01*
G04 #@! TO.C,C8*
X115120920Y-108557034D02*
X115091891Y-108586062D01*
X115004805Y-108615091D01*
X114946748Y-108615091D01*
X114859662Y-108586062D01*
X114801605Y-108528005D01*
X114772577Y-108469948D01*
X114743548Y-108353834D01*
X114743548Y-108266748D01*
X114772577Y-108150634D01*
X114801605Y-108092577D01*
X114859662Y-108034520D01*
X114946748Y-108005491D01*
X115004805Y-108005491D01*
X115091891Y-108034520D01*
X115120920Y-108063548D01*
X115469262Y-108266748D02*
X115411205Y-108237720D01*
X115382177Y-108208691D01*
X115353148Y-108150634D01*
X115353148Y-108121605D01*
X115382177Y-108063548D01*
X115411205Y-108034520D01*
X115469262Y-108005491D01*
X115585377Y-108005491D01*
X115643434Y-108034520D01*
X115672462Y-108063548D01*
X115701491Y-108121605D01*
X115701491Y-108150634D01*
X115672462Y-108208691D01*
X115643434Y-108237720D01*
X115585377Y-108266748D01*
X115469262Y-108266748D01*
X115411205Y-108295777D01*
X115382177Y-108324805D01*
X115353148Y-108382862D01*
X115353148Y-108498977D01*
X115382177Y-108557034D01*
X115411205Y-108586062D01*
X115469262Y-108615091D01*
X115585377Y-108615091D01*
X115643434Y-108586062D01*
X115672462Y-108557034D01*
X115701491Y-108498977D01*
X115701491Y-108382862D01*
X115672462Y-108324805D01*
X115643434Y-108295777D01*
X115585377Y-108266748D01*
G04 #@! TO.C,C9*
X101937820Y-112053914D02*
X101908791Y-112082942D01*
X101821705Y-112111971D01*
X101763648Y-112111971D01*
X101676562Y-112082942D01*
X101618505Y-112024885D01*
X101589477Y-111966828D01*
X101560448Y-111850714D01*
X101560448Y-111763628D01*
X101589477Y-111647514D01*
X101618505Y-111589457D01*
X101676562Y-111531400D01*
X101763648Y-111502371D01*
X101821705Y-111502371D01*
X101908791Y-111531400D01*
X101937820Y-111560428D01*
X102228105Y-112111971D02*
X102344220Y-112111971D01*
X102402277Y-112082942D01*
X102431305Y-112053914D01*
X102489362Y-111966828D01*
X102518391Y-111850714D01*
X102518391Y-111618485D01*
X102489362Y-111560428D01*
X102460334Y-111531400D01*
X102402277Y-111502371D01*
X102286162Y-111502371D01*
X102228105Y-111531400D01*
X102199077Y-111560428D01*
X102170048Y-111618485D01*
X102170048Y-111763628D01*
X102199077Y-111821685D01*
X102228105Y-111850714D01*
X102286162Y-111879742D01*
X102402277Y-111879742D01*
X102460334Y-111850714D01*
X102489362Y-111821685D01*
X102518391Y-111763628D01*
G04 #@! TO.C,C10*
X99959134Y-115173394D02*
X99930105Y-115202422D01*
X99843020Y-115231451D01*
X99784962Y-115231451D01*
X99697877Y-115202422D01*
X99639820Y-115144365D01*
X99610791Y-115086308D01*
X99581762Y-114970194D01*
X99581762Y-114883108D01*
X99610791Y-114766994D01*
X99639820Y-114708937D01*
X99697877Y-114650880D01*
X99784962Y-114621851D01*
X99843020Y-114621851D01*
X99930105Y-114650880D01*
X99959134Y-114679908D01*
X100539705Y-115231451D02*
X100191362Y-115231451D01*
X100365534Y-115231451D02*
X100365534Y-114621851D01*
X100307477Y-114708937D01*
X100249420Y-114766994D01*
X100191362Y-114796022D01*
X100917077Y-114621851D02*
X100975134Y-114621851D01*
X101033191Y-114650880D01*
X101062220Y-114679908D01*
X101091248Y-114737965D01*
X101120277Y-114854080D01*
X101120277Y-114999222D01*
X101091248Y-115115337D01*
X101062220Y-115173394D01*
X101033191Y-115202422D01*
X100975134Y-115231451D01*
X100917077Y-115231451D01*
X100859020Y-115202422D01*
X100829991Y-115173394D01*
X100800962Y-115115337D01*
X100771934Y-114999222D01*
X100771934Y-114854080D01*
X100800962Y-114737965D01*
X100829991Y-114679908D01*
X100859020Y-114650880D01*
X100917077Y-114621851D01*
G04 #@! TO.C,C11*
X130585754Y-124364205D02*
X130614782Y-124393234D01*
X130643811Y-124480320D01*
X130643811Y-124538377D01*
X130614782Y-124625462D01*
X130556725Y-124683520D01*
X130498668Y-124712548D01*
X130382554Y-124741577D01*
X130295468Y-124741577D01*
X130179354Y-124712548D01*
X130121297Y-124683520D01*
X130063240Y-124625462D01*
X130034211Y-124538377D01*
X130034211Y-124480320D01*
X130063240Y-124393234D01*
X130092268Y-124364205D01*
X130643811Y-123783634D02*
X130643811Y-124131977D01*
X130643811Y-123957805D02*
X130034211Y-123957805D01*
X130121297Y-124015862D01*
X130179354Y-124073920D01*
X130208382Y-124131977D01*
X130643811Y-123203062D02*
X130643811Y-123551405D01*
X130643811Y-123377234D02*
X130034211Y-123377234D01*
X130121297Y-123435291D01*
X130179354Y-123493348D01*
X130208382Y-123551405D01*
G04 #@! TO.C,C12*
X127446314Y-124435325D02*
X127475342Y-124464354D01*
X127504371Y-124551440D01*
X127504371Y-124609497D01*
X127475342Y-124696582D01*
X127417285Y-124754640D01*
X127359228Y-124783668D01*
X127243114Y-124812697D01*
X127156028Y-124812697D01*
X127039914Y-124783668D01*
X126981857Y-124754640D01*
X126923800Y-124696582D01*
X126894771Y-124609497D01*
X126894771Y-124551440D01*
X126923800Y-124464354D01*
X126952828Y-124435325D01*
X127504371Y-123854754D02*
X127504371Y-124203097D01*
X127504371Y-124028925D02*
X126894771Y-124028925D01*
X126981857Y-124086982D01*
X127039914Y-124145040D01*
X127068942Y-124203097D01*
X126952828Y-123622525D02*
X126923800Y-123593497D01*
X126894771Y-123535440D01*
X126894771Y-123390297D01*
X126923800Y-123332240D01*
X126952828Y-123303211D01*
X127010885Y-123274182D01*
X127068942Y-123274182D01*
X127156028Y-123303211D01*
X127504371Y-123651554D01*
X127504371Y-123274182D01*
G04 #@! TO.C,C13*
X112058994Y-136235505D02*
X112088022Y-136264534D01*
X112117051Y-136351620D01*
X112117051Y-136409677D01*
X112088022Y-136496762D01*
X112029965Y-136554820D01*
X111971908Y-136583848D01*
X111855794Y-136612877D01*
X111768708Y-136612877D01*
X111652594Y-136583848D01*
X111594537Y-136554820D01*
X111536480Y-136496762D01*
X111507451Y-136409677D01*
X111507451Y-136351620D01*
X111536480Y-136264534D01*
X111565508Y-136235505D01*
X112117051Y-135654934D02*
X112117051Y-136003277D01*
X112117051Y-135829105D02*
X111507451Y-135829105D01*
X111594537Y-135887162D01*
X111652594Y-135945220D01*
X111681622Y-136003277D01*
X111507451Y-135451734D02*
X111507451Y-135074362D01*
X111739680Y-135277562D01*
X111739680Y-135190477D01*
X111768708Y-135132420D01*
X111797737Y-135103391D01*
X111855794Y-135074362D01*
X112000937Y-135074362D01*
X112058994Y-135103391D01*
X112088022Y-135132420D01*
X112117051Y-135190477D01*
X112117051Y-135364648D01*
X112088022Y-135422705D01*
X112058994Y-135451734D01*
G04 #@! TO.C,C23*
X112282514Y-81441834D02*
X112253485Y-81470862D01*
X112166400Y-81499891D01*
X112108342Y-81499891D01*
X112021257Y-81470862D01*
X111963200Y-81412805D01*
X111934171Y-81354748D01*
X111905142Y-81238634D01*
X111905142Y-81151548D01*
X111934171Y-81035434D01*
X111963200Y-80977377D01*
X112021257Y-80919320D01*
X112108342Y-80890291D01*
X112166400Y-80890291D01*
X112253485Y-80919320D01*
X112282514Y-80948348D01*
X112514742Y-80948348D02*
X112543771Y-80919320D01*
X112601828Y-80890291D01*
X112746971Y-80890291D01*
X112805028Y-80919320D01*
X112834057Y-80948348D01*
X112863085Y-81006405D01*
X112863085Y-81064462D01*
X112834057Y-81151548D01*
X112485714Y-81499891D01*
X112863085Y-81499891D01*
X113066285Y-80890291D02*
X113443657Y-80890291D01*
X113240457Y-81122520D01*
X113327542Y-81122520D01*
X113385600Y-81151548D01*
X113414628Y-81180577D01*
X113443657Y-81238634D01*
X113443657Y-81383777D01*
X113414628Y-81441834D01*
X113385600Y-81470862D01*
X113327542Y-81499891D01*
X113153371Y-81499891D01*
X113095314Y-81470862D01*
X113066285Y-81441834D01*
G04 #@! TO.C,D1*
X107423857Y-78243611D02*
X107423857Y-77634011D01*
X107569000Y-77634011D01*
X107656085Y-77663040D01*
X107714142Y-77721097D01*
X107743171Y-77779154D01*
X107772200Y-77895268D01*
X107772200Y-77982354D01*
X107743171Y-78098468D01*
X107714142Y-78156525D01*
X107656085Y-78214582D01*
X107569000Y-78243611D01*
X107423857Y-78243611D01*
X108352771Y-78243611D02*
X108004428Y-78243611D01*
X108178600Y-78243611D02*
X108178600Y-77634011D01*
X108120542Y-77721097D01*
X108062485Y-77779154D01*
X108004428Y-77808182D01*
G04 #@! TO.C,D2*
X107456877Y-108809971D02*
X107456877Y-108200371D01*
X107602020Y-108200371D01*
X107689105Y-108229400D01*
X107747162Y-108287457D01*
X107776191Y-108345514D01*
X107805220Y-108461628D01*
X107805220Y-108548714D01*
X107776191Y-108664828D01*
X107747162Y-108722885D01*
X107689105Y-108780942D01*
X107602020Y-108809971D01*
X107456877Y-108809971D01*
X108037448Y-108258428D02*
X108066477Y-108229400D01*
X108124534Y-108200371D01*
X108269677Y-108200371D01*
X108327734Y-108229400D01*
X108356762Y-108258428D01*
X108385791Y-108316485D01*
X108385791Y-108374542D01*
X108356762Y-108461628D01*
X108008420Y-108809971D01*
X108385791Y-108809971D01*
G04 #@! TO.C,F1*
X120098457Y-93433900D02*
X120098457Y-93637100D01*
X120417771Y-93637100D02*
X119808171Y-93637100D01*
X119808171Y-93346814D01*
X120417771Y-92795271D02*
X120417771Y-93143614D01*
X120417771Y-92969442D02*
X119808171Y-92969442D01*
X119895257Y-93027500D01*
X119953314Y-93085557D01*
X119982342Y-93143614D01*
X123110171Y-94333785D02*
X123110171Y-94624071D01*
X123400457Y-94653100D01*
X123371428Y-94624071D01*
X123342400Y-94566014D01*
X123342400Y-94420871D01*
X123371428Y-94362814D01*
X123400457Y-94333785D01*
X123458514Y-94304757D01*
X123603657Y-94304757D01*
X123661714Y-94333785D01*
X123690742Y-94362814D01*
X123719771Y-94420871D01*
X123719771Y-94566014D01*
X123690742Y-94624071D01*
X123661714Y-94653100D01*
X123110171Y-93927385D02*
X123110171Y-93869328D01*
X123139200Y-93811271D01*
X123168228Y-93782242D01*
X123226285Y-93753214D01*
X123342400Y-93724185D01*
X123487542Y-93724185D01*
X123603657Y-93753214D01*
X123661714Y-93782242D01*
X123690742Y-93811271D01*
X123719771Y-93869328D01*
X123719771Y-93927385D01*
X123690742Y-93985442D01*
X123661714Y-94014471D01*
X123603657Y-94043500D01*
X123487542Y-94072528D01*
X123342400Y-94072528D01*
X123226285Y-94043500D01*
X123168228Y-94014471D01*
X123139200Y-93985442D01*
X123110171Y-93927385D01*
X123110171Y-93346814D02*
X123110171Y-93288757D01*
X123139200Y-93230700D01*
X123168228Y-93201671D01*
X123226285Y-93172642D01*
X123342400Y-93143614D01*
X123487542Y-93143614D01*
X123603657Y-93172642D01*
X123661714Y-93201671D01*
X123690742Y-93230700D01*
X123719771Y-93288757D01*
X123719771Y-93346814D01*
X123690742Y-93404871D01*
X123661714Y-93433900D01*
X123603657Y-93462928D01*
X123487542Y-93491957D01*
X123342400Y-93491957D01*
X123226285Y-93462928D01*
X123168228Y-93433900D01*
X123139200Y-93404871D01*
X123110171Y-93346814D01*
X123719771Y-92882357D02*
X123313371Y-92882357D01*
X123371428Y-92882357D02*
X123342400Y-92853328D01*
X123313371Y-92795271D01*
X123313371Y-92708185D01*
X123342400Y-92650128D01*
X123400457Y-92621100D01*
X123719771Y-92621100D01*
X123400457Y-92621100D02*
X123342400Y-92592071D01*
X123313371Y-92534014D01*
X123313371Y-92446928D01*
X123342400Y-92388871D01*
X123400457Y-92359842D01*
X123719771Y-92359842D01*
X123545600Y-92098585D02*
X123545600Y-91808300D01*
X123719771Y-92156642D02*
X123110171Y-91953442D01*
X123719771Y-91750242D01*
G04 #@! TO.C,J2*
X94802960Y-77653491D02*
X94802960Y-78088920D01*
X94773931Y-78176005D01*
X94715874Y-78234062D01*
X94628788Y-78263091D01*
X94570731Y-78263091D01*
X95064217Y-77711548D02*
X95093245Y-77682520D01*
X95151302Y-77653491D01*
X95296445Y-77653491D01*
X95354502Y-77682520D01*
X95383531Y-77711548D01*
X95412560Y-77769605D01*
X95412560Y-77827662D01*
X95383531Y-77914748D01*
X95035188Y-78263091D01*
X95412560Y-78263091D01*
G04 #@! TO.C,J3*
X116794011Y-142300960D02*
X117229440Y-142300960D01*
X117316525Y-142329988D01*
X117374582Y-142388045D01*
X117403611Y-142475131D01*
X117403611Y-142533188D01*
X116794011Y-142068731D02*
X116794011Y-141691360D01*
X117026240Y-141894560D01*
X117026240Y-141807474D01*
X117055268Y-141749417D01*
X117084297Y-141720388D01*
X117142354Y-141691360D01*
X117287497Y-141691360D01*
X117345554Y-141720388D01*
X117374582Y-141749417D01*
X117403611Y-141807474D01*
X117403611Y-141981645D01*
X117374582Y-142039702D01*
X117345554Y-142068731D01*
G04 #@! TO.C,J$1*
X131890318Y-121039661D02*
X131890318Y-121446061D01*
X131629061Y-121039661D02*
X131629061Y-121358975D01*
X131658090Y-121417032D01*
X131716147Y-121446061D01*
X131803232Y-121446061D01*
X131861290Y-121417032D01*
X131890318Y-121388004D01*
X132383804Y-121126747D02*
X132180604Y-121126747D01*
X132180604Y-121446061D02*
X132180604Y-120836461D01*
X132470890Y-120836461D01*
X132993404Y-121446061D02*
X132703118Y-121446061D01*
X132703118Y-120836461D01*
G04 #@! TO.C,JP1*
X103972360Y-86183651D02*
X103972360Y-86619080D01*
X103943331Y-86706165D01*
X103885274Y-86764222D01*
X103798188Y-86793251D01*
X103740131Y-86793251D01*
X104262645Y-86793251D02*
X104262645Y-86183651D01*
X104494874Y-86183651D01*
X104552931Y-86212680D01*
X104581960Y-86241708D01*
X104610988Y-86299765D01*
X104610988Y-86386851D01*
X104581960Y-86444908D01*
X104552931Y-86473937D01*
X104494874Y-86502965D01*
X104262645Y-86502965D01*
X105191560Y-86793251D02*
X104843217Y-86793251D01*
X105017388Y-86793251D02*
X105017388Y-86183651D01*
X104959331Y-86270737D01*
X104901274Y-86328794D01*
X104843217Y-86357822D01*
X103928817Y-82956037D02*
X104015902Y-82985065D01*
X104044931Y-83014094D01*
X104073960Y-83072151D01*
X104073960Y-83159237D01*
X104044931Y-83217294D01*
X104015902Y-83246322D01*
X103957845Y-83275351D01*
X103725617Y-83275351D01*
X103725617Y-82665751D01*
X103928817Y-82665751D01*
X103986874Y-82694780D01*
X104015902Y-82723808D01*
X104044931Y-82781865D01*
X104044931Y-82839922D01*
X104015902Y-82897980D01*
X103986874Y-82927008D01*
X103928817Y-82956037D01*
X103725617Y-82956037D01*
X104306188Y-83101180D02*
X104596474Y-83101180D01*
X104248131Y-83275351D02*
X104451331Y-82665751D01*
X104654531Y-83275351D01*
X104770645Y-82665751D02*
X105118988Y-82665751D01*
X104944817Y-83275351D02*
X104944817Y-82665751D01*
G04 #@! TO.C,L1*
X128798320Y-122856171D02*
X128508034Y-122856171D01*
X128508034Y-122246571D01*
X129320834Y-122856171D02*
X128972491Y-122856171D01*
X129146662Y-122856171D02*
X129146662Y-122246571D01*
X129088605Y-122333657D01*
X129030548Y-122391714D01*
X128972491Y-122420742D01*
G04 #@! TO.C,Q1*
X102415702Y-78001308D02*
X102357645Y-77972280D01*
X102299588Y-77914222D01*
X102212502Y-77827137D01*
X102154445Y-77798108D01*
X102096388Y-77798108D01*
X102125417Y-77943251D02*
X102067360Y-77914222D01*
X102009302Y-77856165D01*
X101980274Y-77740051D01*
X101980274Y-77536851D01*
X102009302Y-77420737D01*
X102067360Y-77362680D01*
X102125417Y-77333651D01*
X102241531Y-77333651D01*
X102299588Y-77362680D01*
X102357645Y-77420737D01*
X102386674Y-77536851D01*
X102386674Y-77740051D01*
X102357645Y-77856165D01*
X102299588Y-77914222D01*
X102241531Y-77943251D01*
X102125417Y-77943251D01*
X102967245Y-77943251D02*
X102618902Y-77943251D01*
X102793074Y-77943251D02*
X102793074Y-77333651D01*
X102735017Y-77420737D01*
X102676960Y-77478794D01*
X102618902Y-77507822D01*
G04 #@! TO.C,R1*
X113893600Y-86447811D02*
X113690400Y-86157525D01*
X113545257Y-86447811D02*
X113545257Y-85838211D01*
X113777485Y-85838211D01*
X113835542Y-85867240D01*
X113864571Y-85896268D01*
X113893600Y-85954325D01*
X113893600Y-86041411D01*
X113864571Y-86099468D01*
X113835542Y-86128497D01*
X113777485Y-86157525D01*
X113545257Y-86157525D01*
X114474171Y-86447811D02*
X114125828Y-86447811D01*
X114300000Y-86447811D02*
X114300000Y-85838211D01*
X114241942Y-85925297D01*
X114183885Y-85983354D01*
X114125828Y-86012382D01*
G04 #@! TO.C,R2*
X99409431Y-79065120D02*
X99119145Y-79268320D01*
X99409431Y-79413462D02*
X98799831Y-79413462D01*
X98799831Y-79181234D01*
X98828860Y-79123177D01*
X98857888Y-79094148D01*
X98915945Y-79065120D01*
X99003031Y-79065120D01*
X99061088Y-79094148D01*
X99090117Y-79123177D01*
X99119145Y-79181234D01*
X99119145Y-79413462D01*
X98857888Y-78832891D02*
X98828860Y-78803862D01*
X98799831Y-78745805D01*
X98799831Y-78600662D01*
X98828860Y-78542605D01*
X98857888Y-78513577D01*
X98915945Y-78484548D01*
X98974002Y-78484548D01*
X99061088Y-78513577D01*
X99409431Y-78861920D01*
X99409431Y-78484548D01*
G04 #@! TO.C,R3*
X102614911Y-83500660D02*
X102324625Y-83703860D01*
X102614911Y-83849002D02*
X102005311Y-83849002D01*
X102005311Y-83616774D01*
X102034340Y-83558717D01*
X102063368Y-83529688D01*
X102121425Y-83500660D01*
X102208511Y-83500660D01*
X102266568Y-83529688D01*
X102295597Y-83558717D01*
X102324625Y-83616774D01*
X102324625Y-83849002D01*
X102005311Y-83297460D02*
X102005311Y-82920088D01*
X102237540Y-83123288D01*
X102237540Y-83036202D01*
X102266568Y-82978145D01*
X102295597Y-82949117D01*
X102353654Y-82920088D01*
X102498797Y-82920088D01*
X102556854Y-82949117D01*
X102585882Y-82978145D01*
X102614911Y-83036202D01*
X102614911Y-83210374D01*
X102585882Y-83268431D01*
X102556854Y-83297460D01*
G04 #@! TO.C,R4*
X100946611Y-83507860D02*
X100656325Y-83711060D01*
X100946611Y-83856202D02*
X100337011Y-83856202D01*
X100337011Y-83623974D01*
X100366040Y-83565917D01*
X100395068Y-83536888D01*
X100453125Y-83507860D01*
X100540211Y-83507860D01*
X100598268Y-83536888D01*
X100627297Y-83565917D01*
X100656325Y-83623974D01*
X100656325Y-83856202D01*
X100540211Y-82985345D02*
X100946611Y-82985345D01*
X100307982Y-83130488D02*
X100743411Y-83275631D01*
X100743411Y-82898260D01*
G04 #@! TO.C,R5*
X121937780Y-108255479D02*
X121734580Y-107965193D01*
X121589437Y-108255479D02*
X121589437Y-107645879D01*
X121821665Y-107645879D01*
X121879722Y-107674908D01*
X121908751Y-107703936D01*
X121937780Y-107761993D01*
X121937780Y-107849079D01*
X121908751Y-107907136D01*
X121879722Y-107936165D01*
X121821665Y-107965193D01*
X121589437Y-107965193D01*
X122489322Y-107645879D02*
X122199037Y-107645879D01*
X122170008Y-107936165D01*
X122199037Y-107907136D01*
X122257094Y-107878108D01*
X122402237Y-107878108D01*
X122460294Y-107907136D01*
X122489322Y-107936165D01*
X122518351Y-107994222D01*
X122518351Y-108139365D01*
X122489322Y-108197422D01*
X122460294Y-108226450D01*
X122402237Y-108255479D01*
X122257094Y-108255479D01*
X122199037Y-108226450D01*
X122170008Y-108197422D01*
G04 #@! TO.C,R6*
X109872961Y-113233926D02*
X109582675Y-113437126D01*
X109872961Y-113582268D02*
X109263361Y-113582268D01*
X109263361Y-113350040D01*
X109292390Y-113291983D01*
X109321418Y-113262954D01*
X109379475Y-113233926D01*
X109466561Y-113233926D01*
X109524618Y-113262954D01*
X109553647Y-113291983D01*
X109582675Y-113350040D01*
X109582675Y-113582268D01*
X109263361Y-112711411D02*
X109263361Y-112827526D01*
X109292390Y-112885583D01*
X109321418Y-112914611D01*
X109408504Y-112972668D01*
X109524618Y-113001697D01*
X109756847Y-113001697D01*
X109814904Y-112972668D01*
X109843932Y-112943640D01*
X109872961Y-112885583D01*
X109872961Y-112769468D01*
X109843932Y-112711411D01*
X109814904Y-112682383D01*
X109756847Y-112653354D01*
X109611704Y-112653354D01*
X109553647Y-112682383D01*
X109524618Y-112711411D01*
X109495590Y-112769468D01*
X109495590Y-112885583D01*
X109524618Y-112943640D01*
X109553647Y-112972668D01*
X109611704Y-113001697D01*
G04 #@! TO.C,R7*
X113868597Y-135293100D02*
X113578311Y-135496300D01*
X113868597Y-135641442D02*
X113258997Y-135641442D01*
X113258997Y-135409214D01*
X113288026Y-135351157D01*
X113317054Y-135322128D01*
X113375111Y-135293100D01*
X113462197Y-135293100D01*
X113520254Y-135322128D01*
X113549283Y-135351157D01*
X113578311Y-135409214D01*
X113578311Y-135641442D01*
X113258997Y-135089900D02*
X113258997Y-134683500D01*
X113868597Y-134944757D01*
G04 #@! TO.C,R8*
X111438871Y-113233926D02*
X111148585Y-113437126D01*
X111438871Y-113582268D02*
X110829271Y-113582268D01*
X110829271Y-113350040D01*
X110858300Y-113291983D01*
X110887328Y-113262954D01*
X110945385Y-113233926D01*
X111032471Y-113233926D01*
X111090528Y-113262954D01*
X111119557Y-113291983D01*
X111148585Y-113350040D01*
X111148585Y-113582268D01*
X111090528Y-112885583D02*
X111061500Y-112943640D01*
X111032471Y-112972668D01*
X110974414Y-113001697D01*
X110945385Y-113001697D01*
X110887328Y-112972668D01*
X110858300Y-112943640D01*
X110829271Y-112885583D01*
X110829271Y-112769468D01*
X110858300Y-112711411D01*
X110887328Y-112682383D01*
X110945385Y-112653354D01*
X110974414Y-112653354D01*
X111032471Y-112682383D01*
X111061500Y-112711411D01*
X111090528Y-112769468D01*
X111090528Y-112885583D01*
X111119557Y-112943640D01*
X111148585Y-112972668D01*
X111206642Y-113001697D01*
X111322757Y-113001697D01*
X111380814Y-112972668D01*
X111409842Y-112943640D01*
X111438871Y-112885583D01*
X111438871Y-112769468D01*
X111409842Y-112711411D01*
X111380814Y-112682383D01*
X111322757Y-112653354D01*
X111206642Y-112653354D01*
X111148585Y-112682383D01*
X111119557Y-112711411D01*
X111090528Y-112769468D01*
G04 #@! TO.C,R9*
X117435811Y-135298180D02*
X117145525Y-135501380D01*
X117435811Y-135646522D02*
X116826211Y-135646522D01*
X116826211Y-135414294D01*
X116855240Y-135356237D01*
X116884268Y-135327208D01*
X116942325Y-135298180D01*
X117029411Y-135298180D01*
X117087468Y-135327208D01*
X117116497Y-135356237D01*
X117145525Y-135414294D01*
X117145525Y-135646522D01*
X117435811Y-135007894D02*
X117435811Y-134891780D01*
X117406782Y-134833722D01*
X117377754Y-134804694D01*
X117290668Y-134746637D01*
X117174554Y-134717608D01*
X116942325Y-134717608D01*
X116884268Y-134746637D01*
X116855240Y-134775665D01*
X116826211Y-134833722D01*
X116826211Y-134949837D01*
X116855240Y-135007894D01*
X116884268Y-135036922D01*
X116942325Y-135065951D01*
X117087468Y-135065951D01*
X117145525Y-135036922D01*
X117174554Y-135007894D01*
X117203582Y-134949837D01*
X117203582Y-134833722D01*
X117174554Y-134775665D01*
X117145525Y-134746637D01*
X117087468Y-134717608D01*
G04 #@! TO.C,R10*
X115675063Y-135740865D02*
X115384777Y-135944065D01*
X115675063Y-136089208D02*
X115065463Y-136089208D01*
X115065463Y-135856980D01*
X115094492Y-135798922D01*
X115123520Y-135769894D01*
X115181577Y-135740865D01*
X115268663Y-135740865D01*
X115326720Y-135769894D01*
X115355749Y-135798922D01*
X115384777Y-135856980D01*
X115384777Y-136089208D01*
X115675063Y-135160294D02*
X115675063Y-135508637D01*
X115675063Y-135334465D02*
X115065463Y-135334465D01*
X115152549Y-135392522D01*
X115210606Y-135450580D01*
X115239634Y-135508637D01*
X115065463Y-134782922D02*
X115065463Y-134724865D01*
X115094492Y-134666808D01*
X115123520Y-134637780D01*
X115181577Y-134608751D01*
X115297692Y-134579722D01*
X115442834Y-134579722D01*
X115558949Y-134608751D01*
X115617006Y-134637780D01*
X115646034Y-134666808D01*
X115675063Y-134724865D01*
X115675063Y-134782922D01*
X115646034Y-134840980D01*
X115617006Y-134870008D01*
X115558949Y-134899037D01*
X115442834Y-134928065D01*
X115297692Y-134928065D01*
X115181577Y-134899037D01*
X115123520Y-134870008D01*
X115094492Y-134840980D01*
X115065463Y-134782922D01*
G04 #@! TO.C,R11*
X104893291Y-135786585D02*
X104603005Y-135989785D01*
X104893291Y-136134928D02*
X104283691Y-136134928D01*
X104283691Y-135902700D01*
X104312720Y-135844642D01*
X104341748Y-135815614D01*
X104399805Y-135786585D01*
X104486891Y-135786585D01*
X104544948Y-135815614D01*
X104573977Y-135844642D01*
X104603005Y-135902700D01*
X104603005Y-136134928D01*
X104893291Y-135206014D02*
X104893291Y-135554357D01*
X104893291Y-135380185D02*
X104283691Y-135380185D01*
X104370777Y-135438242D01*
X104428834Y-135496300D01*
X104457862Y-135554357D01*
X104893291Y-134625442D02*
X104893291Y-134973785D01*
X104893291Y-134799614D02*
X104283691Y-134799614D01*
X104370777Y-134857671D01*
X104428834Y-134915728D01*
X104457862Y-134973785D01*
G04 #@! TO.C,R12*
X103084811Y-135872945D02*
X102794525Y-136076145D01*
X103084811Y-136221288D02*
X102475211Y-136221288D01*
X102475211Y-135989060D01*
X102504240Y-135931002D01*
X102533268Y-135901974D01*
X102591325Y-135872945D01*
X102678411Y-135872945D01*
X102736468Y-135901974D01*
X102765497Y-135931002D01*
X102794525Y-135989060D01*
X102794525Y-136221288D01*
X103084811Y-135292374D02*
X103084811Y-135640717D01*
X103084811Y-135466545D02*
X102475211Y-135466545D01*
X102562297Y-135524602D01*
X102620354Y-135582660D01*
X102649382Y-135640717D01*
X102533268Y-135060145D02*
X102504240Y-135031117D01*
X102475211Y-134973060D01*
X102475211Y-134827917D01*
X102504240Y-134769860D01*
X102533268Y-134740831D01*
X102591325Y-134711802D01*
X102649382Y-134711802D01*
X102736468Y-134740831D01*
X103084811Y-135089174D01*
X103084811Y-134711802D01*
G04 #@! TO.C,R13*
X105063471Y-113282185D02*
X104773185Y-113485385D01*
X105063471Y-113630528D02*
X104453871Y-113630528D01*
X104453871Y-113398300D01*
X104482900Y-113340242D01*
X104511928Y-113311214D01*
X104569985Y-113282185D01*
X104657071Y-113282185D01*
X104715128Y-113311214D01*
X104744157Y-113340242D01*
X104773185Y-113398300D01*
X104773185Y-113630528D01*
X105063471Y-112701614D02*
X105063471Y-113049957D01*
X105063471Y-112875785D02*
X104453871Y-112875785D01*
X104540957Y-112933842D01*
X104599014Y-112991900D01*
X104628042Y-113049957D01*
X104453871Y-112498414D02*
X104453871Y-112121042D01*
X104686100Y-112324242D01*
X104686100Y-112237157D01*
X104715128Y-112179100D01*
X104744157Y-112150071D01*
X104802214Y-112121042D01*
X104947357Y-112121042D01*
X105005414Y-112150071D01*
X105034442Y-112179100D01*
X105063471Y-112237157D01*
X105063471Y-112411328D01*
X105034442Y-112469385D01*
X105005414Y-112498414D01*
G04 #@! TO.C,R14*
X99147811Y-119479365D02*
X98857525Y-119682565D01*
X99147811Y-119827708D02*
X98538211Y-119827708D01*
X98538211Y-119595480D01*
X98567240Y-119537422D01*
X98596268Y-119508394D01*
X98654325Y-119479365D01*
X98741411Y-119479365D01*
X98799468Y-119508394D01*
X98828497Y-119537422D01*
X98857525Y-119595480D01*
X98857525Y-119827708D01*
X99147811Y-118898794D02*
X99147811Y-119247137D01*
X99147811Y-119072965D02*
X98538211Y-119072965D01*
X98625297Y-119131022D01*
X98683354Y-119189080D01*
X98712382Y-119247137D01*
X98741411Y-118376280D02*
X99147811Y-118376280D01*
X98509182Y-118521422D02*
X98944611Y-118666565D01*
X98944611Y-118289194D01*
G04 #@! TO.C,R15*
X104202774Y-109196051D02*
X103999574Y-108905765D01*
X103854431Y-109196051D02*
X103854431Y-108586451D01*
X104086660Y-108586451D01*
X104144717Y-108615480D01*
X104173745Y-108644508D01*
X104202774Y-108702565D01*
X104202774Y-108789651D01*
X104173745Y-108847708D01*
X104144717Y-108876737D01*
X104086660Y-108905765D01*
X103854431Y-108905765D01*
X104783345Y-109196051D02*
X104435002Y-109196051D01*
X104609174Y-109196051D02*
X104609174Y-108586451D01*
X104551117Y-108673537D01*
X104493060Y-108731594D01*
X104435002Y-108760622D01*
X105334888Y-108586451D02*
X105044602Y-108586451D01*
X105015574Y-108876737D01*
X105044602Y-108847708D01*
X105102660Y-108818680D01*
X105247802Y-108818680D01*
X105305860Y-108847708D01*
X105334888Y-108876737D01*
X105363917Y-108934794D01*
X105363917Y-109079937D01*
X105334888Y-109137994D01*
X105305860Y-109167022D01*
X105247802Y-109196051D01*
X105102660Y-109196051D01*
X105044602Y-109167022D01*
X105015574Y-109137994D01*
G04 #@! TO.C,R16*
X106680181Y-113233925D02*
X106389895Y-113437125D01*
X106680181Y-113582268D02*
X106070581Y-113582268D01*
X106070581Y-113350040D01*
X106099610Y-113291982D01*
X106128638Y-113262954D01*
X106186695Y-113233925D01*
X106273781Y-113233925D01*
X106331838Y-113262954D01*
X106360867Y-113291982D01*
X106389895Y-113350040D01*
X106389895Y-113582268D01*
X106680181Y-112653354D02*
X106680181Y-113001697D01*
X106680181Y-112827525D02*
X106070581Y-112827525D01*
X106157667Y-112885582D01*
X106215724Y-112943640D01*
X106244752Y-113001697D01*
X106070581Y-112130840D02*
X106070581Y-112246954D01*
X106099610Y-112305011D01*
X106128638Y-112334040D01*
X106215724Y-112392097D01*
X106331838Y-112421125D01*
X106564067Y-112421125D01*
X106622124Y-112392097D01*
X106651152Y-112363068D01*
X106680181Y-112305011D01*
X106680181Y-112188897D01*
X106651152Y-112130840D01*
X106622124Y-112101811D01*
X106564067Y-112072782D01*
X106418924Y-112072782D01*
X106360867Y-112101811D01*
X106331838Y-112130840D01*
X106302810Y-112188897D01*
X106302810Y-112305011D01*
X106331838Y-112363068D01*
X106360867Y-112392097D01*
X106418924Y-112421125D01*
G04 #@! TO.C,R17*
X108281651Y-113233925D02*
X107991365Y-113437125D01*
X108281651Y-113582268D02*
X107672051Y-113582268D01*
X107672051Y-113350040D01*
X107701080Y-113291982D01*
X107730108Y-113262954D01*
X107788165Y-113233925D01*
X107875251Y-113233925D01*
X107933308Y-113262954D01*
X107962337Y-113291982D01*
X107991365Y-113350040D01*
X107991365Y-113582268D01*
X108281651Y-112653354D02*
X108281651Y-113001697D01*
X108281651Y-112827525D02*
X107672051Y-112827525D01*
X107759137Y-112885582D01*
X107817194Y-112943640D01*
X107846222Y-113001697D01*
X107672051Y-112450154D02*
X107672051Y-112043754D01*
X108281651Y-112305011D01*
G04 #@! TO.C,SW1*
X93024960Y-141892382D02*
X93112045Y-141921411D01*
X93257188Y-141921411D01*
X93315245Y-141892382D01*
X93344274Y-141863354D01*
X93373302Y-141805297D01*
X93373302Y-141747240D01*
X93344274Y-141689182D01*
X93315245Y-141660154D01*
X93257188Y-141631125D01*
X93141074Y-141602097D01*
X93083017Y-141573068D01*
X93053988Y-141544040D01*
X93024960Y-141485982D01*
X93024960Y-141427925D01*
X93053988Y-141369868D01*
X93083017Y-141340840D01*
X93141074Y-141311811D01*
X93286217Y-141311811D01*
X93373302Y-141340840D01*
X93576502Y-141311811D02*
X93721645Y-141921411D01*
X93837760Y-141485982D01*
X93953874Y-141921411D01*
X94099017Y-141311811D01*
X94650560Y-141921411D02*
X94302217Y-141921411D01*
X94476388Y-141921411D02*
X94476388Y-141311811D01*
X94418331Y-141398897D01*
X94360274Y-141456954D01*
X94302217Y-141485982D01*
G04 #@! TO.C,TP1*
X124399402Y-114301451D02*
X124747745Y-114301451D01*
X124573574Y-114911051D02*
X124573574Y-114301451D01*
X124950945Y-114911051D02*
X124950945Y-114301451D01*
X125183174Y-114301451D01*
X125241231Y-114330480D01*
X125270260Y-114359508D01*
X125299288Y-114417565D01*
X125299288Y-114504651D01*
X125270260Y-114562708D01*
X125241231Y-114591737D01*
X125183174Y-114620765D01*
X124950945Y-114620765D01*
X125879860Y-114911051D02*
X125531517Y-114911051D01*
X125705688Y-114911051D02*
X125705688Y-114301451D01*
X125647631Y-114388537D01*
X125589574Y-114446594D01*
X125531517Y-114475622D01*
G04 #@! TO.C,TP2*
X104686462Y-80407691D02*
X105034805Y-80407691D01*
X104860634Y-81017291D02*
X104860634Y-80407691D01*
X105238005Y-81017291D02*
X105238005Y-80407691D01*
X105470234Y-80407691D01*
X105528291Y-80436720D01*
X105557320Y-80465748D01*
X105586348Y-80523805D01*
X105586348Y-80610891D01*
X105557320Y-80668948D01*
X105528291Y-80697977D01*
X105470234Y-80727005D01*
X105238005Y-80727005D01*
X105818577Y-80465748D02*
X105847605Y-80436720D01*
X105905662Y-80407691D01*
X106050805Y-80407691D01*
X106108862Y-80436720D01*
X106137891Y-80465748D01*
X106166920Y-80523805D01*
X106166920Y-80581862D01*
X106137891Y-80668948D01*
X105789548Y-81017291D01*
X106166920Y-81017291D01*
G04 #@! TO.C,TP3*
X116891162Y-112586951D02*
X117239505Y-112586951D01*
X117065334Y-113196551D02*
X117065334Y-112586951D01*
X117442705Y-113196551D02*
X117442705Y-112586951D01*
X117674934Y-112586951D01*
X117732991Y-112615980D01*
X117762020Y-112645008D01*
X117791048Y-112703065D01*
X117791048Y-112790151D01*
X117762020Y-112848208D01*
X117732991Y-112877237D01*
X117674934Y-112906265D01*
X117442705Y-112906265D01*
X117994248Y-112586951D02*
X118371620Y-112586951D01*
X118168420Y-112819180D01*
X118255505Y-112819180D01*
X118313562Y-112848208D01*
X118342591Y-112877237D01*
X118371620Y-112935294D01*
X118371620Y-113080437D01*
X118342591Y-113138494D01*
X118313562Y-113167522D01*
X118255505Y-113196551D01*
X118081334Y-113196551D01*
X118023277Y-113167522D01*
X117994248Y-113138494D01*
G04 #@! TO.C,TP4*
X78224742Y-122856171D02*
X78573085Y-122856171D01*
X78398914Y-123465771D02*
X78398914Y-122856171D01*
X78776285Y-123465771D02*
X78776285Y-122856171D01*
X79008514Y-122856171D01*
X79066571Y-122885200D01*
X79095600Y-122914228D01*
X79124628Y-122972285D01*
X79124628Y-123059371D01*
X79095600Y-123117428D01*
X79066571Y-123146457D01*
X79008514Y-123175485D01*
X78776285Y-123175485D01*
X79647142Y-123059371D02*
X79647142Y-123465771D01*
X79502000Y-122827142D02*
X79356857Y-123262571D01*
X79734228Y-123262571D01*
G04 #@! TO.C,U1*
X110706262Y-86036331D02*
X110706262Y-86529817D01*
X110735291Y-86587874D01*
X110764320Y-86616902D01*
X110822377Y-86645931D01*
X110938491Y-86645931D01*
X110996548Y-86616902D01*
X111025577Y-86587874D01*
X111054605Y-86529817D01*
X111054605Y-86036331D01*
X111664205Y-86645931D02*
X111315862Y-86645931D01*
X111490034Y-86645931D02*
X111490034Y-86036331D01*
X111431977Y-86123417D01*
X111373920Y-86181474D01*
X111315862Y-86210502D01*
G04 #@! TO.C,U2*
X84324371Y-88272257D02*
X84817857Y-88272257D01*
X84875914Y-88243228D01*
X84904942Y-88214200D01*
X84933971Y-88156142D01*
X84933971Y-88040028D01*
X84904942Y-87981971D01*
X84875914Y-87952942D01*
X84817857Y-87923914D01*
X84324371Y-87923914D01*
X84382428Y-87662657D02*
X84353400Y-87633628D01*
X84324371Y-87575571D01*
X84324371Y-87430428D01*
X84353400Y-87372371D01*
X84382428Y-87343342D01*
X84440485Y-87314314D01*
X84498542Y-87314314D01*
X84585628Y-87343342D01*
X84933971Y-87691685D01*
X84933971Y-87314314D01*
G04 #@! TO.C,U3*
X118095122Y-108017491D02*
X118095122Y-108510977D01*
X118124151Y-108569034D01*
X118153180Y-108598062D01*
X118211237Y-108627091D01*
X118327351Y-108627091D01*
X118385408Y-108598062D01*
X118414437Y-108569034D01*
X118443465Y-108510977D01*
X118443465Y-108017491D01*
X118675694Y-108017491D02*
X119053065Y-108017491D01*
X118849865Y-108249720D01*
X118936951Y-108249720D01*
X118995008Y-108278748D01*
X119024037Y-108307777D01*
X119053065Y-108365834D01*
X119053065Y-108510977D01*
X119024037Y-108569034D01*
X118995008Y-108598062D01*
X118936951Y-108627091D01*
X118762780Y-108627091D01*
X118704722Y-108598062D01*
X118675694Y-108569034D01*
G04 #@! TO.C,U4*
X111270142Y-123915351D02*
X111270142Y-124408837D01*
X111299171Y-124466894D01*
X111328200Y-124495922D01*
X111386257Y-124524951D01*
X111502371Y-124524951D01*
X111560428Y-124495922D01*
X111589457Y-124466894D01*
X111618485Y-124408837D01*
X111618485Y-123915351D01*
X112170028Y-124118551D02*
X112170028Y-124524951D01*
X112024885Y-123886322D02*
X111879742Y-124321751D01*
X112257114Y-124321751D01*
G04 #@! TD*
M02*
