G04 #@! TF.GenerationSoftware,KiCad,Pcbnew,(5.0.0)*
G04 #@! TF.CreationDate,2019-03-03T03:18:43+05:30*
G04 #@! TF.ProjectId,LoRa_Modbus,4C6F52615F4D6F646275732E6B696361,rev?*
G04 #@! TF.SameCoordinates,Original*
G04 #@! TF.FileFunction,Profile,NP*
%FSLAX46Y46*%
G04 Gerber Fmt 4.6, Leading zero omitted, Abs format (unit mm)*
G04 Created by KiCad (PCBNEW (5.0.0)) date 03/03/19 03:18:43*
%MOMM*%
%LPD*%
G01*
G04 APERTURE LIST*
%ADD10C,0.500000*%
G04 APERTURE END LIST*
D10*
X126392675Y-76883395D02*
X126377825Y-76881281D01*
X126654547Y-76936659D02*
X126640280Y-76932958D01*
X126822869Y-76987645D02*
X126809051Y-76982938D01*
X126524935Y-76906461D02*
X126510369Y-76903541D01*
X126362943Y-76879256D02*
X126348036Y-76877324D01*
X126466467Y-76895317D02*
X126451771Y-76892753D01*
X126553975Y-76912564D02*
X126539473Y-76909470D01*
X126795190Y-76978315D02*
X126781291Y-76973773D01*
X126836654Y-76992432D02*
X126822869Y-76987645D01*
X126059514Y-76858328D02*
X126044073Y-76858287D01*
X126090323Y-76858733D02*
X126074931Y-76858490D01*
X126105691Y-76859057D02*
X126090323Y-76858733D01*
X126151646Y-76860644D02*
X126136355Y-76860020D01*
X126348036Y-76877324D02*
X126333097Y-76875486D01*
X126422286Y-76887894D02*
X126407497Y-76885598D01*
X126739374Y-76960647D02*
X126725326Y-76956439D01*
X126932014Y-77028218D02*
X126918512Y-77022865D01*
X126495766Y-76900711D02*
X126481135Y-76897969D01*
X126182156Y-76862179D02*
X126166917Y-76861365D01*
X126725326Y-76956439D02*
X126711245Y-76952315D01*
X126781291Y-76973773D02*
X126767357Y-76969315D01*
X126568444Y-76915747D02*
X126553975Y-76912564D01*
X126809051Y-76982938D02*
X126795190Y-76978315D01*
X126945475Y-77033652D02*
X126932014Y-77028218D01*
X126227726Y-76865192D02*
X126212565Y-76864094D01*
X126864098Y-77002253D02*
X126850394Y-76997302D01*
X126288106Y-76870517D02*
X126273054Y-76869047D01*
X126377825Y-76881281D02*
X126362943Y-76879256D01*
X126891388Y-77012398D02*
X126877761Y-77007285D01*
X126074931Y-76858490D02*
X126059514Y-76858328D01*
X126510369Y-76903541D02*
X126495766Y-76900711D01*
X126597281Y-76922372D02*
X126582881Y-76919015D01*
X126640280Y-76932958D02*
X126625985Y-76929342D01*
X126877761Y-77007285D02*
X126864098Y-77002253D01*
X126121035Y-76859490D02*
X126105691Y-76859057D01*
X126582881Y-76919015D02*
X126568444Y-76915747D01*
X126303130Y-76872080D02*
X126288106Y-76870517D01*
X126451771Y-76892753D02*
X126437042Y-76890279D01*
X126437042Y-76890279D02*
X126422286Y-76887894D01*
X126481135Y-76897969D02*
X126466467Y-76895317D01*
X126682967Y-76944317D02*
X126668773Y-76940446D01*
X126958895Y-77039164D02*
X126945475Y-77033652D01*
X126166917Y-76861365D02*
X126151646Y-76860644D01*
X126136355Y-76860020D02*
X126121035Y-76859490D01*
X126197375Y-76863090D02*
X126182156Y-76862179D01*
X126212565Y-76864094D02*
X126197375Y-76863090D01*
X126257973Y-76867666D02*
X126242864Y-76866382D01*
X126668773Y-76940446D02*
X126654547Y-76936659D01*
X126611649Y-76925814D02*
X126597281Y-76922372D01*
X126918512Y-77022865D02*
X126904970Y-77017591D01*
X126273054Y-76869047D02*
X126257973Y-76867666D01*
X126972275Y-77044756D02*
X126958895Y-77039164D01*
X126407497Y-76885598D02*
X126392675Y-76883395D01*
X126753386Y-76964940D02*
X126739374Y-76960647D01*
X126711245Y-76952315D02*
X126697124Y-76948273D01*
X126850394Y-76997302D02*
X126836654Y-76992432D01*
X126242864Y-76866382D02*
X126227726Y-76865192D01*
X126539473Y-76909470D02*
X126524935Y-76906461D01*
X126625985Y-76929342D02*
X126611649Y-76925814D01*
X126318126Y-76873736D02*
X126303130Y-76872080D01*
X126697124Y-76948273D02*
X126682967Y-76944317D01*
X126767357Y-76969315D02*
X126753386Y-76964940D01*
X126333097Y-76875486D02*
X126318126Y-76873736D01*
X126904970Y-77017591D02*
X126891388Y-77012398D01*
X127481363Y-77338534D02*
X127469939Y-77329948D01*
X127435351Y-77304596D02*
X127423717Y-77296282D01*
X127677498Y-77504247D02*
X127667086Y-77494500D01*
X127698143Y-77523926D02*
X127687848Y-77514056D01*
X127458463Y-77321430D02*
X127446933Y-77312979D01*
X127603398Y-77437331D02*
X127592586Y-77428025D01*
X127646089Y-77475192D02*
X127635503Y-77465632D01*
X127614158Y-77446701D02*
X127603398Y-77437331D01*
X127230648Y-77172748D02*
X127218163Y-77165635D01*
X126985610Y-77050426D02*
X126972275Y-77044756D01*
X126998905Y-77056175D02*
X126985610Y-77050426D01*
X127012155Y-77062002D02*
X126998905Y-77056175D01*
X127243084Y-77179933D02*
X127230648Y-77172748D01*
X127446933Y-77312979D02*
X127435351Y-77304596D01*
X127103701Y-77104957D02*
X127090758Y-77098590D01*
X127142269Y-77124510D02*
X127129460Y-77117917D01*
X127548761Y-77391443D02*
X127537665Y-77382460D01*
X127180425Y-77144739D02*
X127167753Y-77137921D01*
X127316690Y-77224563D02*
X127304545Y-77216945D01*
X127292348Y-77209399D02*
X127280106Y-77201925D01*
X127218163Y-77165635D02*
X127205629Y-77158596D01*
X127255472Y-77187191D02*
X127243084Y-77179933D01*
X127526512Y-77373542D02*
X127515307Y-77364691D01*
X127624861Y-77456135D02*
X127614158Y-77446701D01*
X127656618Y-77484815D02*
X127646089Y-77475192D01*
X127708376Y-77533858D02*
X127698143Y-77523926D01*
X127352825Y-77247841D02*
X127340830Y-77240011D01*
X127400294Y-77279858D02*
X127388502Y-77271750D01*
X127469939Y-77329948D02*
X127458463Y-77321430D01*
X127667086Y-77494500D02*
X127656618Y-77484815D01*
X127025365Y-77067907D02*
X127012155Y-77062002D01*
X127090758Y-77098590D02*
X127077767Y-77092300D01*
X127718549Y-77543850D02*
X127708376Y-77533858D01*
X127559800Y-77400491D02*
X127548761Y-77391443D01*
X127155034Y-77131178D02*
X127142269Y-77124510D01*
X127728664Y-77553903D02*
X127718549Y-77543850D01*
X127051651Y-77079949D02*
X127038531Y-77073889D01*
X127038531Y-77073889D02*
X127025365Y-77067907D01*
X127064731Y-77086086D02*
X127051651Y-77079949D01*
X127167753Y-77137921D02*
X127155034Y-77131178D01*
X127412030Y-77288035D02*
X127400294Y-77279858D01*
X127687848Y-77514056D02*
X127677498Y-77504247D01*
X127304545Y-77216945D02*
X127292348Y-77209399D01*
X127328782Y-77232252D02*
X127316690Y-77224563D01*
X127592586Y-77428025D02*
X127581712Y-77418783D01*
X127581712Y-77418783D02*
X127570782Y-77409605D01*
X127570782Y-77409605D02*
X127559800Y-77400491D01*
X127635503Y-77465632D02*
X127624861Y-77456135D01*
X127537665Y-77382460D02*
X127526512Y-77373542D01*
X127077767Y-77092300D02*
X127064731Y-77086086D01*
X127116603Y-77111399D02*
X127103701Y-77104957D01*
X127129460Y-77117917D02*
X127116603Y-77111399D01*
X127280106Y-77201925D02*
X127267815Y-77194522D01*
X127376661Y-77263710D02*
X127364767Y-77255741D01*
X127492730Y-77347186D02*
X127481363Y-77338534D01*
X127388502Y-77271750D02*
X127376661Y-77263710D01*
X127193051Y-77151631D02*
X127180425Y-77144739D01*
X127504045Y-77355905D02*
X127492730Y-77347186D01*
X127205629Y-77158596D02*
X127193051Y-77151631D01*
X127267815Y-77194522D02*
X127255472Y-77187191D01*
X127423717Y-77296282D02*
X127412030Y-77288035D01*
X127340830Y-77240011D02*
X127328782Y-77232252D01*
X127515307Y-77364691D02*
X127504045Y-77355905D01*
X127364767Y-77255741D02*
X127352825Y-77247841D01*
X128137654Y-78102142D02*
X128130766Y-78089516D01*
X127961075Y-77824103D02*
X127952563Y-77812627D01*
X128010728Y-77894065D02*
X128002624Y-77882275D01*
X128026728Y-77917801D02*
X128018762Y-77905907D01*
X128087905Y-78014754D02*
X128080510Y-78002461D01*
X128109664Y-78051920D02*
X128102484Y-78039483D01*
X127986211Y-77858849D02*
X127977902Y-77847214D01*
X128237562Y-78310293D02*
X128231897Y-78296957D01*
X127943982Y-77801205D02*
X127935332Y-77789836D01*
X128208450Y-78244037D02*
X128202396Y-78230915D01*
X127816926Y-77647064D02*
X127807369Y-77636478D01*
X127872940Y-77711784D02*
X127863763Y-77700856D01*
X128157866Y-78140298D02*
X128151204Y-78127533D01*
X127882047Y-77722768D02*
X127872940Y-77711784D01*
X128164455Y-78153108D02*
X128157866Y-78140298D01*
X127826422Y-77657708D02*
X127816926Y-77647064D01*
X128220327Y-78270411D02*
X128214427Y-78257203D01*
X128073039Y-77990218D02*
X128065499Y-77978024D01*
X127900072Y-77744904D02*
X127891094Y-77733809D01*
X128095231Y-78027094D02*
X128087905Y-78014754D01*
X128177405Y-78178865D02*
X128170967Y-78165964D01*
X127835853Y-77668409D02*
X127826422Y-77657708D01*
X127891094Y-77733809D02*
X127882047Y-77722768D01*
X127969523Y-77835633D02*
X127961075Y-77824103D01*
X127994452Y-77870536D02*
X127986211Y-77858849D01*
X128034624Y-77929745D02*
X128026728Y-77917801D01*
X127917834Y-77767261D02*
X127908989Y-77756055D01*
X127926617Y-77778521D02*
X127917834Y-77767261D01*
X128002624Y-77882275D02*
X127994452Y-77870536D01*
X128170967Y-78165964D02*
X128164455Y-78153108D01*
X127935332Y-77789836D02*
X127926617Y-77778521D01*
X127952563Y-77812627D02*
X127943982Y-77801205D01*
X128042448Y-77941740D02*
X128034624Y-77929745D01*
X128018762Y-77905907D02*
X128010728Y-77894065D01*
X128050203Y-77953784D02*
X128042448Y-77941740D01*
X128116771Y-78064405D02*
X128109664Y-78051920D01*
X128190052Y-78204802D02*
X128183767Y-78191811D01*
X128231897Y-78296957D02*
X128226151Y-78283663D01*
X128123805Y-78076936D02*
X128116771Y-78064405D01*
X128202396Y-78230915D02*
X128196260Y-78217836D01*
X128214427Y-78257203D02*
X128208450Y-78244037D01*
X128226151Y-78283663D02*
X128220327Y-78270411D01*
X127977902Y-77847214D02*
X127969523Y-77835633D01*
X128130766Y-78089516D02*
X128123805Y-78076936D01*
X128065499Y-77978024D02*
X128057885Y-77965879D01*
X128057885Y-77965879D02*
X128050203Y-77953784D01*
X128080510Y-78002461D02*
X128073039Y-77990218D01*
X128196260Y-78217836D02*
X128190052Y-78204802D01*
X127738716Y-77564017D02*
X127728664Y-77553903D01*
X127748710Y-77574191D02*
X127738716Y-77564017D01*
X127758640Y-77584424D02*
X127748710Y-77574191D01*
X127863763Y-77700856D02*
X127854522Y-77689984D01*
X128151204Y-78127533D02*
X128144466Y-78114814D01*
X127768509Y-77594717D02*
X127758640Y-77584424D01*
X127854522Y-77689984D02*
X127845220Y-77679168D01*
X128144466Y-78114814D02*
X128137654Y-78102142D01*
X127778317Y-77605069D02*
X127768509Y-77594717D01*
X127788064Y-77615480D02*
X127778317Y-77605069D01*
X127797747Y-77625950D02*
X127788064Y-77615480D01*
X128102484Y-78039483D02*
X128095231Y-78027094D01*
X127807369Y-77636478D02*
X127797747Y-77625950D01*
X127908989Y-77756055D02*
X127900072Y-77744904D01*
X128183767Y-78191811D02*
X128177405Y-78178865D01*
X127845220Y-77679168D02*
X127835853Y-77668409D01*
X128423018Y-79161532D02*
X128422492Y-79146213D01*
X128405038Y-78934533D02*
X128403094Y-78919624D01*
X128352919Y-78656585D02*
X128349315Y-78642286D01*
X128259438Y-78364055D02*
X128254089Y-78350553D01*
X128411882Y-78994462D02*
X128410302Y-78979437D01*
X128269898Y-78391181D02*
X128264707Y-78377598D01*
X128345630Y-78628022D02*
X128341864Y-78613794D01*
X128356443Y-78670918D02*
X128352919Y-78656585D01*
X128421115Y-79115652D02*
X128420305Y-79100410D01*
X128254089Y-78350553D02*
X128248658Y-78337091D01*
X128275009Y-78404806D02*
X128269898Y-78391181D01*
X128325832Y-78557240D02*
X128321624Y-78543193D01*
X128329958Y-78571324D02*
X128325832Y-78557240D01*
X128421844Y-79130920D02*
X128421115Y-79115652D01*
X128341864Y-78613794D02*
X128337976Y-78599601D01*
X128378756Y-78772200D02*
X128375840Y-78757632D01*
X128394428Y-78860283D02*
X128392039Y-78845524D01*
X128413380Y-79009515D02*
X128411882Y-78994462D01*
X128424273Y-79223054D02*
X128424273Y-79207637D01*
X128423869Y-79192244D02*
X128423464Y-79176876D01*
X128420305Y-79100410D02*
X128419373Y-79085194D01*
X128408642Y-78964440D02*
X128406901Y-78949472D01*
X128349315Y-78642286D02*
X128345630Y-78628022D01*
X128381591Y-78786801D02*
X128378756Y-78772200D01*
X128392039Y-78845524D02*
X128389568Y-78830796D01*
X128363246Y-78699688D02*
X128359885Y-78685286D01*
X128422492Y-79146213D02*
X128421844Y-79130920D01*
X128280039Y-78418469D02*
X128275009Y-78404806D01*
X128369725Y-78728593D02*
X128366526Y-78714123D01*
X128417268Y-79054841D02*
X128416053Y-79039705D01*
X128284987Y-78432173D02*
X128280039Y-78418469D01*
X128299343Y-78473518D02*
X128294637Y-78459697D01*
X128366526Y-78714123D02*
X128363246Y-78699688D01*
X128396736Y-78875073D02*
X128394428Y-78860283D01*
X128414757Y-79024597D02*
X128413380Y-79009515D01*
X128406901Y-78949472D02*
X128405038Y-78934533D01*
X128401069Y-78904743D02*
X128398963Y-78889893D01*
X128243151Y-78323671D02*
X128237562Y-78310293D01*
X128248658Y-78337091D02*
X128243151Y-78323671D01*
X128289855Y-78445916D02*
X128284987Y-78432173D01*
X128312962Y-78515210D02*
X128308503Y-78501274D01*
X128384344Y-78801435D02*
X128381591Y-78786801D01*
X128424273Y-79207637D02*
X128423869Y-79192244D01*
X128308503Y-78501274D02*
X128303964Y-78487377D01*
X128398963Y-78889893D02*
X128396736Y-78875073D01*
X128389568Y-78830796D02*
X128387017Y-78816100D01*
X128424273Y-79237934D02*
X128424273Y-79223054D01*
X128403094Y-78919624D02*
X128401069Y-78904743D01*
X128416053Y-79039705D02*
X128414757Y-79024597D01*
X128375840Y-78757632D02*
X128372843Y-78743096D01*
X128387017Y-78816100D02*
X128384344Y-78801435D01*
X128410302Y-78979437D02*
X128408642Y-78964440D01*
X128423464Y-79176876D02*
X128423018Y-79161532D01*
X128334008Y-78585445D02*
X128329958Y-78571324D01*
X128321624Y-78543193D02*
X128317336Y-78529183D01*
X128359885Y-78685286D02*
X128356443Y-78670918D01*
X128264707Y-78377598D02*
X128259438Y-78364055D01*
X128418361Y-79070004D02*
X128417268Y-79054841D01*
X128294637Y-78459697D02*
X128289855Y-78445916D01*
X128317336Y-78529183D02*
X128312962Y-78515210D01*
X128337976Y-78599601D02*
X128334008Y-78585445D01*
X128419373Y-79085194D02*
X128418361Y-79070004D01*
X128303964Y-78487377D02*
X128299343Y-78473518D01*
X128372843Y-78743096D02*
X128369725Y-78728593D01*
X128421941Y-146149139D02*
X128422589Y-146133843D01*
X137850944Y-128908243D02*
X137983694Y-128510243D01*
X133289694Y-130134783D02*
X134153936Y-130059647D01*
X131957009Y-94565032D02*
X131068120Y-94057211D01*
X128528207Y-89865868D02*
X128433912Y-88783165D01*
X129163185Y-91771208D02*
X128782117Y-90839798D01*
X133862348Y-95200010D02*
X132888418Y-94946100D01*
X130809127Y-131149659D02*
X131598234Y-130698484D01*
X128782117Y-90839798D02*
X128528207Y-89865868D01*
X130305984Y-93379712D02*
X129671006Y-92617576D01*
X137346840Y-129571750D02*
X137638740Y-129279847D01*
X128421212Y-146164406D02*
X128421941Y-146149139D01*
X138047961Y-102280435D02*
X138047961Y-97280434D01*
X138047961Y-127826435D02*
X138047961Y-123967435D01*
X128424371Y-136176063D02*
X128479190Y-135734753D01*
X128423966Y-146087812D02*
X128424371Y-146072419D01*
X128413518Y-146270542D02*
X128414895Y-146255461D01*
X128419471Y-146194863D02*
X128420402Y-146179649D01*
X137638740Y-129279847D02*
X137850944Y-128908243D01*
X135879097Y-130020410D02*
X136214226Y-130013344D01*
X130132543Y-131713356D02*
X130809127Y-131149659D01*
X134873798Y-95237700D02*
X133862348Y-95200010D01*
X129671006Y-92617576D02*
X129163185Y-91771208D01*
X131068120Y-94057211D02*
X130305984Y-93379712D01*
X128479190Y-135734753D02*
X128554327Y-134870150D01*
X135697197Y-95232868D02*
X134873798Y-95237700D01*
X136271192Y-95263354D02*
X135697197Y-95232868D01*
X128414895Y-146255461D02*
X128416190Y-146240352D01*
X128424371Y-141041435D02*
X128424371Y-136176063D01*
X128422589Y-146133843D02*
X128423115Y-146118524D01*
X136975492Y-129783950D02*
X137346840Y-129571750D01*
X137337717Y-95642442D02*
X137006018Y-95452896D01*
X137788001Y-96235110D02*
X137598459Y-95903179D01*
X131598234Y-130698484D02*
X132425090Y-130360549D01*
X137983694Y-128510243D02*
X138036748Y-128085589D01*
X137906581Y-96590616D02*
X137788001Y-96235110D01*
X138047961Y-118967434D02*
X138047961Y-104280435D01*
X136214226Y-130013344D02*
X136577492Y-129916704D01*
X134153936Y-130059647D02*
X135879097Y-130020410D01*
X128554327Y-134870150D02*
X128779736Y-134005908D01*
X129568842Y-132427330D02*
X130132543Y-131713356D01*
X128423115Y-146118524D02*
X128423561Y-146103180D01*
X128412060Y-146285598D02*
X128413518Y-146270542D01*
X128424371Y-146041435D02*
X128424371Y-143041434D01*
X132425090Y-130360549D02*
X133289694Y-130134783D01*
X129118024Y-133179051D02*
X129568842Y-132427330D01*
X128417365Y-146225219D02*
X128418458Y-146210053D01*
X128416190Y-146240352D02*
X128417365Y-146225219D01*
X128427473Y-83602435D02*
X128424273Y-79237934D01*
X136650507Y-95310742D02*
X136271192Y-95263354D01*
X128420402Y-146179649D02*
X128421212Y-146164406D01*
X128433912Y-88783165D02*
X128427473Y-85602434D01*
X132888418Y-94946100D02*
X131957009Y-94565032D01*
X137006018Y-95452896D02*
X136650507Y-95310742D01*
X138047961Y-97280434D02*
X138012434Y-96922745D01*
X136577492Y-129916704D02*
X136975492Y-129783950D01*
X137598459Y-95903179D02*
X137337717Y-95642442D01*
X138012434Y-96922745D02*
X137906581Y-96590616D01*
X128779736Y-134005908D02*
X129118024Y-133179051D01*
X128423561Y-146103180D02*
X128423966Y-146087812D01*
X128418458Y-146210053D02*
X128419471Y-146194863D01*
X138036748Y-128085589D02*
X138047961Y-127826435D01*
X128424371Y-146072419D02*
X128424371Y-146057002D01*
X128424371Y-146057002D02*
X128424371Y-146041435D01*
X128280318Y-146861590D02*
X128285271Y-146847886D01*
X128196487Y-147062224D02*
X128202622Y-147049148D01*
X128183982Y-147088251D02*
X128190271Y-147075260D01*
X128410481Y-146300622D02*
X128412060Y-146285598D01*
X128396995Y-146404985D02*
X128399182Y-146390167D01*
X128363546Y-146580373D02*
X128366826Y-146565936D01*
X128353219Y-146623477D02*
X128356742Y-146609142D01*
X128349615Y-146637772D02*
X128353219Y-146623477D01*
X128326131Y-146722818D02*
X128330258Y-146708738D01*
X128308799Y-146778788D02*
X128313258Y-146764849D01*
X128237817Y-146969767D02*
X128243406Y-146956391D01*
X128171173Y-147114095D02*
X128177616Y-147101197D01*
X128366826Y-146565936D02*
X128370025Y-146551467D01*
X128408820Y-146315618D02*
X128410481Y-146300622D01*
X128407079Y-146330585D02*
X128408820Y-146315618D01*
X128345930Y-146652039D02*
X128349615Y-146637772D01*
X128317631Y-146750878D02*
X128321924Y-146736866D01*
X128202622Y-147049148D02*
X128208681Y-147036023D01*
X128177616Y-147101197D02*
X128183982Y-147088251D01*
X128405257Y-146345524D02*
X128407079Y-146330585D01*
X128394687Y-146419774D02*
X128396995Y-146404985D01*
X128330258Y-146708738D02*
X128334307Y-146694617D01*
X128313258Y-146764849D02*
X128317631Y-146750878D01*
X128259706Y-146916005D02*
X128264982Y-146902463D01*
X128381850Y-146493258D02*
X128384604Y-146478623D01*
X128275284Y-146875253D02*
X128280318Y-146861590D01*
X128376099Y-146522427D02*
X128379015Y-146507861D01*
X128304255Y-146792682D02*
X128308799Y-146778788D01*
X128285271Y-146847886D02*
X128290138Y-146834146D01*
X128264982Y-146902463D02*
X128270174Y-146888880D01*
X128164653Y-147126953D02*
X128171173Y-147114095D01*
X128214666Y-147022858D02*
X128220570Y-147009648D01*
X128208681Y-147036023D02*
X128214666Y-147022858D01*
X128403313Y-146360435D02*
X128405257Y-146345524D01*
X128190271Y-147075260D02*
X128196487Y-147062224D01*
X128401288Y-146375317D02*
X128403313Y-146360435D01*
X128399182Y-146390167D02*
X128401288Y-146375317D01*
X128392298Y-146434535D02*
X128394687Y-146419774D01*
X128299635Y-146806544D02*
X128304255Y-146792682D01*
X128389828Y-146449263D02*
X128392298Y-146434535D01*
X128360184Y-146594774D02*
X128363546Y-146580373D01*
X128321924Y-146736866D02*
X128326131Y-146722818D01*
X128243406Y-146956391D02*
X128248921Y-146942971D01*
X128144652Y-147165246D02*
X128151395Y-147152526D01*
X128387276Y-146463959D02*
X128389828Y-146449263D01*
X128384604Y-146478623D02*
X128387276Y-146463959D01*
X128151395Y-147152526D02*
X128158060Y-147139762D01*
X128248921Y-146942971D02*
X128254352Y-146929510D01*
X128226398Y-146996397D02*
X128232144Y-146983103D01*
X128379015Y-146507861D02*
X128381850Y-146493258D01*
X128373103Y-146536966D02*
X128376099Y-146522427D01*
X128342164Y-146666265D02*
X128345930Y-146652039D01*
X128370025Y-146551467D02*
X128373103Y-146536966D01*
X128232144Y-146983103D02*
X128237817Y-146969767D01*
X128220570Y-147009648D02*
X128226398Y-146996397D01*
X128158060Y-147139762D02*
X128164653Y-147126953D01*
X128356742Y-146609142D02*
X128360184Y-146594774D01*
X128290138Y-146834146D02*
X128294929Y-146820365D01*
X128254352Y-146929510D02*
X128259706Y-146916005D01*
X128338276Y-146680459D02*
X128342164Y-146666265D01*
X128334307Y-146694617D02*
X128338276Y-146680459D01*
X128294929Y-146820365D02*
X128299635Y-146806544D01*
X128270174Y-146888880D02*
X128275284Y-146875253D01*
X128137833Y-147177917D02*
X128144652Y-147165246D01*
X127677502Y-147775813D02*
X127687853Y-147766005D01*
X127570786Y-147870456D02*
X127581716Y-147861276D01*
X128109826Y-147228140D02*
X128116937Y-147215655D01*
X128042562Y-147338322D02*
X128050321Y-147326278D01*
X128002713Y-147397786D02*
X128010821Y-147385994D01*
X127926666Y-147501537D02*
X127935385Y-147490223D01*
X127863788Y-147579205D02*
X127872968Y-147568275D01*
X127748714Y-147705868D02*
X127758644Y-147695635D01*
X127708380Y-147746202D02*
X127718553Y-147736208D01*
X127646093Y-147804869D02*
X127656622Y-147795243D01*
X127603402Y-147842729D02*
X127614162Y-147833358D01*
X127718553Y-147736208D02*
X127728669Y-147726157D01*
X127758644Y-147695635D02*
X127768517Y-147685345D01*
X127986288Y-147421213D02*
X127994537Y-147409526D01*
X127944039Y-147478855D02*
X127952624Y-147467432D01*
X127698147Y-147756132D02*
X127708380Y-147746202D01*
X127909030Y-147524005D02*
X127917882Y-147512799D01*
X127624865Y-147823926D02*
X127635507Y-147814426D01*
X128130940Y-147190544D02*
X128137833Y-147177917D01*
X128095381Y-147252968D02*
X128102638Y-147240577D01*
X128073173Y-147289844D02*
X128080648Y-147277598D01*
X127656622Y-147795243D02*
X127667090Y-147785561D01*
X127614162Y-147833358D02*
X127624865Y-147823926D01*
X127952624Y-147467432D02*
X127961140Y-147455959D01*
X127807381Y-147643581D02*
X127816938Y-147632996D01*
X127917882Y-147512799D02*
X127926666Y-147501537D01*
X127900113Y-147535157D02*
X127909030Y-147524005D01*
X127788072Y-147664579D02*
X127797755Y-147654110D01*
X128123975Y-147203126D02*
X128130940Y-147190544D01*
X128018863Y-147374153D02*
X128026833Y-147362259D01*
X127592590Y-147852035D02*
X127603402Y-147842729D01*
X128116937Y-147215655D02*
X128123975Y-147203126D01*
X127854546Y-147590078D02*
X127863788Y-147579205D01*
X128102638Y-147240577D02*
X128109826Y-147228140D01*
X128088051Y-147265308D02*
X128095381Y-147252968D01*
X128080648Y-147277598D02*
X128088051Y-147265308D01*
X128026833Y-147362259D02*
X128034730Y-147350317D01*
X127935385Y-147490223D02*
X127944039Y-147478855D01*
X127581716Y-147861276D02*
X127592590Y-147852035D01*
X127882080Y-147557292D02*
X127891127Y-147546253D01*
X127835870Y-147611650D02*
X127845240Y-147600890D01*
X127635507Y-147814426D02*
X127646093Y-147804869D01*
X127738720Y-147716045D02*
X127748714Y-147705868D01*
X128065624Y-147302037D02*
X128073173Y-147289844D01*
X127969592Y-147444430D02*
X127977974Y-147432848D01*
X127961140Y-147455959D02*
X127969592Y-147444430D01*
X127845240Y-147600890D02*
X127854546Y-147590078D01*
X127826438Y-147622353D02*
X127835870Y-147611650D01*
X128058007Y-147314182D02*
X128065624Y-147302037D01*
X127994537Y-147409526D02*
X128002713Y-147397786D01*
X127872968Y-147568275D02*
X127882080Y-147557292D01*
X127687853Y-147766005D02*
X127698147Y-147756132D01*
X128050321Y-147326278D02*
X128058007Y-147314182D01*
X127891127Y-147546253D02*
X127900113Y-147535157D01*
X127768517Y-147685345D02*
X127778325Y-147674990D01*
X127797755Y-147654110D02*
X127807381Y-147643581D01*
X127728669Y-147726157D02*
X127738720Y-147716045D01*
X127559804Y-147879568D02*
X127570786Y-147870456D01*
X128034730Y-147350317D02*
X128042562Y-147338322D01*
X127977974Y-147432848D02*
X127986288Y-147421213D01*
X127667090Y-147785561D02*
X127677502Y-147775813D01*
X127778325Y-147674990D02*
X127788072Y-147664579D01*
X127816938Y-147632996D02*
X127826438Y-147622353D01*
X128010821Y-147385994D02*
X128018863Y-147374153D01*
X127352829Y-148032218D02*
X127364771Y-148024317D01*
X127090762Y-148181466D02*
X127103705Y-148175100D01*
X127243088Y-148100126D02*
X127255476Y-148092869D01*
X127400298Y-148000202D02*
X127412034Y-147992026D01*
X127328786Y-148047809D02*
X127340834Y-148040050D01*
X127116607Y-148168661D02*
X127129464Y-148162142D01*
X127077771Y-148187759D02*
X127090762Y-148181466D01*
X127492734Y-147932873D02*
X127504049Y-147924154D01*
X127481367Y-147941527D02*
X127492734Y-147932873D01*
X127469943Y-147950112D02*
X127481367Y-147941527D01*
X127435355Y-147975463D02*
X127446937Y-147967080D01*
X127167757Y-148142136D02*
X127180429Y-148135321D01*
X127376665Y-148016348D02*
X127388506Y-148008309D01*
X127180429Y-148135321D02*
X127193055Y-148128429D01*
X127129464Y-148162142D02*
X127142273Y-148155549D01*
X127316694Y-148055495D02*
X127328786Y-148047809D01*
X127103705Y-148175100D02*
X127116607Y-148168661D01*
X127051655Y-148200111D02*
X127064736Y-148193971D01*
X127446937Y-147967080D02*
X127458467Y-147958629D01*
X127025369Y-148212150D02*
X127038535Y-148206169D01*
X127364771Y-148024317D02*
X127376665Y-148016348D01*
X127292352Y-148070661D02*
X127304549Y-148063112D01*
X127255476Y-148092869D02*
X127267819Y-148085535D01*
X127038535Y-148206169D02*
X127051655Y-148200111D01*
X127304549Y-148063112D02*
X127316694Y-148055495D01*
X127412034Y-147992026D02*
X127423721Y-147983777D01*
X127423721Y-147983777D02*
X127435355Y-147975463D01*
X127388506Y-148008309D02*
X127400298Y-148000202D01*
X127218167Y-148114425D02*
X127230652Y-148107310D01*
X127548765Y-147888615D02*
X127559804Y-147879568D01*
X127537669Y-147897601D02*
X127548765Y-147888615D01*
X127526516Y-147906518D02*
X127537669Y-147897601D01*
X127230652Y-148107310D02*
X127243088Y-148100126D01*
X127504049Y-147924154D02*
X127515311Y-147915371D01*
X127280110Y-148078132D02*
X127292352Y-148070661D01*
X127515311Y-147915371D02*
X127526516Y-147906518D01*
X127155038Y-148148879D02*
X127167757Y-148142136D01*
X127193055Y-148128429D02*
X127205633Y-148121463D01*
X127064736Y-148193971D02*
X127077771Y-148187759D01*
X127340834Y-148040050D02*
X127352829Y-148032218D01*
X127267819Y-148085535D02*
X127280110Y-148078132D01*
X127205633Y-148121463D02*
X127218167Y-148114425D01*
X127142273Y-148155549D02*
X127155038Y-148148879D01*
X127458467Y-147958629D02*
X127469943Y-147950112D01*
X126495770Y-148379334D02*
X126510373Y-148376499D01*
X126481139Y-148382088D02*
X126495770Y-148379334D01*
X126392679Y-148396666D02*
X126407501Y-148394480D01*
X126362947Y-148400797D02*
X126377829Y-148398772D01*
X126242868Y-148413675D02*
X126257977Y-148412379D01*
X126197379Y-148416955D02*
X126212569Y-148415943D01*
X126437046Y-148389782D02*
X126451775Y-148387312D01*
X126136359Y-148420033D02*
X126151650Y-148419425D01*
X126998909Y-148223882D02*
X127012159Y-148218054D01*
X126985614Y-148229632D02*
X126998909Y-148223882D01*
X126972279Y-148235302D02*
X126985614Y-148229632D01*
X126958899Y-148240894D02*
X126972279Y-148235302D01*
X126932018Y-148251840D02*
X126945479Y-148246406D01*
X126697128Y-148331792D02*
X126711249Y-148327742D01*
X126918516Y-148257194D02*
X126932018Y-148251840D01*
X126904974Y-148262466D02*
X126918516Y-148257194D01*
X126568448Y-148364310D02*
X126582885Y-148361030D01*
X126273058Y-148411002D02*
X126288110Y-148409544D01*
X126891392Y-148267658D02*
X126904974Y-148262466D01*
X126227730Y-148414849D02*
X126242868Y-148413675D01*
X126877765Y-148272773D02*
X126891392Y-148267658D01*
X126809055Y-148297119D02*
X126822873Y-148292413D01*
X126597285Y-148357669D02*
X126611653Y-148354227D01*
X126466471Y-148384761D02*
X126481139Y-148382088D01*
X126422290Y-148392171D02*
X126437046Y-148389782D01*
X126348040Y-148402741D02*
X126362947Y-148400797D01*
X126864102Y-148277806D02*
X126877765Y-148272773D01*
X126753390Y-148315119D02*
X126767361Y-148310742D01*
X126668777Y-148339607D02*
X126682971Y-148335760D01*
X126407501Y-148394480D02*
X126422290Y-148392171D01*
X126850398Y-148282755D02*
X126864102Y-148277806D01*
X126822873Y-148292413D02*
X126836658Y-148287627D01*
X126333101Y-148404563D02*
X126348040Y-148402741D01*
X126553979Y-148367509D02*
X126568448Y-148364310D01*
X126739378Y-148319412D02*
X126753390Y-148315119D01*
X126318130Y-148406304D02*
X126333101Y-148404563D01*
X126182160Y-148417886D02*
X126197379Y-148416955D01*
X126539477Y-148370587D02*
X126553979Y-148367509D01*
X126524939Y-148373584D02*
X126539477Y-148370587D01*
X126510373Y-148376499D02*
X126524939Y-148373584D01*
X126377829Y-148398772D02*
X126392679Y-148396666D01*
X126166922Y-148418696D02*
X126182160Y-148417886D01*
X126451775Y-148387312D02*
X126466471Y-148384761D01*
X126303134Y-148407965D02*
X126318130Y-148406304D01*
X126288110Y-148409544D02*
X126303134Y-148407965D01*
X126151650Y-148419425D02*
X126166922Y-148418696D01*
X126105696Y-148421005D02*
X126121039Y-148420559D01*
X126257977Y-148412379D02*
X126273058Y-148411002D01*
X126582885Y-148361030D02*
X126597285Y-148357669D01*
X126945479Y-148246406D02*
X126958899Y-148240894D01*
X126795194Y-148301744D02*
X126809055Y-148297119D01*
X126121039Y-148420559D02*
X126136359Y-148420033D01*
X127012159Y-148218054D02*
X127025369Y-148212150D01*
X126781295Y-148306283D02*
X126795194Y-148301744D01*
X126640284Y-148347099D02*
X126654551Y-148343414D01*
X126767361Y-148310742D02*
X126781295Y-148306283D01*
X126836658Y-148287627D02*
X126850398Y-148282755D01*
X126625989Y-148350703D02*
X126640284Y-148347099D01*
X126725330Y-148323620D02*
X126739378Y-148319412D01*
X126212569Y-148415943D02*
X126227730Y-148414849D01*
X126711249Y-148327742D02*
X126725330Y-148323620D01*
X126682971Y-148335760D02*
X126697128Y-148331792D01*
X126611653Y-148354227D02*
X126625989Y-148350703D01*
X126654551Y-148343414D02*
X126668777Y-148339607D01*
X169095930Y-146652039D02*
X169099615Y-146637772D01*
X169137277Y-146463959D02*
X169139828Y-146449263D01*
X169110185Y-146594774D02*
X169113546Y-146580373D01*
X172348234Y-130698484D02*
X173175091Y-130360549D01*
X169529736Y-134005908D02*
X169868024Y-133179051D01*
X169171941Y-146149139D02*
X169172589Y-146133843D01*
X169171212Y-146164406D02*
X169171941Y-146149139D01*
X169103219Y-146623477D02*
X169106743Y-146609142D01*
X169167365Y-146225219D02*
X169168459Y-146210053D01*
X169158821Y-146315618D02*
X169160481Y-146300622D01*
X169151288Y-146375317D02*
X169153313Y-146360435D01*
X169168459Y-146210053D02*
X169169471Y-146194863D01*
X169146996Y-146404985D02*
X169149183Y-146390167D01*
X169106743Y-146609142D02*
X169110185Y-146594774D01*
X169166191Y-146240352D02*
X169167365Y-146225219D01*
X169139828Y-146449263D02*
X169142298Y-146434535D01*
X169071924Y-146736866D02*
X169076132Y-146722818D01*
X169155257Y-146345524D02*
X169157079Y-146330585D01*
X173175091Y-130360549D02*
X174039694Y-130134783D01*
X171559128Y-131149659D02*
X172348234Y-130698484D01*
X169160481Y-146300622D02*
X169162060Y-146285598D01*
X169153313Y-146360435D02*
X169155257Y-146345524D01*
X169080258Y-146708738D02*
X169084308Y-146694617D01*
X169126100Y-146522427D02*
X169129015Y-146507861D01*
X169174371Y-146072419D02*
X169174371Y-146057002D01*
X169134604Y-146478623D02*
X169137277Y-146463959D01*
X169173561Y-146103180D02*
X169173966Y-146087812D01*
X169120025Y-146551467D02*
X169123103Y-146536966D01*
X169099615Y-146637772D02*
X169103219Y-146623477D01*
X126059518Y-148421814D02*
X126074935Y-148421814D01*
X169149183Y-146390167D02*
X169151288Y-146375317D01*
X169129015Y-146507861D02*
X169131850Y-146493258D01*
X169304327Y-134870150D02*
X169529736Y-134005908D01*
X126090327Y-148421409D02*
X126105696Y-148421005D01*
X126074935Y-148421814D02*
X126090327Y-148421409D01*
X126044077Y-148421814D02*
X126059518Y-148421814D01*
X174903937Y-130059647D02*
X176629097Y-130020410D01*
X174039694Y-130134783D02*
X174903937Y-130059647D01*
X170318843Y-132427330D02*
X170882544Y-131713356D01*
X169174371Y-136176063D02*
X169229191Y-135734753D01*
X169116826Y-146565936D02*
X169120025Y-146551467D01*
X169157079Y-146330585D02*
X169158821Y-146315618D01*
X169170402Y-146179649D02*
X169171212Y-146164406D01*
X170882544Y-131713356D02*
X171559128Y-131149659D01*
X169868024Y-133179051D02*
X170318843Y-132427330D01*
X169229191Y-135734753D02*
X169304327Y-134870150D01*
X169174371Y-146041561D02*
X169174371Y-136176063D01*
X169174371Y-146057002D02*
X169174371Y-146041561D01*
X169076132Y-146722818D02*
X169080258Y-146708738D01*
X169173966Y-146087812D02*
X169174371Y-146072419D01*
X169173116Y-146118524D02*
X169173561Y-146103180D01*
X169164895Y-146255461D02*
X169166191Y-146240352D01*
X169142298Y-146434535D02*
X169144687Y-146419774D01*
X169172589Y-146133843D02*
X169173116Y-146118524D01*
X169092164Y-146666265D02*
X169095930Y-146652039D01*
X169169471Y-146194863D02*
X169170402Y-146179649D01*
X169162060Y-146285598D02*
X169163518Y-146270542D01*
X169088276Y-146680459D02*
X169092164Y-146666265D01*
X169123103Y-146536966D02*
X169126100Y-146522427D01*
X169144687Y-146419774D02*
X169146996Y-146404985D01*
X169113546Y-146580373D02*
X169116826Y-146565936D01*
X169131850Y-146493258D02*
X169134604Y-146478623D01*
X169084308Y-146694617D02*
X169088276Y-146680459D01*
X169163518Y-146270542D02*
X169164895Y-146255461D01*
X169004352Y-146929510D02*
X169009706Y-146916005D01*
X168958681Y-147036023D02*
X168964666Y-147022858D01*
X168694039Y-147478855D02*
X168702624Y-147467432D01*
X168768864Y-147374153D02*
X168776833Y-147362259D01*
X168940271Y-147075260D02*
X168946488Y-147062224D01*
X168914654Y-147126953D02*
X168921173Y-147114095D01*
X168752714Y-147397786D02*
X168760821Y-147385994D01*
X168800321Y-147326278D02*
X168808007Y-147314182D01*
X169040139Y-146834146D02*
X169044929Y-146820365D01*
X168838051Y-147265308D02*
X168845381Y-147252968D01*
X169035271Y-146847886D02*
X169040139Y-146834146D01*
X169025285Y-146875253D02*
X169030318Y-146861590D01*
X168894653Y-147165246D02*
X168901395Y-147152526D01*
X168970571Y-147009648D02*
X168976398Y-146996397D01*
X168887833Y-147177917D02*
X168894653Y-147165246D01*
X168823173Y-147289844D02*
X168830649Y-147277598D01*
X168641127Y-147546253D02*
X168650113Y-147535157D01*
X168784730Y-147350317D02*
X168792562Y-147338322D01*
X168952623Y-147049148D02*
X168958681Y-147036023D01*
X168650113Y-147535157D02*
X168659030Y-147524005D01*
X168873975Y-147203126D02*
X168880941Y-147190544D01*
X168744538Y-147409526D02*
X168752714Y-147397786D01*
X169020174Y-146888880D02*
X169025285Y-146875253D01*
X169009706Y-146916005D02*
X169014983Y-146902463D01*
X168998922Y-146942971D02*
X169004352Y-146929510D01*
X168993406Y-146956391D02*
X168998922Y-146942971D01*
X168987818Y-146969767D02*
X168993406Y-146956391D01*
X168982144Y-146983103D02*
X168987818Y-146969767D01*
X168933982Y-147088251D02*
X168940271Y-147075260D01*
X168880941Y-147190544D02*
X168887833Y-147177917D01*
X168776833Y-147362259D02*
X168784730Y-147350317D01*
X168727975Y-147432848D02*
X168736289Y-147421213D01*
X168927616Y-147101197D02*
X168933982Y-147088251D01*
X168702624Y-147467432D02*
X168711141Y-147455959D01*
X168859826Y-147228140D02*
X168866937Y-147215655D01*
X168736289Y-147421213D02*
X168744538Y-147409526D01*
X168845381Y-147252968D02*
X168852638Y-147240577D01*
X168808007Y-147314182D02*
X168815625Y-147302037D01*
X168830649Y-147277598D02*
X168838051Y-147265308D01*
X168792562Y-147338322D02*
X168800321Y-147326278D01*
X168815625Y-147302037D02*
X168823173Y-147289844D01*
X168676666Y-147501537D02*
X168685385Y-147490223D01*
X168976398Y-146996397D02*
X168982144Y-146983103D01*
X168964666Y-147022858D02*
X168970571Y-147009648D01*
X168921173Y-147114095D02*
X168927616Y-147101197D01*
X168901395Y-147152526D02*
X168908061Y-147139762D01*
X168852638Y-147240577D02*
X168859826Y-147228140D01*
X168685385Y-147490223D02*
X168694039Y-147478855D01*
X169067632Y-146750878D02*
X169071924Y-146736866D01*
X168719592Y-147444430D02*
X168727975Y-147432848D01*
X169063258Y-146764849D02*
X169067632Y-146750878D01*
X168908061Y-147139762D02*
X168914654Y-147126953D01*
X169058799Y-146778788D02*
X169063258Y-146764849D01*
X169054256Y-146792682D02*
X169058799Y-146778788D01*
X169049635Y-146806544D02*
X169054256Y-146792682D01*
X168659030Y-147524005D02*
X168667883Y-147512799D01*
X169044929Y-146820365D02*
X169049635Y-146806544D01*
X168760821Y-147385994D02*
X168768864Y-147374153D01*
X168711141Y-147455959D02*
X168719592Y-147444430D01*
X168946488Y-147062224D02*
X168952623Y-147049148D01*
X169030318Y-146861590D02*
X169035271Y-146847886D01*
X168667883Y-147512799D02*
X168676666Y-147501537D01*
X168866937Y-147215655D02*
X168873975Y-147203126D01*
X169014983Y-146902463D02*
X169020174Y-146888880D01*
X168231368Y-147941527D02*
X168242735Y-147932873D01*
X168396093Y-147804869D02*
X168406622Y-147795243D01*
X168585870Y-147611650D02*
X168595241Y-147600890D01*
X168632080Y-147557292D02*
X168641127Y-147546253D01*
X168353402Y-147842729D02*
X168364162Y-147833358D01*
X168613788Y-147579205D02*
X168622969Y-147568275D01*
X168604547Y-147590078D02*
X168613788Y-147579205D01*
X168576439Y-147622353D02*
X168585870Y-147611650D01*
X168265311Y-147915371D02*
X168276517Y-147906518D01*
X167980652Y-148107310D02*
X167993089Y-148100126D01*
X168595241Y-147600890D02*
X168604547Y-147590078D01*
X167943056Y-148128429D02*
X167955634Y-148121463D01*
X167993089Y-148100126D02*
X168005476Y-148092869D01*
X168254049Y-147924154D02*
X168265311Y-147915371D01*
X168557381Y-147643581D02*
X168566938Y-147632996D01*
X168508644Y-147695635D02*
X168518517Y-147685345D01*
X168448147Y-147756132D02*
X168458380Y-147746202D01*
X168342590Y-147852035D02*
X168353402Y-147842729D01*
X168185356Y-147975463D02*
X168196938Y-147967080D01*
X168208467Y-147958629D02*
X168219944Y-147950112D01*
X168276517Y-147906518D02*
X168287669Y-147897601D01*
X168374865Y-147823926D02*
X168385508Y-147814426D01*
X168498714Y-147705868D02*
X168508644Y-147695635D01*
X168458380Y-147746202D02*
X168468553Y-147736208D01*
X168054550Y-148063112D02*
X168066694Y-148055495D01*
X168242735Y-147932873D02*
X168254049Y-147924154D01*
X168150298Y-148000202D02*
X168162034Y-147992026D01*
X168030110Y-148078132D02*
X168042352Y-148070661D01*
X168538073Y-147664579D02*
X168547755Y-147654110D01*
X168309804Y-147879568D02*
X168320787Y-147870456D01*
X168622969Y-147568275D02*
X168632080Y-147557292D01*
X168566938Y-147632996D02*
X168576439Y-147622353D01*
X168547755Y-147654110D02*
X168557381Y-147643581D01*
X168437853Y-147766005D02*
X168448147Y-147756132D01*
X168331717Y-147861276D02*
X168342590Y-147852035D01*
X168385508Y-147814426D02*
X168396093Y-147804869D01*
X168417091Y-147785561D02*
X168427502Y-147775813D01*
X168518517Y-147685345D02*
X168528325Y-147674990D01*
X168488720Y-147716045D02*
X168498714Y-147705868D01*
X168468553Y-147736208D02*
X168478669Y-147726157D01*
X168090834Y-148040050D02*
X168102829Y-148032218D01*
X168196938Y-147967080D02*
X168208467Y-147958629D01*
X167968167Y-148114425D02*
X167980652Y-148107310D01*
X168427502Y-147775813D02*
X168437853Y-147766005D01*
X168406622Y-147795243D02*
X168417091Y-147785561D01*
X168173721Y-147983777D02*
X168185356Y-147975463D01*
X168102829Y-148032218D02*
X168114771Y-148024317D01*
X168078786Y-148047809D02*
X168090834Y-148040050D01*
X168320787Y-147870456D02*
X168331717Y-147861276D01*
X168478669Y-147726157D02*
X168488720Y-147716045D01*
X168364162Y-147833358D02*
X168374865Y-147823926D01*
X168219944Y-147950112D02*
X168231368Y-147941527D01*
X168126665Y-148016348D02*
X168138506Y-148008309D01*
X168114771Y-148024317D02*
X168126665Y-148016348D01*
X168005476Y-148092869D02*
X168017820Y-148085535D01*
X168042352Y-148070661D02*
X168054550Y-148063112D01*
X167955634Y-148121463D02*
X167968167Y-148114425D01*
X168298765Y-147888615D02*
X168309804Y-147879568D01*
X168528325Y-147674990D02*
X168538073Y-147664579D01*
X168287669Y-147897601D02*
X168298765Y-147888615D01*
X168162034Y-147992026D02*
X168173721Y-147983777D01*
X168017820Y-148085535D02*
X168030110Y-148078132D01*
X168066694Y-148055495D02*
X168078786Y-148047809D01*
X168138506Y-148008309D02*
X168150298Y-148000202D01*
X167517361Y-148310742D02*
X167531296Y-148306283D01*
X167489378Y-148319412D02*
X167503390Y-148315119D01*
X167375989Y-148350703D02*
X167390284Y-148347099D01*
X167853705Y-148175100D02*
X167866607Y-148168661D01*
X167201775Y-148387312D02*
X167216471Y-148384761D01*
X167827772Y-148187759D02*
X167840763Y-148181466D01*
X167814736Y-148193971D02*
X167827772Y-148187759D01*
X167332885Y-148361030D02*
X167347286Y-148357669D01*
X167801656Y-148200111D02*
X167814736Y-148193971D01*
X167775370Y-148212150D02*
X167788535Y-148206169D01*
X167614102Y-148277806D02*
X167627766Y-148272773D01*
X167461250Y-148327742D02*
X167475330Y-148323620D01*
X167187047Y-148389782D02*
X167201775Y-148387312D01*
X167788535Y-148206169D02*
X167801656Y-148200111D01*
X167735615Y-148229632D02*
X167748910Y-148223882D01*
X167531296Y-148306283D02*
X167545194Y-148301744D01*
X167475330Y-148323620D02*
X167489378Y-148319412D01*
X167231139Y-148382088D02*
X167245770Y-148379334D01*
X167404551Y-148343414D02*
X167418778Y-148339607D01*
X167068130Y-148406304D02*
X167083102Y-148404563D01*
X167318449Y-148364310D02*
X167332885Y-148361030D01*
X167708899Y-148240894D02*
X167722279Y-148235302D01*
X167682018Y-148251840D02*
X167695479Y-148246406D01*
X167668517Y-148257194D02*
X167682018Y-148251840D01*
X167245770Y-148379334D02*
X167260373Y-148376499D01*
X167559056Y-148297119D02*
X167572873Y-148292413D01*
X167098041Y-148402741D02*
X167112947Y-148400797D01*
X167053134Y-148407965D02*
X167068130Y-148406304D01*
X167545194Y-148301744D02*
X167559056Y-148297119D01*
X167216471Y-148384761D02*
X167231139Y-148382088D01*
X167447129Y-148331792D02*
X167461250Y-148327742D01*
X167112947Y-148400797D02*
X167127829Y-148398772D01*
X167503390Y-148315119D02*
X167517361Y-148310742D01*
X167347286Y-148357669D02*
X167361654Y-148354227D01*
X167172290Y-148392171D02*
X167187047Y-148389782D01*
X167930429Y-148135321D02*
X167943056Y-148128429D01*
X167917758Y-148142136D02*
X167930429Y-148135321D01*
X167905038Y-148148879D02*
X167917758Y-148142136D01*
X167390284Y-148347099D02*
X167404551Y-148343414D01*
X167260373Y-148376499D02*
X167274940Y-148373584D01*
X167303979Y-148367509D02*
X167318449Y-148364310D01*
X167840763Y-148181466D02*
X167853705Y-148175100D01*
X167627766Y-148272773D02*
X167641392Y-148267658D01*
X167892274Y-148155549D02*
X167905038Y-148148879D01*
X167361654Y-148354227D02*
X167375989Y-148350703D01*
X167289478Y-148370587D02*
X167303979Y-148367509D01*
X167418778Y-148339607D02*
X167432971Y-148335760D01*
X167641392Y-148267658D02*
X167654975Y-148262466D01*
X167586658Y-148287627D02*
X167600398Y-148282755D01*
X167748910Y-148223882D02*
X167762160Y-148218054D01*
X167600398Y-148282755D02*
X167614102Y-148277806D01*
X167142679Y-148396666D02*
X167157501Y-148394480D01*
X167572873Y-148292413D02*
X167586658Y-148287627D01*
X167432971Y-148335760D02*
X167447129Y-148331792D01*
X167157501Y-148394480D02*
X167172290Y-148392171D01*
X167083102Y-148404563D02*
X167098041Y-148402741D01*
X167879465Y-148162142D02*
X167892274Y-148155549D01*
X167654975Y-148262466D02*
X167668517Y-148257194D01*
X167127829Y-148398772D02*
X167142679Y-148396666D01*
X167866607Y-148168661D02*
X167879465Y-148162142D01*
X167274940Y-148373584D02*
X167289478Y-148370587D01*
X167762160Y-148218054D02*
X167775370Y-148212150D01*
X167695479Y-148246406D02*
X167708899Y-148240894D01*
X167722279Y-148235302D02*
X167735615Y-148229632D01*
X78733823Y-148412419D02*
X78748932Y-148413715D01*
X167038110Y-148409544D02*
X167053134Y-148407965D01*
X78308829Y-148335841D02*
X78323023Y-148339729D01*
X78437821Y-148367590D02*
X78452323Y-148370668D01*
X167023058Y-148411002D02*
X167038110Y-148409544D01*
X78481427Y-148376580D02*
X78496030Y-148379415D01*
X78408915Y-148361111D02*
X78423352Y-148364391D01*
X167007977Y-148412379D02*
X167023058Y-148411002D01*
X78932282Y-148421814D02*
X78947723Y-148421814D01*
X166962569Y-148415943D02*
X166977731Y-148414849D01*
X78718742Y-148411042D02*
X78733823Y-148412419D01*
X78584299Y-148394520D02*
X78599121Y-148396707D01*
X166992868Y-148413675D02*
X167007977Y-148412379D01*
X166977731Y-148414849D02*
X166992868Y-148413675D01*
X78794421Y-148416995D02*
X78809640Y-148417886D01*
X78688666Y-148408005D02*
X78703690Y-148409585D01*
X78613971Y-148398813D02*
X78628853Y-148400837D01*
X78554753Y-148389823D02*
X78569510Y-148392212D01*
X166947379Y-148416955D02*
X166962569Y-148415943D01*
X166886360Y-148420033D02*
X166901651Y-148419425D01*
X166855696Y-148421005D02*
X166871040Y-148420559D01*
X78394515Y-148357750D02*
X78408915Y-148361111D01*
X166932161Y-148417886D02*
X166947379Y-148416955D01*
X78855441Y-148420033D02*
X78870760Y-148420559D01*
X78901473Y-148421409D02*
X78916865Y-148421814D01*
X78569510Y-148392212D02*
X78584299Y-148394520D01*
X78540025Y-148387352D02*
X78554753Y-148389823D01*
X78628853Y-148400837D02*
X78643760Y-148402781D01*
X166794077Y-148421814D02*
X166809518Y-148421814D01*
X78748932Y-148413715D02*
X78764070Y-148414890D01*
X78452323Y-148370668D02*
X78466861Y-148373665D01*
X78365811Y-148350784D02*
X78380147Y-148354307D01*
X78466861Y-148373665D02*
X78481427Y-148376580D01*
X78323023Y-148339729D02*
X78337249Y-148343495D01*
X166901651Y-148419425D02*
X166916922Y-148418696D01*
X78380147Y-148354307D02*
X78394515Y-148357750D01*
X166871040Y-148420559D02*
X166886360Y-148420033D01*
X166840328Y-148421409D02*
X166855696Y-148421005D01*
X166809518Y-148421814D02*
X166824935Y-148421814D01*
X78764070Y-148414890D02*
X78779231Y-148415983D01*
X78510661Y-148382169D02*
X78525329Y-148384801D01*
X78280551Y-148327823D02*
X78294672Y-148331873D01*
X78599121Y-148396707D02*
X78613971Y-148398813D01*
X78840149Y-148419425D02*
X78855441Y-148420033D01*
X78947723Y-148421814D02*
X166794077Y-148421814D01*
X78658699Y-148404604D02*
X78673670Y-148406345D01*
X78643760Y-148402781D02*
X78658699Y-148404604D01*
X78294672Y-148331873D02*
X78308829Y-148335841D01*
X78916865Y-148421814D02*
X78932282Y-148421814D01*
X78351516Y-148347180D02*
X78365811Y-148350784D01*
X78703690Y-148409585D02*
X78718742Y-148411042D01*
X78496030Y-148379415D02*
X78510661Y-148382169D01*
X78886104Y-148421005D02*
X78901473Y-148421409D01*
X166916922Y-148418696D02*
X166932161Y-148417886D01*
X78525329Y-148384801D02*
X78540025Y-148387352D01*
X166824935Y-148421814D02*
X166840328Y-148421409D01*
X78870760Y-148420559D02*
X78886104Y-148421005D01*
X78423352Y-148364391D02*
X78437821Y-148367590D01*
X78337249Y-148343495D02*
X78351516Y-148347180D01*
X78779231Y-148415983D02*
X78794421Y-148416995D01*
X78673670Y-148406345D02*
X78688666Y-148408005D01*
X78266470Y-148323697D02*
X78280551Y-148327823D01*
X78809640Y-148417886D02*
X78824878Y-148418696D01*
X78824878Y-148418696D02*
X78840149Y-148419425D01*
X77487751Y-147924235D02*
X77499066Y-147932954D01*
X77888095Y-148175181D02*
X77901038Y-148181547D01*
X77533333Y-147958710D02*
X77544863Y-147967161D01*
X78238410Y-148315196D02*
X78252422Y-148319489D01*
X77836762Y-148148960D02*
X77849527Y-148155630D01*
X78168927Y-148292494D02*
X78182744Y-148297200D01*
X78127698Y-148277883D02*
X78141402Y-148282836D01*
X77510433Y-147941604D02*
X77521857Y-147950189D01*
X77736324Y-148092946D02*
X77748712Y-148100207D01*
X78224439Y-148310823D02*
X78238410Y-148315196D01*
X78182744Y-148297200D02*
X78196606Y-148301825D01*
X78155142Y-148287704D02*
X78168927Y-148292494D01*
X77723981Y-148085616D02*
X77736324Y-148092946D01*
X77521857Y-147950189D02*
X77533333Y-147958710D01*
X78100408Y-148267739D02*
X78114035Y-148272854D01*
X78032901Y-148240975D02*
X78046321Y-148246487D01*
X77953265Y-148206250D02*
X77966431Y-148212231D01*
X77824042Y-148142217D02*
X77836762Y-148148960D01*
X77650966Y-148040127D02*
X77663014Y-148047886D01*
X77675106Y-148055576D02*
X77687251Y-148063193D01*
X77748712Y-148100207D02*
X77761148Y-148107391D01*
X77862336Y-148162223D02*
X77875193Y-148168738D01*
X78073284Y-148257275D02*
X78086825Y-148262547D01*
X78019521Y-148235383D02*
X78032901Y-148240975D01*
X77966431Y-148212231D02*
X77979640Y-148218135D01*
X77711690Y-148078213D02*
X77723981Y-148085616D01*
X77615135Y-148016429D02*
X77627029Y-148024398D01*
X77568079Y-147983858D02*
X77579766Y-147992103D01*
X77499066Y-147932954D02*
X77510433Y-147941604D01*
X77786166Y-148121544D02*
X77798745Y-148128510D01*
X78252422Y-148319489D02*
X78266470Y-148323697D01*
X78210504Y-148306364D02*
X78224439Y-148310823D01*
X78086825Y-148262547D02*
X78100408Y-148267739D01*
X77940145Y-148200188D02*
X77953265Y-148206250D01*
X77811371Y-148135398D02*
X77824042Y-148142217D01*
X77875193Y-148168738D02*
X77888095Y-148175181D01*
X77914029Y-148187836D02*
X77927064Y-148194052D01*
X78196606Y-148301825D02*
X78210504Y-148306364D01*
X78141402Y-148282836D02*
X78155142Y-148287704D01*
X78114035Y-148272854D02*
X78127698Y-148277883D01*
X77556444Y-147975544D02*
X77568079Y-147983858D01*
X78006186Y-148229713D02*
X78019521Y-148235383D01*
X77663014Y-148047886D02*
X77675106Y-148055576D01*
X78059782Y-148251921D02*
X78073284Y-148257275D01*
X77927064Y-148194052D02*
X77940145Y-148200188D01*
X77979640Y-148218135D02*
X77992891Y-148223963D01*
X77638971Y-148032299D02*
X77650966Y-148040127D01*
X77901038Y-148181547D02*
X77914029Y-148187836D01*
X77798745Y-148128510D02*
X77811371Y-148135398D01*
X78046321Y-148246487D02*
X78059782Y-148251921D01*
X77992891Y-148223963D02*
X78006186Y-148229713D01*
X77849527Y-148155630D02*
X77862336Y-148162223D01*
X77687251Y-148063193D02*
X77699448Y-148070738D01*
X77591502Y-148000283D02*
X77603294Y-148008390D01*
X77476489Y-147915448D02*
X77487751Y-147924235D01*
X77579766Y-147992103D02*
X77591502Y-148000283D01*
X77773633Y-148114502D02*
X77786166Y-148121544D01*
X77465284Y-147906595D02*
X77476489Y-147915448D01*
X77761148Y-148107391D02*
X77773633Y-148114502D01*
X77699448Y-148070738D02*
X77711690Y-148078213D01*
X77544863Y-147967161D02*
X77556444Y-147975544D01*
X77627029Y-148024398D02*
X77638971Y-148032299D01*
X77454131Y-147897678D02*
X77465284Y-147906595D01*
X77603294Y-148008390D02*
X77615135Y-148016429D01*
X77314298Y-147775894D02*
X77324710Y-147785641D01*
X77303947Y-147766086D02*
X77314298Y-147775894D01*
X77293653Y-147756213D02*
X77303947Y-147766086D01*
X77273247Y-147736289D02*
X77283420Y-147746283D01*
X77194045Y-147654191D02*
X77203728Y-147664659D01*
X77165362Y-147622430D02*
X77174862Y-147633077D01*
X77128012Y-147579286D02*
X77137253Y-147590155D01*
X76989086Y-147397867D02*
X76997263Y-147409603D01*
X77030660Y-147456036D02*
X77039176Y-147467513D01*
X76896419Y-147253045D02*
X76903749Y-147265389D01*
X77213475Y-147675071D02*
X77223283Y-147685422D01*
X77100673Y-147546330D02*
X77109720Y-147557373D01*
X76957070Y-147350394D02*
X76964967Y-147362340D01*
X77091687Y-147535234D02*
X77100673Y-147546330D01*
X76949238Y-147338403D02*
X76957070Y-147350394D01*
X77013825Y-147432925D02*
X77022208Y-147444507D01*
X76881974Y-147228221D02*
X76889162Y-147240658D01*
X76972937Y-147374234D02*
X76980979Y-147386075D01*
X77184419Y-147643662D02*
X77194045Y-147654191D01*
X77073918Y-147512880D02*
X77082770Y-147524086D01*
X76933793Y-147314263D02*
X76941479Y-147326355D01*
X77283420Y-147746283D02*
X77293653Y-147756213D01*
X77263131Y-147726238D02*
X77273247Y-147736289D01*
X77253080Y-147716122D02*
X77263131Y-147726238D01*
X77243086Y-147705949D02*
X77253080Y-147716122D01*
X77233156Y-147695716D02*
X77243086Y-147705949D01*
X77223283Y-147685422D02*
X77233156Y-147695716D01*
X77155930Y-147611731D02*
X77165362Y-147622430D01*
X77082770Y-147524086D02*
X77091687Y-147535234D01*
X76941479Y-147326355D02*
X76949238Y-147338403D01*
X77146559Y-147600971D02*
X77155930Y-147611731D01*
X77056415Y-147490304D02*
X77065134Y-147501618D01*
X77039176Y-147467513D02*
X77047761Y-147478936D01*
X77022208Y-147444507D02*
X77030660Y-147456036D01*
X77005512Y-147421290D02*
X77013825Y-147432925D01*
X76997263Y-147409603D02*
X77005512Y-147421290D01*
X76918627Y-147289921D02*
X76926176Y-147302118D01*
X76867825Y-147203203D02*
X76874863Y-147215736D01*
X76980979Y-147386075D02*
X76989086Y-147397867D01*
X76903749Y-147265389D02*
X76911152Y-147277679D01*
X76889162Y-147240658D02*
X76896419Y-147253045D01*
X76874863Y-147215736D02*
X76881974Y-147228221D01*
X77203728Y-147664659D02*
X77213475Y-147675071D01*
X77137253Y-147590155D02*
X77146559Y-147600971D01*
X77109720Y-147557373D02*
X77118832Y-147568356D01*
X77047761Y-147478936D02*
X77056415Y-147490304D01*
X76964967Y-147362340D02*
X76972937Y-147374234D01*
X76911152Y-147277679D02*
X76918627Y-147289921D01*
X77431996Y-147879649D02*
X77443035Y-147888696D01*
X77443035Y-147888696D02*
X77454131Y-147897678D01*
X77421013Y-147870533D02*
X77431996Y-147879649D01*
X77118832Y-147568356D02*
X77128012Y-147579286D01*
X77410084Y-147861357D02*
X77421013Y-147870533D01*
X77399210Y-147852116D02*
X77410084Y-147861357D01*
X77388398Y-147842810D02*
X77399210Y-147852116D01*
X77377638Y-147833439D02*
X77388398Y-147842810D01*
X77366935Y-147824003D02*
X77377638Y-147833439D01*
X77356293Y-147814507D02*
X77366935Y-147824003D01*
X77345707Y-147804946D02*
X77356293Y-147814507D01*
X77174862Y-147633077D02*
X77184419Y-147643662D01*
X77335178Y-147795324D02*
X77345707Y-147804946D01*
X77065134Y-147501618D02*
X77073918Y-147512880D01*
X76926176Y-147302118D02*
X76933793Y-147314263D01*
X77324710Y-147785641D02*
X77335178Y-147795324D01*
X76590512Y-146375394D02*
X76592618Y-146390244D01*
X76631575Y-146594855D02*
X76635017Y-146609223D01*
X76711482Y-146861671D02*
X76716516Y-146875334D01*
X76833739Y-147139843D02*
X76840405Y-147152607D01*
X76618697Y-146537042D02*
X76621775Y-146551548D01*
X76820627Y-147114176D02*
X76827147Y-147127034D01*
X76721626Y-146888957D02*
X76726818Y-146902544D01*
X76706529Y-146847967D02*
X76711482Y-146861671D01*
X76597113Y-146419855D02*
X76599502Y-146434616D01*
X76840405Y-147152607D02*
X76847148Y-147165327D01*
X76814184Y-147101274D02*
X76820627Y-147114176D01*
X76748394Y-146956468D02*
X76753982Y-146969848D01*
X76742878Y-146943048D02*
X76748394Y-146956468D01*
X76594805Y-146405066D02*
X76597113Y-146419855D01*
X76726818Y-146902544D02*
X76732094Y-146916086D01*
X76674169Y-146750959D02*
X76678542Y-146764930D01*
X76649636Y-146666346D02*
X76653524Y-146680540D01*
X76615701Y-146522508D02*
X76618697Y-146537042D01*
X76582980Y-146315699D02*
X76584721Y-146330666D01*
X76586543Y-146345605D02*
X76588487Y-146360516D01*
X76599502Y-146434616D02*
X76601972Y-146449344D01*
X76624934Y-146566017D02*
X76628214Y-146580450D01*
X76716516Y-146875334D02*
X76721626Y-146888957D01*
X76669876Y-146736947D02*
X76674169Y-146750959D01*
X76653524Y-146680540D02*
X76657493Y-146694694D01*
X76696871Y-146820442D02*
X76701662Y-146834223D01*
X76592618Y-146390244D02*
X76594805Y-146405066D01*
X76807818Y-147088328D02*
X76814184Y-147101274D01*
X76687545Y-146792763D02*
X76692165Y-146806621D01*
X76607196Y-146478704D02*
X76609950Y-146493339D01*
X76801529Y-147075341D02*
X76807818Y-147088328D01*
X76783119Y-147036104D02*
X76789178Y-147049225D01*
X76692165Y-146806621D02*
X76696871Y-146820442D01*
X76645830Y-146652116D02*
X76649636Y-146666346D01*
X76612785Y-146507938D02*
X76615701Y-146522508D01*
X76628214Y-146580450D02*
X76631575Y-146594855D01*
X76638540Y-146623554D02*
X76642144Y-146637853D01*
X76860860Y-147190625D02*
X76867825Y-147203203D01*
X76853967Y-147177998D02*
X76860860Y-147190625D01*
X76847148Y-147165327D02*
X76853967Y-147177998D01*
X76765402Y-146996478D02*
X76771230Y-147009729D01*
X76665669Y-146722899D02*
X76669876Y-146736947D01*
X76584721Y-146330666D02*
X76586543Y-146345605D01*
X76795313Y-147062305D02*
X76801529Y-147075341D01*
X76642144Y-146637853D02*
X76645830Y-146652116D01*
X76771230Y-147009729D02*
X76777134Y-147022939D01*
X76657493Y-146694694D02*
X76661542Y-146708815D01*
X76635017Y-146609223D02*
X76638540Y-146623554D01*
X76609950Y-146493339D02*
X76612785Y-146507938D01*
X76678542Y-146764930D02*
X76683001Y-146778865D01*
X76661542Y-146708815D02*
X76665669Y-146722899D01*
X76621775Y-146551548D02*
X76624934Y-146566017D01*
X76588487Y-146360516D02*
X76590512Y-146375394D01*
X76737448Y-146929587D02*
X76742878Y-146943048D01*
X76753982Y-146969848D02*
X76759656Y-146983184D01*
X76701662Y-146834223D02*
X76706529Y-146847967D01*
X76827147Y-147127034D02*
X76833739Y-147139843D01*
X76604524Y-146464040D02*
X76607196Y-146478704D01*
X76789178Y-147049225D02*
X76795313Y-147062305D01*
X76759656Y-146983184D02*
X76765402Y-146996478D01*
X76732094Y-146916086D02*
X76737448Y-146929587D01*
X76601972Y-146449344D02*
X76604524Y-146464040D01*
X76777134Y-147022939D02*
X76783119Y-147036104D01*
X76683001Y-146778865D02*
X76687545Y-146792763D01*
X74729503Y-132050474D02*
X75390942Y-132854726D01*
X73985428Y-131415496D02*
X74729503Y-132050474D01*
X68982083Y-130146908D02*
X69442847Y-130171817D01*
X68196528Y-129963857D02*
X68563139Y-130094826D01*
X67096493Y-97361734D02*
X67079165Y-97557270D01*
X67572860Y-96027648D02*
X67304764Y-96452237D01*
X71298936Y-130272292D02*
X72249783Y-130526607D01*
X69211076Y-95209219D02*
X68734425Y-95269829D01*
X76581319Y-146300703D02*
X76582980Y-146315699D01*
X76579740Y-146285675D02*
X76581319Y-146300703D01*
X76578282Y-146270623D02*
X76579740Y-146285675D01*
X76576905Y-146255542D02*
X76578282Y-146270623D01*
X76575609Y-146240433D02*
X76576905Y-146255542D01*
X76569859Y-146149216D02*
X76570588Y-146164487D01*
X76574435Y-146225296D02*
X76575609Y-146240433D01*
X76548173Y-136580364D02*
X76567470Y-137118723D01*
X67079165Y-127808139D02*
X67123492Y-128288321D01*
X76567474Y-79223054D02*
X76567474Y-79238495D01*
X67156042Y-96906988D02*
X67096493Y-97361734D01*
X75776088Y-91131678D02*
X75168424Y-92127298D01*
X76573342Y-146210134D02*
X76574435Y-146225296D01*
X76568725Y-146118605D02*
X76569252Y-146133924D01*
X76567470Y-146041642D02*
X76567470Y-146057083D01*
X73159122Y-130907270D02*
X73985428Y-131415496D01*
X70307365Y-130187655D02*
X71298936Y-130272292D01*
X67830164Y-129754509D02*
X68196528Y-129963857D01*
X74357725Y-93023836D02*
X73445745Y-93820811D01*
X76232077Y-90036016D02*
X75776088Y-91131678D01*
X76506661Y-135606434D02*
X76548173Y-136580364D01*
X69442847Y-130171817D02*
X70307365Y-130187655D01*
X67542189Y-129466529D02*
X67830164Y-129754509D01*
X73445745Y-93820811D02*
X72432979Y-94418185D01*
X76586786Y-87695109D02*
X76535907Y-88890334D01*
X67306546Y-129099923D02*
X67542189Y-129466529D01*
X69903283Y-95193077D02*
X69442847Y-95193077D01*
X67900506Y-95694127D02*
X67572860Y-96027648D01*
X76567474Y-86996718D02*
X76586786Y-87695109D01*
X76572329Y-146194944D02*
X76573342Y-146210134D01*
X76258768Y-134632908D02*
X76506661Y-135606434D01*
X75886731Y-133701499D02*
X76258768Y-134632908D01*
X68563139Y-130094826D02*
X68982083Y-130146908D01*
X68317324Y-95451673D02*
X67900506Y-95694127D01*
X75390942Y-132854726D02*
X75886731Y-133701499D01*
X72249783Y-130526607D02*
X73159122Y-130907270D01*
X67123492Y-128288321D02*
X67175829Y-128707265D01*
X68734425Y-95269829D02*
X68317324Y-95451673D01*
X67175829Y-128707265D02*
X67306546Y-129099923D01*
X67079165Y-97557270D02*
X67079165Y-127808139D01*
X76567470Y-137118723D02*
X76567470Y-146041642D01*
X76571398Y-146179730D02*
X76572329Y-146194944D01*
X69442847Y-95193077D02*
X69211076Y-95209219D01*
X71318443Y-94866448D02*
X70529239Y-95103127D01*
X76567875Y-146087893D02*
X76568280Y-146103261D01*
X76567470Y-146072500D02*
X76567875Y-146087893D01*
X70529239Y-95103127D02*
X69903283Y-95193077D01*
X75168424Y-92127298D02*
X74357725Y-93023836D01*
X76567474Y-79238495D02*
X76567474Y-86996718D01*
X76535907Y-88890334D02*
X76232077Y-90036016D01*
X72432979Y-94418185D02*
X71318443Y-94866448D01*
X67304764Y-96452237D02*
X67156042Y-96906988D01*
X76570588Y-146164487D02*
X76571398Y-146179730D01*
X76569252Y-146133924D02*
X76569859Y-146149216D01*
X76567470Y-146057083D02*
X76567470Y-146072500D01*
X76568280Y-146103261D02*
X76568725Y-146118605D01*
X76604528Y-78816099D02*
X76601976Y-78830796D01*
X76753987Y-78310293D02*
X76748398Y-78323671D01*
X76567474Y-79207637D02*
X76567474Y-79223054D01*
X76567879Y-79192244D02*
X76567474Y-79207637D01*
X76568284Y-79176876D02*
X76567879Y-79192244D01*
X76578286Y-79009515D02*
X76576909Y-79024596D01*
X76661546Y-78571324D02*
X76657497Y-78585444D01*
X76607200Y-78801434D02*
X76604528Y-78816099D01*
X76737452Y-78350552D02*
X76732098Y-78364054D01*
X76716520Y-78404805D02*
X76711486Y-78418469D01*
X76635062Y-78670918D02*
X76631620Y-78685285D01*
X76732098Y-78364054D02*
X76726822Y-78377597D01*
X76711486Y-78418469D02*
X76706533Y-78432172D01*
X76594809Y-78875073D02*
X76592622Y-78889893D01*
X76612789Y-78772200D02*
X76609954Y-78786801D01*
X76742883Y-78337091D02*
X76737452Y-78350552D01*
X76628258Y-78699687D02*
X76624978Y-78714123D01*
X76642189Y-78642285D02*
X76638585Y-78656584D01*
X76568729Y-79161532D02*
X76568284Y-79176876D01*
X76569863Y-79130920D02*
X76569256Y-79146213D01*
X76571402Y-79100410D02*
X76570592Y-79115652D01*
X76581323Y-78979437D02*
X76579744Y-78994462D01*
X76586547Y-78934533D02*
X76584725Y-78949472D01*
X76624978Y-78714123D02*
X76621779Y-78728593D01*
X76687549Y-78487377D02*
X76683005Y-78501274D01*
X76638585Y-78656584D02*
X76635062Y-78670918D01*
X76645874Y-78628022D02*
X76642189Y-78642285D01*
X76696875Y-78459697D02*
X76692169Y-78473518D01*
X76569256Y-79146213D02*
X76568729Y-79161532D01*
X76601976Y-78830796D02*
X76599506Y-78845524D01*
X76575614Y-79039705D02*
X76574439Y-79054841D01*
X76570592Y-79115652D02*
X76569863Y-79130920D01*
X76665673Y-78557240D02*
X76661546Y-78571324D01*
X76572333Y-79085193D02*
X76571402Y-79100410D01*
X76573346Y-79070004D02*
X76572333Y-79085193D01*
X76574439Y-79054841D02*
X76573346Y-79070004D01*
X76576909Y-79024596D02*
X76575614Y-79039705D01*
X76579744Y-78994462D02*
X76578286Y-79009515D01*
X76599506Y-78845524D02*
X76597117Y-78860283D01*
X76631620Y-78685285D02*
X76628258Y-78699687D01*
X76674173Y-78529182D02*
X76669880Y-78543192D01*
X76653528Y-78599601D02*
X76649640Y-78613794D01*
X76721630Y-78391181D02*
X76716520Y-78404805D01*
X76588491Y-78919623D02*
X76586547Y-78934533D01*
X76618701Y-78743096D02*
X76615705Y-78757632D01*
X76621779Y-78728593D02*
X76618701Y-78743096D01*
X76669880Y-78543192D02*
X76665673Y-78557240D01*
X76678546Y-78515210D02*
X76674173Y-78529182D01*
X76582984Y-78964440D02*
X76581323Y-78979437D01*
X76609954Y-78786801D02*
X76607200Y-78801434D01*
X76657497Y-78585444D02*
X76653528Y-78599601D01*
X76748398Y-78323671D02*
X76742883Y-78337091D01*
X76584725Y-78949472D02*
X76582984Y-78964440D01*
X76649640Y-78613794D02*
X76645874Y-78628022D01*
X76706533Y-78432172D02*
X76701666Y-78445915D01*
X76692169Y-78473518D02*
X76687549Y-78487377D01*
X76726822Y-78377597D02*
X76721630Y-78391181D01*
X76592622Y-78889893D02*
X76590516Y-78904743D01*
X76597117Y-78860283D02*
X76594809Y-78875073D01*
X76615705Y-78757632D02*
X76612789Y-78772200D01*
X76759660Y-78296956D02*
X76753987Y-78310293D01*
X76701666Y-78445915D02*
X76696875Y-78459697D01*
X76683005Y-78501274D02*
X76678546Y-78515210D01*
X76590516Y-78904743D02*
X76588491Y-78919623D01*
X77736328Y-77187191D02*
X77723985Y-77194522D01*
X77748716Y-77179933D02*
X77736328Y-77187191D01*
X77432000Y-77400491D02*
X77421017Y-77409605D01*
X77510437Y-77338534D02*
X77499070Y-77347186D01*
X77638975Y-77247841D02*
X77627033Y-77255741D01*
X77650970Y-77240011D02*
X77638975Y-77247841D01*
X77699452Y-77209399D02*
X77687255Y-77216945D01*
X77786171Y-77158596D02*
X77773637Y-77165635D01*
X77824046Y-77137921D02*
X77811375Y-77144739D01*
X77687255Y-77216945D02*
X77675110Y-77224563D01*
X77849531Y-77124510D02*
X77836766Y-77131178D01*
X77410088Y-77418783D02*
X77399214Y-77428025D01*
X77711694Y-77201925D02*
X77699452Y-77209399D01*
X77454135Y-77382460D02*
X77443039Y-77391443D01*
X77798749Y-77151631D02*
X77786171Y-77158596D01*
X77293657Y-77523926D02*
X77283424Y-77533858D01*
X77345711Y-77475192D02*
X77335182Y-77484815D01*
X77399214Y-77428025D02*
X77388402Y-77437331D01*
X77811375Y-77144739D02*
X77798749Y-77151631D01*
X77443039Y-77391443D02*
X77432000Y-77400491D01*
X77579770Y-77288035D02*
X77568083Y-77296282D01*
X77465288Y-77373542D02*
X77454135Y-77382460D01*
X77603298Y-77271750D02*
X77591506Y-77279858D01*
X77283424Y-77533858D02*
X77273251Y-77543850D01*
X77303951Y-77514056D02*
X77293657Y-77523926D01*
X77836766Y-77131178D02*
X77824046Y-77137921D01*
X77521861Y-77329948D02*
X77510437Y-77338534D01*
X77314302Y-77504247D02*
X77303951Y-77514056D01*
X77324714Y-77494500D02*
X77314302Y-77504247D01*
X77335182Y-77484815D02*
X77324714Y-77494500D01*
X77421017Y-77409605D02*
X77410088Y-77418783D01*
X77544867Y-77312979D02*
X77533337Y-77321430D01*
X77761152Y-77172748D02*
X77748716Y-77179933D01*
X77487755Y-77355905D02*
X77476493Y-77364691D01*
X77663018Y-77232252D02*
X77650970Y-77240011D01*
X77377642Y-77446701D02*
X77366939Y-77456135D01*
X77388402Y-77437331D02*
X77377642Y-77446701D01*
X77533337Y-77321430D02*
X77521861Y-77329948D01*
X77556448Y-77304596D02*
X77544867Y-77312979D01*
X77476493Y-77364691D02*
X77465288Y-77373542D01*
X77499070Y-77347186D02*
X77487755Y-77355905D01*
X77723985Y-77194522D02*
X77711694Y-77201925D01*
X77773637Y-77165635D02*
X77761152Y-77172748D01*
X77875197Y-77111399D02*
X77862340Y-77117917D01*
X77627033Y-77255741D02*
X77615139Y-77263710D01*
X77591506Y-77279858D02*
X77579770Y-77288035D01*
X77675110Y-77224563D02*
X77663018Y-77232252D01*
X77366939Y-77456135D02*
X77356297Y-77465632D01*
X77568083Y-77296282D02*
X77556448Y-77304596D01*
X77615139Y-77263710D02*
X77603298Y-77271750D01*
X77862340Y-77117917D02*
X77849531Y-77124510D01*
X77356297Y-77465632D02*
X77345711Y-77475192D01*
X78100412Y-77012398D02*
X78086829Y-77017591D01*
X78127702Y-77002253D02*
X78114039Y-77007285D01*
X78238414Y-76964940D02*
X78224443Y-76969315D01*
X77914033Y-77092300D02*
X77901042Y-77098590D01*
X78408919Y-76919015D02*
X78394519Y-76922372D01*
X77940149Y-77079949D02*
X77927068Y-77086086D01*
X77953269Y-77073889D02*
X77940149Y-77079949D01*
X78280555Y-76952315D02*
X78266474Y-76956439D01*
X77966435Y-77067907D02*
X77953269Y-77073889D01*
X78643764Y-76877324D02*
X78628857Y-76879256D01*
X78006190Y-77050426D02*
X77992895Y-77056175D01*
X78155146Y-76992432D02*
X78141406Y-76997302D01*
X78423356Y-76915747D02*
X78408919Y-76919015D01*
X78086829Y-77017591D02*
X78073288Y-77022865D01*
X78141406Y-76997302D02*
X78127702Y-77002253D01*
X78210509Y-76973773D02*
X78196610Y-76978315D01*
X78380151Y-76925814D02*
X78365815Y-76929342D01*
X78628857Y-76879256D02*
X78613975Y-76881281D01*
X78294676Y-76948273D02*
X78280555Y-76952315D01*
X78540029Y-76892753D02*
X78525333Y-76895317D01*
X78718746Y-76869047D02*
X78703694Y-76870517D01*
X77979645Y-77062002D02*
X77966435Y-77067907D01*
X78059786Y-77028218D02*
X78046325Y-77033652D01*
X78073288Y-77022865D02*
X78059786Y-77028218D01*
X78365815Y-76929342D02*
X78351520Y-76932958D01*
X78114039Y-77007285D02*
X78100412Y-77012398D01*
X78510665Y-76897969D02*
X78496034Y-76900711D01*
X78554757Y-76890279D02*
X78540029Y-76892753D01*
X78168931Y-76987645D02*
X78155146Y-76992432D01*
X78394519Y-76922372D02*
X78380151Y-76925814D01*
X78224443Y-76969315D02*
X78210509Y-76973773D01*
X78496034Y-76900711D02*
X78481431Y-76903541D01*
X78584303Y-76885598D02*
X78569514Y-76887894D01*
X78266474Y-76956439D02*
X78252426Y-76960647D01*
X78437825Y-76912564D02*
X78423356Y-76915747D01*
X78599125Y-76883395D02*
X78584303Y-76885598D01*
X78748936Y-76866382D02*
X78733827Y-76867666D01*
X78308833Y-76944317D02*
X78294676Y-76948273D01*
X78658703Y-76875486D02*
X78643764Y-76877324D01*
X78351520Y-76932958D02*
X78337253Y-76936659D01*
X78779235Y-76864094D02*
X78764074Y-76865192D01*
X77992895Y-77056175D02*
X77979645Y-77062002D01*
X78703694Y-76870517D02*
X78688670Y-76872080D01*
X78019525Y-77044756D02*
X78006190Y-77050426D01*
X78252426Y-76960647D02*
X78238414Y-76964940D01*
X78323027Y-76940446D02*
X78308833Y-76944317D01*
X78196610Y-76978315D02*
X78182748Y-76982938D01*
X78764074Y-76865192D02*
X78748936Y-76866382D01*
X78032905Y-77039164D02*
X78019525Y-77044756D01*
X78733827Y-76867666D02*
X78718746Y-76869047D01*
X78046325Y-77033652D02*
X78032905Y-77039164D01*
X78466865Y-76906461D02*
X78452327Y-76909470D01*
X78182748Y-76982938D02*
X78168931Y-76987645D01*
X78452327Y-76909470D02*
X78437825Y-76912564D01*
X78525333Y-76895317D02*
X78510665Y-76897969D01*
X78613975Y-76881281D02*
X78599125Y-76883395D01*
X78688670Y-76872080D02*
X78673674Y-76873736D01*
X78569514Y-76887894D02*
X78554757Y-76890279D01*
X78481431Y-76903541D02*
X78466865Y-76906461D01*
X78337253Y-76936659D02*
X78323027Y-76940446D01*
X78673674Y-76873736D02*
X78658703Y-76875486D01*
X77888099Y-77104957D02*
X77875197Y-77111399D01*
X77927068Y-77086086D02*
X77914033Y-77092300D01*
X77901042Y-77098590D02*
X77888099Y-77104957D01*
X166901631Y-76860644D02*
X166886339Y-76860020D01*
X167361634Y-76925814D02*
X167347266Y-76922372D01*
X167083081Y-76875486D02*
X167068110Y-76873736D01*
X78932286Y-76858328D02*
X78916869Y-76858490D01*
X167418757Y-76940446D02*
X167404531Y-76936659D01*
X166794057Y-76858287D02*
X78947727Y-76858287D01*
X167053114Y-76872080D02*
X167038090Y-76870517D01*
X167098020Y-76877324D02*
X167083081Y-76875486D01*
X167531276Y-76973773D02*
X167517341Y-76969315D01*
X78824882Y-76861365D02*
X78809644Y-76862179D01*
X78901477Y-76858733D02*
X78886108Y-76859057D01*
X78916869Y-76858490D02*
X78901477Y-76858733D01*
X166809498Y-76858328D02*
X166794057Y-76858287D01*
X167545174Y-76978315D02*
X167531276Y-76973773D01*
X166977711Y-76865192D02*
X166962549Y-76864094D01*
X166992848Y-76866382D02*
X166977711Y-76865192D01*
X167201755Y-76892753D02*
X167187027Y-76890279D01*
X167289457Y-76909470D02*
X167274919Y-76906461D01*
X167038090Y-76870517D02*
X167023038Y-76869047D01*
X167432951Y-76944317D02*
X167418757Y-76940446D01*
X167517341Y-76969315D02*
X167503370Y-76964940D01*
X167390264Y-76932958D02*
X167375969Y-76929342D01*
X167068110Y-76873736D02*
X167053114Y-76872080D01*
X167216451Y-76895317D02*
X167201755Y-76892753D01*
X167274919Y-76906461D02*
X167260353Y-76903541D01*
X167127809Y-76881281D02*
X167112927Y-76879256D01*
X167559036Y-76982938D02*
X167545174Y-76978315D01*
X166824915Y-76858490D02*
X166809498Y-76858328D01*
X167157481Y-76885598D02*
X167142659Y-76883395D01*
X167475310Y-76956439D02*
X167461230Y-76952315D01*
X166840307Y-76858733D02*
X166824915Y-76858490D01*
X166886339Y-76860020D02*
X166871020Y-76859490D01*
X167142659Y-76883395D02*
X167127809Y-76881281D01*
X167303959Y-76912564D02*
X167289457Y-76909470D01*
X167447109Y-76948273D02*
X167432951Y-76944317D01*
X167375969Y-76929342D02*
X167361634Y-76925814D01*
X167332865Y-76919015D02*
X167318428Y-76915747D01*
X78855445Y-76860020D02*
X78840154Y-76860644D01*
X78840154Y-76860644D02*
X78824882Y-76861365D01*
X78886108Y-76859057D02*
X78870764Y-76859490D01*
X166932140Y-76862179D02*
X166916902Y-76861365D01*
X167231119Y-76897969D02*
X167216451Y-76895317D01*
X78794425Y-76863090D02*
X78779235Y-76864094D01*
X166855676Y-76859057D02*
X166840307Y-76858733D01*
X167318428Y-76915747D02*
X167303959Y-76912564D01*
X166916902Y-76861365D02*
X166901631Y-76860644D01*
X167260353Y-76903541D02*
X167245750Y-76900711D01*
X167347266Y-76922372D02*
X167332865Y-76919015D01*
X167461230Y-76952315D02*
X167447109Y-76948273D01*
X167187027Y-76890279D02*
X167172270Y-76887894D01*
X167245750Y-76900711D02*
X167231119Y-76897969D01*
X167404531Y-76936659D02*
X167390264Y-76932958D01*
X78809644Y-76862179D02*
X78794425Y-76863090D01*
X167007957Y-76867666D02*
X166992848Y-76866382D01*
X166962549Y-76864094D02*
X166947359Y-76863090D01*
X167112927Y-76879256D02*
X167098020Y-76877324D01*
X78947727Y-76858287D02*
X78932286Y-76858328D01*
X167489358Y-76960647D02*
X167475310Y-76956439D01*
X166871020Y-76859490D02*
X166855676Y-76859057D01*
X166947359Y-76863090D02*
X166932140Y-76862179D01*
X167023038Y-76869047D02*
X167007957Y-76867666D01*
X167503370Y-76964940D02*
X167489358Y-76960647D01*
X78870764Y-76859490D02*
X78855445Y-76860020D01*
X167172270Y-76887894D02*
X167157481Y-76885598D01*
X167814716Y-77086086D02*
X167801635Y-77079949D01*
X167955614Y-77158596D02*
X167943036Y-77151631D01*
X168042332Y-77209399D02*
X168030090Y-77201925D01*
X168066674Y-77224563D02*
X168054529Y-77216945D01*
X167968147Y-77165635D02*
X167955614Y-77158596D01*
X168196918Y-77312979D02*
X168185336Y-77304596D01*
X168005456Y-77187191D02*
X167993068Y-77179933D01*
X168242715Y-77347186D02*
X168231347Y-77338534D01*
X167572853Y-76987645D02*
X167559036Y-76982938D01*
X167586638Y-76992432D02*
X167572853Y-76987645D01*
X167600378Y-76997302D02*
X167586638Y-76992432D01*
X167614082Y-77002253D02*
X167600378Y-76997302D01*
X168276496Y-77373542D02*
X168265291Y-77364691D01*
X167775349Y-77067907D02*
X167762140Y-77062002D01*
X168287649Y-77382460D02*
X168276496Y-77373542D01*
X167627745Y-77007285D02*
X167614082Y-77002253D01*
X167892253Y-77124510D02*
X167879445Y-77117917D01*
X167641372Y-77012398D02*
X167627745Y-77007285D01*
X167668497Y-77022865D02*
X167654955Y-77017591D01*
X167722259Y-77044756D02*
X167708879Y-77039164D01*
X168309784Y-77400491D02*
X168298745Y-77391443D01*
X167735594Y-77050426D02*
X167722259Y-77044756D01*
X167866587Y-77111399D02*
X167853685Y-77104957D01*
X167980632Y-77172748D02*
X167968147Y-77165635D01*
X168017799Y-77194522D02*
X168005456Y-77187191D01*
X168078766Y-77232252D02*
X168066674Y-77224563D01*
X167801635Y-77079949D02*
X167788515Y-77073889D01*
X168030090Y-77201925D02*
X168017799Y-77194522D01*
X168162014Y-77288035D02*
X168150278Y-77279858D01*
X168298745Y-77391443D02*
X168287649Y-77382460D01*
X167905018Y-77131178D02*
X167892253Y-77124510D01*
X168090814Y-77240011D02*
X168078766Y-77232252D01*
X168138486Y-77271750D02*
X168126645Y-77263710D01*
X167917738Y-77137921D02*
X167905018Y-77131178D01*
X167930409Y-77144739D02*
X167917738Y-77137921D01*
X168102809Y-77247841D02*
X168090814Y-77240011D01*
X168208447Y-77321430D02*
X168196918Y-77312979D01*
X167943036Y-77151631D02*
X167930409Y-77144739D01*
X168054529Y-77216945D02*
X168042332Y-77209399D01*
X168173701Y-77296282D02*
X168162014Y-77288035D01*
X168219923Y-77329948D02*
X168208447Y-77321430D01*
X168331697Y-77418783D02*
X168320767Y-77409605D01*
X167993068Y-77179933D02*
X167980632Y-77172748D01*
X168126645Y-77263710D02*
X168114751Y-77255741D01*
X168231347Y-77338534D02*
X168219923Y-77329948D01*
X168265291Y-77364691D02*
X168254029Y-77355905D01*
X168353382Y-77437331D02*
X168342570Y-77428025D01*
X168114751Y-77255741D02*
X168102809Y-77247841D01*
X167879445Y-77117917D02*
X167866587Y-77111399D01*
X167654955Y-77017591D02*
X167641372Y-77012398D01*
X168254029Y-77355905D02*
X168242715Y-77347186D01*
X168342570Y-77428025D02*
X168331697Y-77418783D01*
X167681998Y-77028218D02*
X167668497Y-77022865D01*
X167695459Y-77033652D02*
X167681998Y-77028218D01*
X167827751Y-77092300D02*
X167814716Y-77086086D01*
X167708879Y-77039164D02*
X167695459Y-77033652D01*
X167748889Y-77056175D02*
X167735594Y-77050426D01*
X167840742Y-77098590D02*
X167827751Y-77092300D01*
X168150278Y-77279858D02*
X168138486Y-77271750D01*
X168185336Y-77304596D02*
X168173701Y-77296282D01*
X167762140Y-77062002D02*
X167748889Y-77056175D01*
X167853685Y-77104957D02*
X167840742Y-77098590D01*
X168320767Y-77409605D02*
X168309784Y-77400491D01*
X167788515Y-77073889D02*
X167775349Y-77067907D01*
X168736196Y-77858849D02*
X168727886Y-77847214D01*
X168702547Y-77812627D02*
X168693966Y-77801205D01*
X168873789Y-78076936D02*
X168866755Y-78064405D01*
X168887639Y-78102142D02*
X168880750Y-78089516D01*
X168719507Y-77835633D02*
X168711060Y-77824103D01*
X168823023Y-77990218D02*
X168815483Y-77978024D01*
X168852468Y-78039483D02*
X168845215Y-78027094D01*
X168830495Y-78002461D02*
X168823023Y-77990218D01*
X168547731Y-77625950D02*
X168538048Y-77615480D01*
X168364142Y-77446701D02*
X168353382Y-77437331D01*
X168374845Y-77456135D02*
X168364142Y-77446701D01*
X168385487Y-77465632D02*
X168374845Y-77456135D01*
X168557353Y-77636478D02*
X168547731Y-77625950D01*
X168711060Y-77824103D02*
X168702547Y-77812627D01*
X168448127Y-77523926D02*
X168437833Y-77514056D01*
X168478649Y-77553903D02*
X168468533Y-77543850D01*
X168784609Y-77929745D02*
X168776712Y-77917801D01*
X168508624Y-77584424D02*
X168498694Y-77574191D01*
X168613748Y-77700856D02*
X168604506Y-77689984D01*
X168595204Y-77679168D02*
X168585838Y-77668409D01*
X168538048Y-77615480D02*
X168528301Y-77605069D01*
X168566910Y-77647064D02*
X168557353Y-77636478D01*
X168768746Y-77905907D02*
X168760712Y-77894065D01*
X168837889Y-78014754D02*
X168830495Y-78002461D01*
X168859648Y-78051920D02*
X168852468Y-78039483D01*
X168894450Y-78114814D02*
X168887639Y-78102142D01*
X168641078Y-77733809D02*
X168632032Y-77722768D01*
X168676602Y-77778521D02*
X168667818Y-77767261D01*
X168727886Y-77847214D02*
X168719507Y-77835633D01*
X168866755Y-78064405D02*
X168859648Y-78051920D01*
X168396073Y-77475192D02*
X168385487Y-77465632D01*
X168437833Y-77514056D02*
X168427482Y-77504247D01*
X168901189Y-78127533D02*
X168894450Y-78114814D01*
X168792432Y-77941740D02*
X168784609Y-77929745D01*
X168488700Y-77564017D02*
X168478649Y-77553903D01*
X168907850Y-78140298D02*
X168901189Y-78127533D01*
X168406602Y-77484815D02*
X168396073Y-77475192D01*
X168417070Y-77494500D02*
X168406602Y-77484815D01*
X168498694Y-77574191D02*
X168488700Y-77564017D01*
X168604506Y-77689984D02*
X168595204Y-77679168D01*
X168685316Y-77789836D02*
X168676602Y-77778521D01*
X168880750Y-78089516D02*
X168873789Y-78076936D01*
X168622924Y-77711784D02*
X168613748Y-77700856D01*
X168800187Y-77953784D02*
X168792432Y-77941740D01*
X168815483Y-77978024D02*
X168807870Y-77965879D01*
X168807870Y-77965879D02*
X168800187Y-77953784D01*
X168845215Y-78027094D02*
X168837889Y-78014754D01*
X168914439Y-78153108D02*
X168907850Y-78140298D01*
X168776712Y-77917801D02*
X168768746Y-77905907D01*
X168427482Y-77504247D02*
X168417070Y-77494500D01*
X168458360Y-77533858D02*
X168448127Y-77523926D01*
X168468533Y-77543850D02*
X168458360Y-77533858D01*
X168585838Y-77668409D02*
X168576406Y-77657708D01*
X168658974Y-77756055D02*
X168650056Y-77744904D01*
X168744436Y-77870536D02*
X168736196Y-77858849D01*
X168667818Y-77767261D02*
X168658974Y-77756055D01*
X168518493Y-77594717D02*
X168508624Y-77584424D01*
X168752609Y-77882275D02*
X168744436Y-77870536D01*
X168528301Y-77605069D02*
X168518493Y-77594717D01*
X168576406Y-77657708D02*
X168566910Y-77647064D01*
X168693966Y-77801205D02*
X168685316Y-77789836D01*
X168632032Y-77722768D02*
X168622924Y-77711784D01*
X168760712Y-77894065D02*
X168752609Y-77882275D01*
X168650056Y-77744904D02*
X168641078Y-77733809D01*
X77263135Y-77553903D02*
X77253084Y-77564017D01*
X77022212Y-77835632D02*
X77013830Y-77847214D01*
X77128016Y-77700856D02*
X77118836Y-77711784D01*
X76949242Y-77941739D02*
X76941483Y-77953784D01*
X76807822Y-78191811D02*
X76801533Y-78204801D01*
X76918631Y-77990218D02*
X76911156Y-78002461D01*
X76964971Y-77917801D02*
X76957074Y-77929745D01*
X77109724Y-77722768D02*
X77100677Y-77733808D01*
X77194049Y-77625950D02*
X77184423Y-77636478D01*
X76881978Y-78051920D02*
X76874867Y-78064405D01*
X76765406Y-78283662D02*
X76759660Y-78296956D01*
X76771234Y-78270411D02*
X76765406Y-78283662D01*
X76827151Y-78153108D02*
X76820631Y-78165964D01*
X76833744Y-78140298D02*
X76827151Y-78153108D01*
X76847152Y-78114814D02*
X76840409Y-78127533D01*
X76896423Y-78027094D02*
X76889166Y-78039483D01*
X77073922Y-77767261D02*
X77065138Y-77778521D01*
X76933797Y-77965879D02*
X76926180Y-77978024D01*
X76972941Y-77905907D02*
X76964971Y-77917801D01*
X77065138Y-77778521D02*
X77056419Y-77789836D01*
X77100677Y-77733808D02*
X77091691Y-77744904D01*
X77137257Y-77689984D02*
X77128016Y-77700856D01*
X77118836Y-77711784D02*
X77109724Y-77722768D01*
X77243090Y-77574191D02*
X77233160Y-77584424D01*
X76777138Y-78257202D02*
X76771234Y-78270411D01*
X77213479Y-77605069D02*
X77203732Y-77615480D01*
X76789182Y-78230914D02*
X76783123Y-78244037D01*
X76795317Y-78217836D02*
X76789182Y-78230914D01*
X76840409Y-78127533D02*
X76833744Y-78140298D01*
X76941483Y-77953784D02*
X76933797Y-77965879D01*
X77174866Y-77647064D02*
X77165366Y-77657708D01*
X76989090Y-77882275D02*
X76980983Y-77894065D01*
X76801533Y-78204801D02*
X76795317Y-78217836D01*
X77013830Y-77847214D02*
X77005516Y-77858849D01*
X76860864Y-78089516D02*
X76853971Y-78102142D01*
X76980983Y-77894065D02*
X76972941Y-77905907D01*
X76874867Y-78064405D02*
X76867829Y-78076936D01*
X76911156Y-78002461D02*
X76903753Y-78014753D01*
X76889166Y-78039483D02*
X76881978Y-78051920D01*
X76926180Y-77978024D02*
X76918631Y-77990218D01*
X76903753Y-78014753D02*
X76896423Y-78027094D01*
X77039180Y-77812627D02*
X77030664Y-77824103D01*
X77146563Y-77679168D02*
X77137257Y-77689984D01*
X77253084Y-77564017D02*
X77243090Y-77574191D01*
X76820631Y-78165964D02*
X76814188Y-78178865D01*
X76867829Y-78076936D02*
X76860864Y-78089516D01*
X77030664Y-77824103D02*
X77022212Y-77835632D01*
X77184423Y-77636478D02*
X77174866Y-77647064D01*
X76997267Y-77870536D02*
X76989090Y-77882275D01*
X77165366Y-77657708D02*
X77155934Y-77668409D01*
X77203732Y-77615480D02*
X77194049Y-77625950D01*
X76814188Y-78178865D02*
X76807822Y-78191811D01*
X77223287Y-77594717D02*
X77213479Y-77605069D01*
X77082774Y-77756055D02*
X77073922Y-77767261D01*
X76783123Y-78244037D02*
X76777138Y-78257202D01*
X77056419Y-77789836D02*
X77047765Y-77801205D01*
X76853971Y-78102142D02*
X76847152Y-78114814D01*
X76957074Y-77929745D02*
X76949242Y-77941739D01*
X77005516Y-77858849D02*
X76997267Y-77870536D01*
X77047765Y-77801205D02*
X77039180Y-77812627D01*
X77091691Y-77744904D02*
X77082774Y-77756055D01*
X77233160Y-77584424D02*
X77223287Y-77594717D01*
X77273251Y-77543850D02*
X77263135Y-77553903D01*
X77155934Y-77668409D02*
X77146563Y-77679168D01*
X176629097Y-130020410D02*
X176964227Y-130013344D01*
X169171099Y-79115652D02*
X169170289Y-79100410D01*
X169173448Y-79176876D02*
X169173002Y-79161532D01*
X177756018Y-95452896D02*
X177400507Y-95310742D01*
X169171828Y-79130920D02*
X169171099Y-79115652D01*
X169913185Y-91771208D02*
X169532117Y-90839798D01*
X169174258Y-79207637D02*
X169173853Y-79192244D01*
X177021192Y-95263354D02*
X176447197Y-95232868D01*
X171818120Y-94057211D02*
X171055984Y-93379712D01*
X178797961Y-97280127D02*
X178762434Y-96922745D01*
X178656582Y-96590616D02*
X178538001Y-96235110D01*
X169174258Y-79238495D02*
X169174258Y-79223054D01*
X174612349Y-95200010D02*
X173638418Y-94946100D01*
X178087717Y-95642442D02*
X177756018Y-95452896D01*
X169532117Y-90839798D02*
X169278207Y-89865868D01*
X178733694Y-128510243D02*
X178786748Y-128085589D01*
X172707009Y-94565032D02*
X171818120Y-94057211D01*
X177725492Y-129783950D02*
X178096841Y-129571750D01*
X169173002Y-79161532D02*
X169172476Y-79146213D01*
X169174258Y-79223054D02*
X169174258Y-79207637D01*
X169168345Y-79070004D02*
X169167252Y-79054841D01*
X169183912Y-88783165D02*
X169174258Y-79238495D01*
X169172476Y-79146213D02*
X169171828Y-79130920D01*
X170421006Y-92617576D02*
X169913185Y-91771208D01*
X178762434Y-96922745D02*
X178656582Y-96590616D01*
X173638418Y-94946100D02*
X172707009Y-94565032D01*
X178797961Y-127826228D02*
X178797961Y-97280127D01*
X177327493Y-129916704D02*
X177725492Y-129783950D01*
X169169358Y-79085194D02*
X169168345Y-79070004D01*
X169170289Y-79100410D02*
X169169358Y-79085194D01*
X178538001Y-96235110D02*
X178348459Y-95903179D01*
X169173853Y-79192244D02*
X169173448Y-79176876D01*
X175623799Y-95237700D02*
X174612349Y-95200010D01*
X169278207Y-89865868D02*
X169183912Y-88783165D01*
X176447197Y-95232868D02*
X175623799Y-95237700D01*
X178388741Y-129279847D02*
X178600944Y-128908243D01*
X171055984Y-93379712D02*
X170421006Y-92617576D01*
X178096841Y-129571750D02*
X178388741Y-129279847D01*
X177400507Y-95310742D02*
X177021192Y-95263354D01*
X178348459Y-95903179D02*
X178087717Y-95642442D01*
X176964227Y-130013344D02*
X177327493Y-129916704D01*
X178786748Y-128085589D02*
X178797961Y-127826228D01*
X178600944Y-128908243D02*
X178733694Y-128510243D01*
X169071608Y-78543193D02*
X169067320Y-78529183D01*
X169079942Y-78571324D02*
X169075816Y-78557240D01*
X169109869Y-78685286D02*
X169106427Y-78670918D01*
X168964411Y-78257203D02*
X168958434Y-78244037D01*
X169144412Y-78860283D02*
X169142023Y-78845524D01*
X168970311Y-78270411D02*
X168964411Y-78257203D01*
X168976135Y-78283663D02*
X168970311Y-78270411D01*
X169119709Y-78728593D02*
X169116510Y-78714123D01*
X168993135Y-78323671D02*
X168987547Y-78310293D01*
X169004073Y-78350553D02*
X168998642Y-78337091D01*
X169039839Y-78445916D02*
X169034971Y-78432173D01*
X169087961Y-78599601D02*
X169083992Y-78585445D01*
X169146720Y-78875073D02*
X169144412Y-78860283D01*
X169014691Y-78377598D02*
X169009422Y-78364055D01*
X169019883Y-78391181D02*
X169014691Y-78377598D01*
X169067320Y-78529183D02*
X169062946Y-78515210D01*
X169083992Y-78585445D02*
X169079942Y-78571324D01*
X169139553Y-78830796D02*
X169137001Y-78816100D01*
X169102904Y-78656585D02*
X169099299Y-78642286D01*
X169161866Y-78994462D02*
X169160287Y-78979437D01*
X169122828Y-78743096D02*
X169119709Y-78728593D01*
X169058488Y-78501274D02*
X169053948Y-78487377D01*
X169062946Y-78515210D02*
X169058488Y-78501274D01*
X169075816Y-78557240D02*
X169071608Y-78543193D01*
X169137001Y-78816100D02*
X169134329Y-78801435D01*
X169164741Y-79024597D02*
X169163364Y-79009515D01*
X169158626Y-78964440D02*
X169156885Y-78949472D01*
X169163364Y-79009515D02*
X169161866Y-78994462D01*
X169167252Y-79054841D02*
X169166037Y-79039705D01*
X169142023Y-78845524D02*
X169139553Y-78830796D01*
X169091848Y-78613794D02*
X169087961Y-78599601D01*
X169156885Y-78949472D02*
X169155022Y-78934533D01*
X169116510Y-78714123D02*
X169113230Y-78699688D01*
X169166037Y-79039705D02*
X169164741Y-79024597D01*
X169148948Y-78889893D02*
X169146720Y-78875073D01*
X168920951Y-78165964D02*
X168914439Y-78153108D01*
X168927390Y-78178865D02*
X168920951Y-78165964D01*
X168933752Y-78191811D02*
X168927390Y-78178865D01*
X169106427Y-78670918D02*
X169102904Y-78656585D01*
X169134329Y-78801435D02*
X169131575Y-78786801D01*
X169125824Y-78757632D02*
X169122828Y-78743096D01*
X168940037Y-78204802D02*
X168933752Y-78191811D01*
X169034971Y-78432173D02*
X169030023Y-78418469D01*
X168946245Y-78217836D02*
X168940037Y-78204802D01*
X169113230Y-78699688D02*
X169109869Y-78685286D01*
X169128740Y-78772200D02*
X169125824Y-78757632D01*
X169099299Y-78642286D02*
X169095614Y-78628022D01*
X169030023Y-78418469D02*
X169024993Y-78404806D01*
X169049327Y-78473518D02*
X169044622Y-78459697D01*
X168987547Y-78310293D02*
X168981881Y-78296957D01*
X169044622Y-78459697D02*
X169039839Y-78445916D01*
X169153078Y-78919624D02*
X169151053Y-78904743D01*
X169053948Y-78487377D02*
X169049327Y-78473518D01*
X169095614Y-78628022D02*
X169091848Y-78613794D01*
X169151053Y-78904743D02*
X169148948Y-78889893D01*
X169160287Y-78979437D02*
X169158626Y-78964440D01*
X168952380Y-78230915D02*
X168946245Y-78217836D01*
X169024993Y-78404806D02*
X169019883Y-78391181D01*
X169155022Y-78934533D02*
X169153078Y-78919624D01*
X168958434Y-78244037D02*
X168952380Y-78230915D01*
X169131575Y-78786801D02*
X169128740Y-78772200D01*
X168981881Y-78296957D02*
X168976135Y-78283663D01*
X169009422Y-78364055D02*
X169004073Y-78350553D01*
X168998642Y-78337091D02*
X168993135Y-78323671D01*
M02*
