M48
;DRILL file {KiCad (5.0.0)} date 03/03/19 03:18:39
;FORMAT={-:-/ absolute / metric / decimal}
FMAT,2
METRIC,TZ
T1C0.200
T2C0.300
T3C0.559
T4C0.600
T5C0.750
T6C1.250
T7C1.520
T8C4.300
%
G90
G05
M71
T1
X77.356Y-81.8
X77.356Y-84.8
X77.356Y-87.8
X77.356Y-136.243
X77.356Y-139.243
X77.356Y-142.243
X77.356Y-145.243
X77.518Y-78.852
X77.864Y-146.736
X78.549Y-137.287
X78.969Y-77.737
X79.4Y-147.536
X80.48Y-77.622
X81.981Y-147.536
X83.48Y-77.622
X83.784Y-121.793
X84.328Y-136.652
X84.442Y-121.793
X84.981Y-147.536
X85.735Y-115.86
X85.735Y-114.59
X85.735Y-118.4
X85.735Y-120.945
X85.788Y-124.015
X85.915Y-119.697
X86.042Y-145.542
X86.106Y-79.566
X86.48Y-77.622
X86.931Y-124.206
X86.931Y-124.968
X87.185Y-136.906
X87.566Y-138.874
X87.566Y-141.605
X87.694Y-85.28
X87.757Y-124.206
X87.981Y-147.536
X88.582Y-81.471
X88.582Y-126.111
X88.582Y-126.841
X88.582Y-127.572
X88.582Y-128.302
X88.582Y-129.032
X88.582Y-145.669
X89.281Y-142.621
X89.48Y-77.622
X90.043Y-136.906
X90.106Y-86.868
X90.424Y-142.621
X90.742Y-79.311
X90.981Y-147.536
X91.504Y-81.28
X91.504Y-84.899
X91.885Y-145.478
X91.948Y-140.462
X92.202Y-136.906
X92.48Y-77.622
X93.789Y-79.692
X93.981Y-147.536
X94.361Y-86.804
X94.742Y-136.906
X95.48Y-77.622
X95.504Y-141.16
X95.504Y-145.478
X96.203Y-80.073
X96.203Y-85.661
X96.774Y-136.906
X96.837Y-82.677
X96.981Y-147.536
X97.409Y-142.621
X97.79Y-86.995
X98.171Y-133.477
X98.171Y-136.017
X98.234Y-111.569
X98.234Y-112.204
X98.234Y-131.318
X98.298Y-79.67
X98.298Y-122.174
X98.298Y-122.936
X98.298Y-123.698
X98.298Y-125.92
X98.298Y-129.095
X98.4Y-114.592
X98.425Y-142.621
X98.48Y-77.622
X98.806Y-116.459
X98.996Y-117.856
X99.06Y-85.915
X99.06Y-89.599
X99.06Y-100.012
X99.2Y-114.592
X99.251Y-92.71
X99.251Y-96.139
X99.251Y-106.743
X99.822Y-103.569
X99.822Y-142.811
X99.885Y-131.
X99.885Y-138.176
X99.949Y-108.902
X99.981Y-147.536
X100.012Y-111.468
X100.393Y-135.001
X100.965Y-116.522
X101.219Y-118.173
X101.48Y-77.622
X101.536Y-132.779
X101.663Y-87.82
X101.727Y-105.6
X101.854Y-136.588
X101.917Y-96.266
X101.933Y-86.408
X102.044Y-111.468
X102.552Y-102.552
X102.616Y-121.412
X102.616Y-123.19
X102.616Y-123.952
X102.87Y-108.204
X102.933Y-128.397
X102.981Y-147.536
X103.314Y-98.87
X103.378Y-107.696
X103.505Y-93.408
X103.505Y-126.238
X103.632Y-119.062
X103.695Y-121.094
X103.873Y-132.486
X103.886Y-135.128
X104.013Y-89.154
X104.14Y-128.969
X104.394Y-105.664
X104.48Y-77.622
X104.648Y-108.712
X105.093Y-125.412
X105.156Y-121.73
X105.283Y-127.444
X105.727Y-95.822
X105.791Y-124.015
X105.918Y-144.272
X105.981Y-147.536
X106.147Y-132.486
X106.172Y-120.396
X106.236Y-105.029
X106.299Y-84.01
X106.489Y-92.9
X106.553Y-100.838
X106.68Y-121.158
X106.934Y-87.82
X106.997Y-84.01
X107.124Y-127.698
X107.124Y-135.763
X107.251Y-123.063
X107.251Y-133.159
X107.442Y-120.65
X107.48Y-77.622
X107.505Y-125.984
X107.95Y-128.778
X108.521Y-137.541
X108.521Y-141.287
X108.966Y-134.747
X108.981Y-147.536
X109.017Y-111.976
X109.283Y-87.694
X109.283Y-133.032
X109.347Y-125.603
X109.474Y-128.016
X109.537Y-92.265
X109.537Y-121.539
X109.728Y-95.504
X109.728Y-137.312
X109.855Y-99.822
X109.855Y-105.6
X109.88Y-119.075
X109.957Y-113.233
X110.48Y-77.622
X111.15Y-137.312
X111.176Y-112.281
X111.252Y-96.837
X111.316Y-138.239
X111.316Y-139.15
X111.316Y-140.06
X111.316Y-140.97
X111.316Y-143.32
X111.316Y-144.145
X111.316Y-144.97
X111.316Y-145.796
X111.379Y-123.507
X111.442Y-126.873
X111.506Y-128.397
X111.684Y-78.13
X111.709Y-119.075
X111.735Y-80.874
X111.735Y-81.483
X111.981Y-147.536
X112.078Y-89.281
X112.204Y-101.981
X112.471Y-78.13
X112.573Y-108.458
X112.649Y-115.062
X112.649Y-124.523
X112.903Y-128.778
X113.157Y-113.347
X113.157Y-119.697
X113.48Y-77.622
X113.508Y-82.38
X113.551Y-108.458
X114.173Y-122.11
X114.3Y-126.365
X114.3Y-142.24
X114.49Y-105.6
X114.744Y-88.837
X114.808Y-93.916
X114.808Y-99.314
X114.808Y-136.398
X114.808Y-137.16
X114.935Y-108.458
X114.981Y-147.536
X115.189Y-79.121
X115.189Y-115.252
X115.379Y-119.888
X115.379Y-124.206
X115.646Y-108.458
X115.887Y-85.788
X116.332Y-111.506
X116.332Y-112.268
X116.332Y-134.874
X116.332Y-135.636
X116.48Y-77.622
X117.03Y-119.507
X117.094Y-82.423
X117.094Y-126.365
X117.094Y-129.095
X117.157Y-115.189
X117.157Y-123.126
X117.348Y-113.411
X117.602Y-86.042
X117.602Y-92.392
X117.729Y-140.081
X117.856Y-144.526
X117.981Y-147.536
X118.046Y-137.668
X118.427Y-102.171
X118.745Y-98.996
X118.745Y-110.236
X118.745Y-110.807
X119.189Y-78.803
X119.189Y-90.487
X119.189Y-119.888
X119.189Y-124.46
X119.316Y-135.128
X119.444Y-115.062
X119.48Y-77.622
X119.507Y-95.123
X119.507Y-127.698
X120.015Y-107.632
X120.396Y-112.522
X120.396Y-113.284
X120.713Y-120.396
X120.713Y-121.094
X120.713Y-121.92
X120.713Y-122.745
X120.981Y-147.536
X121.094Y-88.837
X121.412Y-106.807
X121.412Y-133.032
X121.73Y-101.473
X122.48Y-77.622
X122.491Y-115.379
X123.05Y-96.507
X123.063Y-97.142
X123.253Y-110.376
X123.279Y-111.125
X123.317Y-107.886
X123.668Y-97.727
X123.761Y-135.191
X123.825Y-131.572
X123.886Y-122.806
X123.888Y-119.189
X123.888Y-123.698
X123.896Y-120.086
X123.981Y-147.536
X124.515Y-97.727
X124.587Y-125.158
X124.753Y-122.806
X124.841Y-117.411
X124.896Y-120.086
X125.158Y-128.651
X125.412Y-108.775
X125.476Y-96.012
X125.48Y-77.622
X125.62Y-122.806
X125.793Y-89.98
X125.896Y-120.086
X126.111Y-101.854
X126.487Y-122.806
X126.555Y-147.523
X126.837Y-123.398
X126.873Y-94.615
X126.896Y-120.086
X126.975Y-78.346
X127.191Y-137.477
X127.254Y-135.128
X127.317Y-111.76
X127.508Y-144.399
X127.533Y-79.604
X127.572Y-85.598
X127.572Y-88.011
X127.635Y-123.398
X127.648Y-81.521
X127.698Y-90.487
X127.698Y-125.285
X127.762Y-131.699
X127.896Y-120.086
X128.021Y-122.46
X128.079Y-128.588
X128.333Y-109.156
X128.397Y-117.856
X128.651Y-92.964
X128.801Y-122.448
X128.896Y-120.086
X129.413Y-100.393
X129.413Y-104.394
X129.581Y-122.46
X129.731Y-96.647
X129.896Y-120.086
X129.946Y-123.398
X130.048Y-114.617
X130.493Y-94.742
X130.754Y-123.398
X130.896Y-120.086
X130.937Y-125.539
X131.079Y-122.806
X131.896Y-120.086
X131.983Y-122.806
X132.017Y-128.397
X132.461Y-95.694
X132.651Y-123.634
X132.715Y-118.364
X132.715Y-119.316
X132.715Y-124.523
X132.842Y-98.87
X132.886Y-122.806
X132.896Y-120.086
X133.096Y-108.966
X133.096Y-115.316
X133.096Y-117.538
X133.096Y-125.285
X133.413Y-104.648
X134.096Y-117.538
X134.096Y-125.285
X134.302Y-126.492
X134.556Y-96.139
X135.096Y-117.538
X135.096Y-125.285
X136.096Y-117.538
X136.096Y-125.285
X136.652Y-96.203
X137.096Y-97.79
X137.096Y-100.79
X137.096Y-103.79
X137.096Y-106.79
X137.096Y-109.79
X137.096Y-112.79
X137.096Y-115.79
X137.096Y-117.538
X137.096Y-125.285
X137.096Y-127.79
T2
X129.311Y-136.571
X129.311Y-139.071
X129.311Y-141.571
X129.311Y-144.071
X129.311Y-146.139
X129.515Y-77.749
X129.515Y-80.366
X129.515Y-83.274
X129.527Y-86.36
X129.565Y-89.002
X129.629Y-134.125
X130.124Y-91.288
X130.264Y-147.46
X130.759Y-132.448
X131.737Y-93.218
X132.015Y-77.749
X132.015Y-80.249
X132.015Y-82.749
X132.015Y-85.249
X132.015Y-87.749
X132.015Y-90.249
X132.015Y-135.249
X132.015Y-137.749
X132.015Y-140.249
X132.015Y-142.749
X132.015Y-145.249
X132.46Y-147.481
X132.474Y-131.28
X133.896Y-94.196
X134.515Y-77.749
X134.515Y-80.249
X134.515Y-82.749
X134.515Y-85.249
X134.515Y-87.749
X134.515Y-90.249
X134.515Y-92.749
X134.515Y-132.749
X134.515Y-135.249
X134.515Y-137.749
X134.515Y-140.249
X134.515Y-142.749
X134.515Y-145.249
X134.658Y-130.975
X134.96Y-147.481
X136.03Y-94.31
X136.449Y-130.924
X137.015Y-77.749
X137.015Y-80.249
X137.015Y-82.749
X137.015Y-85.249
X137.015Y-87.749
X137.015Y-90.249
X137.015Y-92.749
X137.015Y-132.749
X137.015Y-135.249
X137.015Y-137.749
X137.015Y-140.249
X137.015Y-142.749
X137.015Y-145.249
X137.46Y-147.481
X137.795Y-94.742
X137.922Y-130.404
X139.515Y-77.749
X139.515Y-80.249
X139.515Y-82.749
X139.515Y-85.249
X139.515Y-87.749
X139.515Y-90.249
X139.515Y-92.749
X139.515Y-95.249
X139.515Y-97.749
X139.515Y-100.249
X139.515Y-102.749
X139.515Y-105.249
X139.515Y-107.749
X139.515Y-110.249
X139.515Y-112.749
X139.515Y-115.249
X139.515Y-117.749
X139.515Y-119.627
X139.515Y-123.435
X139.515Y-125.249
X139.515Y-127.749
X139.515Y-130.249
X139.515Y-132.749
X139.515Y-135.249
X139.515Y-137.749
X139.515Y-140.249
X139.515Y-142.749
X139.515Y-145.249
X139.96Y-147.481
X142.015Y-77.749
X142.015Y-80.249
X142.015Y-82.749
X142.015Y-85.249
X142.015Y-87.749
X142.015Y-90.249
X142.015Y-92.749
X142.015Y-95.249
X142.015Y-97.749
X142.015Y-100.249
X142.015Y-102.749
X142.015Y-105.249
X142.015Y-107.749
X142.015Y-110.249
X142.015Y-112.749
X142.015Y-115.249
X142.015Y-117.749
X142.015Y-119.627
X142.015Y-123.435
X142.015Y-125.249
X142.015Y-127.749
X142.015Y-130.249
X142.015Y-132.749
X142.015Y-135.249
X142.015Y-137.749
X142.015Y-140.249
X142.015Y-142.749
X142.015Y-145.249
X142.46Y-147.481
X144.894Y-77.711
X144.894Y-80.211
X144.894Y-82.711
X144.894Y-85.211
X144.894Y-87.711
X144.894Y-90.211
X144.894Y-92.711
X144.894Y-95.211
X144.894Y-97.711
X144.894Y-100.211
X144.894Y-102.711
X144.894Y-105.211
X144.894Y-107.711
X144.894Y-110.211
X144.894Y-112.711
X144.894Y-115.211
X144.894Y-117.711
X144.894Y-119.589
X144.894Y-123.397
X144.894Y-125.211
X144.894Y-127.711
X144.894Y-130.211
X144.894Y-132.711
X144.894Y-135.211
X144.894Y-137.711
X144.894Y-140.211
X144.894Y-142.711
X144.894Y-145.211
X144.96Y-147.481
X147.409Y-80.491
X147.409Y-82.991
X147.409Y-85.491
X147.409Y-87.991
X147.409Y-90.491
X147.409Y-92.991
X147.409Y-95.491
X147.409Y-97.991
X147.409Y-100.491
X147.422Y-77.724
X147.46Y-124.981
X147.46Y-127.481
X147.46Y-129.981
X147.46Y-132.481
X147.46Y-134.981
X147.46Y-137.481
X147.46Y-139.981
X147.46Y-142.481
X147.46Y-144.981
X147.46Y-147.481
X147.507Y-104.85
X147.507Y-107.35
X147.507Y-109.85
X147.507Y-112.35
X147.507Y-114.85
X147.507Y-117.35
X147.507Y-122.85
X154.287Y-103.35
X154.287Y-107.35
X154.287Y-113.35
X154.297Y-105.36
X154.297Y-109.35
X154.297Y-111.4
X154.297Y-115.36
X154.297Y-117.36
X154.307Y-119.35
X159.717Y-107.34
X159.727Y-109.35
X159.727Y-111.35
X159.737Y-103.36
X159.737Y-113.35
X159.737Y-115.34
X159.737Y-117.33
X159.737Y-119.31
X159.737Y-121.36
X159.747Y-105.35
T3
X132.687Y-121.427
T4
X160.453Y-141.668
X161.397Y-139.388
X161.397Y-143.949
X163.678Y-138.444
X163.678Y-144.893
X165.958Y-139.388
X165.958Y-143.949
X166.903Y-141.668
X78.957Y-83.68
X79.901Y-81.4
X79.901Y-85.961
X82.182Y-80.455
X82.182Y-86.905
X84.462Y-81.4
X84.462Y-85.961
X85.407Y-83.68
X119.724Y-141.668
X120.668Y-139.388
X120.668Y-143.949
X122.949Y-138.444
X122.949Y-144.893
X125.229Y-139.388
X125.229Y-143.949
X126.174Y-141.668
X160.44Y-83.668
X161.384Y-81.387
X161.384Y-85.948
X163.665Y-80.443
X163.665Y-86.893
X165.945Y-81.387
X165.945Y-85.948
X166.89Y-83.668
X119.749Y-83.668
X120.694Y-81.387
X120.694Y-85.948
X122.974Y-80.443
X122.974Y-86.893
X125.255Y-81.387
X125.255Y-85.948
X126.199Y-83.668
X78.957Y-141.668
X79.901Y-139.388
X79.901Y-143.949
X82.182Y-138.444
X82.182Y-144.893
X84.462Y-139.388
X84.462Y-143.949
X85.407Y-141.668
T5
X94.625Y-80.966
X94.625Y-82.966
T6
X87.738Y-94.706
X87.738Y-99.706
X117.138Y-89.506
X117.138Y-104.906
T7
X72.911Y-111.049
X72.911Y-116.129
X72.911Y-121.209
X72.911Y-126.289
X72.911Y-98.742
X72.911Y-103.822
T8
X163.678Y-141.668
X82.182Y-83.68
X122.949Y-141.668
X163.665Y-83.668
X122.974Y-83.668
X82.182Y-141.668
T0
M30
