G04 #@! TF.GenerationSoftware,KiCad,Pcbnew,(5.0.0)*
G04 #@! TF.CreationDate,2019-03-03T03:18:43+05:30*
G04 #@! TF.ProjectId,LoRa_Modbus,4C6F52615F4D6F646275732E6B696361,rev?*
G04 #@! TF.SameCoordinates,Original*
G04 #@! TF.FileFunction,Legend,Bot*
G04 #@! TF.FilePolarity,Positive*
%FSLAX46Y46*%
G04 Gerber Fmt 4.6, Leading zero omitted, Abs format (unit mm)*
G04 Created by KiCad (PCBNEW (5.0.0)) date 03/03/19 03:18:43*
%MOMM*%
%LPD*%
G01*
G04 APERTURE LIST*
%ADD10C,0.152400*%
%ADD11C,0.120000*%
%ADD12C,0.254000*%
%ADD13C,0.150000*%
%ADD14C,0.127000*%
G04 APERTURE END LIST*
D10*
G04 #@! TO.C,JP2*
X70053200Y-112506760D02*
X70053200Y-110779560D01*
X69799200Y-112760760D02*
X68275200Y-112760760D01*
X69799200Y-110525560D02*
X68275200Y-110525560D01*
X68021200Y-110779560D02*
X68021200Y-112506760D01*
X68275200Y-112760760D02*
G75*
G02X68021200Y-112506760I0J254000D01*
G01*
X68021200Y-110779560D02*
G75*
G02X68275200Y-110525560I254000J0D01*
G01*
X69799200Y-110525560D02*
G75*
G02X70053200Y-110779560I0J-254000D01*
G01*
X70053200Y-112506760D02*
G75*
G02X69799200Y-112760760I-254000J0D01*
G01*
D11*
G04 #@! TO.C,R18*
X68410680Y-115708240D02*
X68410680Y-115208240D01*
X69470680Y-115208240D02*
X69470680Y-115708240D01*
G04 #@! TO.C,C22*
X78017000Y-123674000D02*
X78017000Y-122674000D01*
X79717000Y-122674000D02*
X79717000Y-123674000D01*
G04 #@! TO.C,C14*
X99542500Y-113047500D02*
X99542500Y-112547500D01*
X100482500Y-112547500D02*
X100482500Y-113047500D01*
G04 #@! TO.C,C15*
X102514500Y-112547500D02*
X102514500Y-113047500D01*
X101574500Y-113047500D02*
X101574500Y-112547500D01*
G04 #@! TO.C,C16*
X99580800Y-121229400D02*
X99580800Y-121729400D01*
X98640800Y-121729400D02*
X98640800Y-121229400D01*
G04 #@! TO.C,C17*
X101941000Y-121429400D02*
X101941000Y-122429400D01*
X100241000Y-122429400D02*
X100241000Y-121429400D01*
G04 #@! TO.C,C18*
X90275000Y-125930400D02*
X93875000Y-125930400D01*
X93875000Y-129390400D02*
X90275000Y-129390400D01*
G04 #@! TO.C,C19*
X83629600Y-113558600D02*
X83629600Y-114058600D01*
X82689600Y-114058600D02*
X82689600Y-113558600D01*
G04 #@! TO.C,C20*
X84226300Y-112966400D02*
X84226300Y-112466400D01*
X85166300Y-112466400D02*
X85166300Y-112966400D01*
G04 #@! TO.C,C21*
X84543800Y-123164500D02*
X84543800Y-122664500D01*
X85483800Y-122664500D02*
X85483800Y-123164500D01*
D12*
G04 #@! TO.C,J$1*
X136699990Y-122532140D02*
G75*
G03X136699990Y-120246140I-1143000J1143000D01*
G01*
X136306290Y-122201940D02*
G75*
G03X136306290Y-120677940I-834415J762000D01*
G01*
X135937991Y-121846340D02*
G75*
G03X135937990Y-121084340I-550699J381000D01*
G01*
D11*
G04 #@! TO.C,L2*
X81213400Y-122673000D02*
X82413400Y-122673000D01*
X82413400Y-120913000D02*
X81213400Y-120913000D01*
G04 #@! TO.C,L3*
X82413400Y-123643500D02*
X81213400Y-123643500D01*
X81213400Y-125403500D02*
X82413400Y-125403500D01*
D13*
G04 #@! TO.C,U5*
X95950000Y-111442100D02*
X97750000Y-111442100D01*
X95950000Y-124342100D02*
X88200000Y-124342100D01*
X95950000Y-111192100D02*
X88200000Y-111192100D01*
X95950000Y-124342100D02*
X95950000Y-124007100D01*
X88200000Y-124342100D02*
X88200000Y-124007100D01*
X88200000Y-111192100D02*
X88200000Y-111527100D01*
X95950000Y-111192100D02*
X95950000Y-111442100D01*
G04 #@! TO.C,JP2*
D14*
X69514720Y-112990811D02*
X69514720Y-113426240D01*
X69543748Y-113513325D01*
X69601805Y-113571382D01*
X69688891Y-113600411D01*
X69746948Y-113600411D01*
X69224434Y-113600411D02*
X69224434Y-112990811D01*
X68992205Y-112990811D01*
X68934148Y-113019840D01*
X68905120Y-113048868D01*
X68876091Y-113106925D01*
X68876091Y-113194011D01*
X68905120Y-113252068D01*
X68934148Y-113281097D01*
X68992205Y-113310125D01*
X69224434Y-113310125D01*
X68643862Y-113048868D02*
X68614834Y-113019840D01*
X68556777Y-112990811D01*
X68411634Y-112990811D01*
X68353577Y-113019840D01*
X68324548Y-113048868D01*
X68295520Y-113106925D01*
X68295520Y-113164982D01*
X68324548Y-113252068D01*
X68672891Y-113600411D01*
X68295520Y-113600411D01*
X69439971Y-109424651D02*
X69091628Y-109424651D01*
X69265800Y-110034251D02*
X69265800Y-109424651D01*
X68540085Y-110034251D02*
X68743285Y-109743965D01*
X68888428Y-110034251D02*
X68888428Y-109424651D01*
X68656200Y-109424651D01*
X68598142Y-109453680D01*
X68569114Y-109482708D01*
X68540085Y-109540765D01*
X68540085Y-109627851D01*
X68569114Y-109685908D01*
X68598142Y-109714937D01*
X68656200Y-109743965D01*
X68888428Y-109743965D01*
G04 #@! TO.C,R18*
X69231691Y-116854514D02*
X68941405Y-116651314D01*
X69231691Y-116506171D02*
X68622091Y-116506171D01*
X68622091Y-116738400D01*
X68651120Y-116796457D01*
X68680148Y-116825485D01*
X68738205Y-116854514D01*
X68825291Y-116854514D01*
X68883348Y-116825485D01*
X68912377Y-116796457D01*
X68941405Y-116738400D01*
X68941405Y-116506171D01*
X69231691Y-117435085D02*
X69231691Y-117086742D01*
X69231691Y-117260914D02*
X68622091Y-117260914D01*
X68709177Y-117202857D01*
X68767234Y-117144800D01*
X68796262Y-117086742D01*
X68883348Y-117783428D02*
X68854320Y-117725371D01*
X68825291Y-117696342D01*
X68767234Y-117667314D01*
X68738205Y-117667314D01*
X68680148Y-117696342D01*
X68651120Y-117725371D01*
X68622091Y-117783428D01*
X68622091Y-117899542D01*
X68651120Y-117957600D01*
X68680148Y-117986628D01*
X68738205Y-118015657D01*
X68767234Y-118015657D01*
X68825291Y-117986628D01*
X68854320Y-117957600D01*
X68883348Y-117899542D01*
X68883348Y-117783428D01*
X68912377Y-117725371D01*
X68941405Y-117696342D01*
X68999462Y-117667314D01*
X69115577Y-117667314D01*
X69173634Y-117696342D01*
X69202662Y-117725371D01*
X69231691Y-117783428D01*
X69231691Y-117899542D01*
X69202662Y-117957600D01*
X69173634Y-117986628D01*
X69115577Y-118015657D01*
X68999462Y-118015657D01*
X68941405Y-117986628D01*
X68912377Y-117957600D01*
X68883348Y-117899542D01*
G04 #@! TO.C,C22*
X77713114Y-122972614D02*
X77742142Y-122943585D01*
X77771171Y-122856500D01*
X77771171Y-122798442D01*
X77742142Y-122711357D01*
X77684085Y-122653300D01*
X77626028Y-122624271D01*
X77509914Y-122595242D01*
X77422828Y-122595242D01*
X77306714Y-122624271D01*
X77248657Y-122653300D01*
X77190600Y-122711357D01*
X77161571Y-122798442D01*
X77161571Y-122856500D01*
X77190600Y-122943585D01*
X77219628Y-122972614D01*
X77219628Y-123204842D02*
X77190600Y-123233871D01*
X77161571Y-123291928D01*
X77161571Y-123437071D01*
X77190600Y-123495128D01*
X77219628Y-123524157D01*
X77277685Y-123553185D01*
X77335742Y-123553185D01*
X77422828Y-123524157D01*
X77771171Y-123175814D01*
X77771171Y-123553185D01*
X77219628Y-123785414D02*
X77190600Y-123814442D01*
X77161571Y-123872500D01*
X77161571Y-124017642D01*
X77190600Y-124075700D01*
X77219628Y-124104728D01*
X77277685Y-124133757D01*
X77335742Y-124133757D01*
X77422828Y-124104728D01*
X77771171Y-123756385D01*
X77771171Y-124133757D01*
G04 #@! TO.C,C14*
X100255614Y-110331614D02*
X100284642Y-110302585D01*
X100313671Y-110215500D01*
X100313671Y-110157442D01*
X100284642Y-110070357D01*
X100226585Y-110012300D01*
X100168528Y-109983271D01*
X100052414Y-109954242D01*
X99965328Y-109954242D01*
X99849214Y-109983271D01*
X99791157Y-110012300D01*
X99733100Y-110070357D01*
X99704071Y-110157442D01*
X99704071Y-110215500D01*
X99733100Y-110302585D01*
X99762128Y-110331614D01*
X100313671Y-110912185D02*
X100313671Y-110563842D01*
X100313671Y-110738014D02*
X99704071Y-110738014D01*
X99791157Y-110679957D01*
X99849214Y-110621900D01*
X99878242Y-110563842D01*
X99907271Y-111434700D02*
X100313671Y-111434700D01*
X99675042Y-111289557D02*
X100110471Y-111144414D01*
X100110471Y-111521785D01*
G04 #@! TO.C,C15*
X102249514Y-110331614D02*
X102278542Y-110302585D01*
X102307571Y-110215500D01*
X102307571Y-110157442D01*
X102278542Y-110070357D01*
X102220485Y-110012300D01*
X102162428Y-109983271D01*
X102046314Y-109954242D01*
X101959228Y-109954242D01*
X101843114Y-109983271D01*
X101785057Y-110012300D01*
X101727000Y-110070357D01*
X101697971Y-110157442D01*
X101697971Y-110215500D01*
X101727000Y-110302585D01*
X101756028Y-110331614D01*
X102307571Y-110912185D02*
X102307571Y-110563842D01*
X102307571Y-110738014D02*
X101697971Y-110738014D01*
X101785057Y-110679957D01*
X101843114Y-110621900D01*
X101872142Y-110563842D01*
X101697971Y-111463728D02*
X101697971Y-111173442D01*
X101988257Y-111144414D01*
X101959228Y-111173442D01*
X101930200Y-111231500D01*
X101930200Y-111376642D01*
X101959228Y-111434700D01*
X101988257Y-111463728D01*
X102046314Y-111492757D01*
X102191457Y-111492757D01*
X102249514Y-111463728D01*
X102278542Y-111434700D01*
X102307571Y-111376642D01*
X102307571Y-111231500D01*
X102278542Y-111173442D01*
X102249514Y-111144414D01*
G04 #@! TO.C,C16*
X99341214Y-119059414D02*
X99370242Y-119030385D01*
X99399271Y-118943300D01*
X99399271Y-118885242D01*
X99370242Y-118798157D01*
X99312185Y-118740100D01*
X99254128Y-118711071D01*
X99138014Y-118682042D01*
X99050928Y-118682042D01*
X98934814Y-118711071D01*
X98876757Y-118740100D01*
X98818700Y-118798157D01*
X98789671Y-118885242D01*
X98789671Y-118943300D01*
X98818700Y-119030385D01*
X98847728Y-119059414D01*
X99399271Y-119639985D02*
X99399271Y-119291642D01*
X99399271Y-119465814D02*
X98789671Y-119465814D01*
X98876757Y-119407757D01*
X98934814Y-119349700D01*
X98963842Y-119291642D01*
X98789671Y-120162500D02*
X98789671Y-120046385D01*
X98818700Y-119988328D01*
X98847728Y-119959300D01*
X98934814Y-119901242D01*
X99050928Y-119872214D01*
X99283157Y-119872214D01*
X99341214Y-119901242D01*
X99370242Y-119930271D01*
X99399271Y-119988328D01*
X99399271Y-120104442D01*
X99370242Y-120162500D01*
X99341214Y-120191528D01*
X99283157Y-120220557D01*
X99138014Y-120220557D01*
X99079957Y-120191528D01*
X99050928Y-120162500D01*
X99021900Y-120104442D01*
X99021900Y-119988328D01*
X99050928Y-119930271D01*
X99079957Y-119901242D01*
X99138014Y-119872214D01*
G04 #@! TO.C,C17*
X101321414Y-118759414D02*
X101350442Y-118730385D01*
X101379471Y-118643300D01*
X101379471Y-118585242D01*
X101350442Y-118498157D01*
X101292385Y-118440100D01*
X101234328Y-118411071D01*
X101118214Y-118382042D01*
X101031128Y-118382042D01*
X100915014Y-118411071D01*
X100856957Y-118440100D01*
X100798900Y-118498157D01*
X100769871Y-118585242D01*
X100769871Y-118643300D01*
X100798900Y-118730385D01*
X100827928Y-118759414D01*
X101379471Y-119339985D02*
X101379471Y-118991642D01*
X101379471Y-119165814D02*
X100769871Y-119165814D01*
X100856957Y-119107757D01*
X100915014Y-119049700D01*
X100944042Y-118991642D01*
X100769871Y-119543185D02*
X100769871Y-119949585D01*
X101379471Y-119688328D01*
G04 #@! TO.C,C18*
X92468185Y-127852714D02*
X92497214Y-127881742D01*
X92584300Y-127910771D01*
X92642357Y-127910771D01*
X92729442Y-127881742D01*
X92787500Y-127823685D01*
X92816528Y-127765628D01*
X92845557Y-127649514D01*
X92845557Y-127562428D01*
X92816528Y-127446314D01*
X92787500Y-127388257D01*
X92729442Y-127330200D01*
X92642357Y-127301171D01*
X92584300Y-127301171D01*
X92497214Y-127330200D01*
X92468185Y-127359228D01*
X91887614Y-127910771D02*
X92235957Y-127910771D01*
X92061785Y-127910771D02*
X92061785Y-127301171D01*
X92119842Y-127388257D01*
X92177900Y-127446314D01*
X92235957Y-127475342D01*
X91539271Y-127562428D02*
X91597328Y-127533400D01*
X91626357Y-127504371D01*
X91655385Y-127446314D01*
X91655385Y-127417285D01*
X91626357Y-127359228D01*
X91597328Y-127330200D01*
X91539271Y-127301171D01*
X91423157Y-127301171D01*
X91365100Y-127330200D01*
X91336071Y-127359228D01*
X91307042Y-127417285D01*
X91307042Y-127446314D01*
X91336071Y-127504371D01*
X91365100Y-127533400D01*
X91423157Y-127562428D01*
X91539271Y-127562428D01*
X91597328Y-127591457D01*
X91626357Y-127620485D01*
X91655385Y-127678542D01*
X91655385Y-127794657D01*
X91626357Y-127852714D01*
X91597328Y-127881742D01*
X91539271Y-127910771D01*
X91423157Y-127910771D01*
X91365100Y-127881742D01*
X91336071Y-127852714D01*
X91307042Y-127794657D01*
X91307042Y-127678542D01*
X91336071Y-127620485D01*
X91365100Y-127591457D01*
X91423157Y-127562428D01*
G04 #@! TO.C,C19*
X83364614Y-111333914D02*
X83393642Y-111304885D01*
X83422671Y-111217800D01*
X83422671Y-111159742D01*
X83393642Y-111072657D01*
X83335585Y-111014600D01*
X83277528Y-110985571D01*
X83161414Y-110956542D01*
X83074328Y-110956542D01*
X82958214Y-110985571D01*
X82900157Y-111014600D01*
X82842100Y-111072657D01*
X82813071Y-111159742D01*
X82813071Y-111217800D01*
X82842100Y-111304885D01*
X82871128Y-111333914D01*
X83422671Y-111914485D02*
X83422671Y-111566142D01*
X83422671Y-111740314D02*
X82813071Y-111740314D01*
X82900157Y-111682257D01*
X82958214Y-111624200D01*
X82987242Y-111566142D01*
X83422671Y-112204771D02*
X83422671Y-112320885D01*
X83393642Y-112378942D01*
X83364614Y-112407971D01*
X83277528Y-112466028D01*
X83161414Y-112495057D01*
X82929185Y-112495057D01*
X82871128Y-112466028D01*
X82842100Y-112437000D01*
X82813071Y-112378942D01*
X82813071Y-112262828D01*
X82842100Y-112204771D01*
X82871128Y-112175742D01*
X82929185Y-112146714D01*
X83074328Y-112146714D01*
X83132385Y-112175742D01*
X83161414Y-112204771D01*
X83190442Y-112262828D01*
X83190442Y-112378942D01*
X83161414Y-112437000D01*
X83132385Y-112466028D01*
X83074328Y-112495057D01*
G04 #@! TO.C,C20*
X84952114Y-110288614D02*
X84981142Y-110259585D01*
X85010171Y-110172500D01*
X85010171Y-110114442D01*
X84981142Y-110027357D01*
X84923085Y-109969300D01*
X84865028Y-109940271D01*
X84748914Y-109911242D01*
X84661828Y-109911242D01*
X84545714Y-109940271D01*
X84487657Y-109969300D01*
X84429600Y-110027357D01*
X84400571Y-110114442D01*
X84400571Y-110172500D01*
X84429600Y-110259585D01*
X84458628Y-110288614D01*
X84458628Y-110520842D02*
X84429600Y-110549871D01*
X84400571Y-110607928D01*
X84400571Y-110753071D01*
X84429600Y-110811128D01*
X84458628Y-110840157D01*
X84516685Y-110869185D01*
X84574742Y-110869185D01*
X84661828Y-110840157D01*
X85010171Y-110491814D01*
X85010171Y-110869185D01*
X84400571Y-111246557D02*
X84400571Y-111304614D01*
X84429600Y-111362671D01*
X84458628Y-111391700D01*
X84516685Y-111420728D01*
X84632800Y-111449757D01*
X84777942Y-111449757D01*
X84894057Y-111420728D01*
X84952114Y-111391700D01*
X84981142Y-111362671D01*
X85010171Y-111304614D01*
X85010171Y-111246557D01*
X84981142Y-111188500D01*
X84952114Y-111159471D01*
X84894057Y-111130442D01*
X84777942Y-111101414D01*
X84632800Y-111101414D01*
X84516685Y-111130442D01*
X84458628Y-111159471D01*
X84429600Y-111188500D01*
X84400571Y-111246557D01*
G04 #@! TO.C,C21*
X85244214Y-120702614D02*
X85273242Y-120673585D01*
X85302271Y-120586500D01*
X85302271Y-120528442D01*
X85273242Y-120441357D01*
X85215185Y-120383300D01*
X85157128Y-120354271D01*
X85041014Y-120325242D01*
X84953928Y-120325242D01*
X84837814Y-120354271D01*
X84779757Y-120383300D01*
X84721700Y-120441357D01*
X84692671Y-120528442D01*
X84692671Y-120586500D01*
X84721700Y-120673585D01*
X84750728Y-120702614D01*
X84750728Y-120934842D02*
X84721700Y-120963871D01*
X84692671Y-121021928D01*
X84692671Y-121167071D01*
X84721700Y-121225128D01*
X84750728Y-121254157D01*
X84808785Y-121283185D01*
X84866842Y-121283185D01*
X84953928Y-121254157D01*
X85302271Y-120905814D01*
X85302271Y-121283185D01*
X85302271Y-121863757D02*
X85302271Y-121515414D01*
X85302271Y-121689585D02*
X84692671Y-121689585D01*
X84779757Y-121631528D01*
X84837814Y-121573471D01*
X84866842Y-121515414D01*
G04 #@! TO.C,L2*
X84235471Y-121691400D02*
X84235471Y-121401114D01*
X83625871Y-121401114D01*
X83683928Y-121865571D02*
X83654900Y-121894600D01*
X83625871Y-121952657D01*
X83625871Y-122097800D01*
X83654900Y-122155857D01*
X83683928Y-122184885D01*
X83741985Y-122213914D01*
X83800042Y-122213914D01*
X83887128Y-122184885D01*
X84235471Y-121836542D01*
X84235471Y-122213914D01*
G04 #@! TO.C,L3*
X84222771Y-124409200D02*
X84222771Y-124118914D01*
X83613171Y-124118914D01*
X83613171Y-124554342D02*
X83613171Y-124931714D01*
X83845400Y-124728514D01*
X83845400Y-124815600D01*
X83874428Y-124873657D01*
X83903457Y-124902685D01*
X83961514Y-124931714D01*
X84106657Y-124931714D01*
X84164714Y-124902685D01*
X84193742Y-124873657D01*
X84222771Y-124815600D01*
X84222771Y-124641428D01*
X84193742Y-124583371D01*
X84164714Y-124554342D01*
G04 #@! TO.C,U5*
X92539457Y-109933271D02*
X92539457Y-110426757D01*
X92510428Y-110484814D01*
X92481400Y-110513842D01*
X92423342Y-110542871D01*
X92307228Y-110542871D01*
X92249171Y-110513842D01*
X92220142Y-110484814D01*
X92191114Y-110426757D01*
X92191114Y-109933271D01*
X91610542Y-109933271D02*
X91900828Y-109933271D01*
X91929857Y-110223557D01*
X91900828Y-110194528D01*
X91842771Y-110165500D01*
X91697628Y-110165500D01*
X91639571Y-110194528D01*
X91610542Y-110223557D01*
X91581514Y-110281614D01*
X91581514Y-110426757D01*
X91610542Y-110484814D01*
X91639571Y-110513842D01*
X91697628Y-110542871D01*
X91842771Y-110542871D01*
X91900828Y-110513842D01*
X91929857Y-110484814D01*
G04 #@! TD*
M02*
